<svg width="70" height="70" viewBox="0 0 70 70" fill="none" xmlns="http://www.w3.org/2000/svg">
    <circle cx="35.0001" cy="35" r="34.5017" transform="rotate(0.833608 35.0001 35)" fill="#7474C1"/>
    <mask id="mask0_40_502" style="mask-type:alpha" maskUnits="userSpaceOnUse" x="16" y="16" width="38" height="38">
        <rect x="16.5593" y="16.3335" width="37.3333" height="37.3333" fill="#D9D9D9"/>
    </mask>
    <g mask="url(#mask0_40_502)">
        <path d="M35.1867 45.5782C35.6015 45.5782 35.9191 45.5069 36.1395 45.3643C36.3598 45.2217 36.47 45.0078 36.47 44.7226C36.47 44.4374 36.3598 44.217 36.1395 44.0615C35.9191 43.9059 35.5885 43.8282 35.1478 43.8282C34.0589 43.8282 32.9506 43.4846 31.8228 42.7976C30.695 42.1106 29.9756 40.8985 29.6645 39.1615C29.6126 38.9282 29.4959 38.7402 29.3145 38.5976C29.133 38.455 28.9385 38.3837 28.7311 38.3837C28.4459 38.3837 28.2256 38.4939 28.07 38.7143C27.9145 38.9346 27.8626 39.1615 27.9145 39.3948C28.3033 41.5726 29.2237 43.1476 30.6756 44.1198C32.1274 45.092 33.6311 45.5782 35.1867 45.5782ZM35.2256 50.5559C31.6737 50.5559 28.7117 49.3374 26.3395 46.9004C23.9672 44.4633 22.7811 41.43 22.7811 37.8004C22.7811 35.2078 23.8117 32.3883 25.8728 29.342C27.9339 26.2958 31.0515 22.9967 35.2256 19.4448C39.3996 22.9967 42.5172 26.2958 44.5784 29.342C46.6395 32.3883 47.67 35.2078 47.67 37.8004C47.67 41.43 46.4839 44.4633 44.1117 46.9004C41.7395 49.3374 38.7774 50.5559 35.2256 50.5559ZM35.2256 48.2226C38.1293 48.2226 40.5404 47.2309 42.4589 45.2476C44.3774 43.2643 45.3367 40.7819 45.3367 37.8004C45.3367 35.7522 44.4746 33.4254 42.7506 30.8198C41.0265 28.2143 38.5182 25.4596 35.2256 22.5559C31.933 25.4596 29.4246 28.2143 27.7006 30.8198C25.9765 33.4254 25.1145 35.7522 25.1145 37.8004C25.1145 40.7819 26.0737 43.2643 27.9922 45.2476C29.9108 47.2309 32.3219 48.2226 35.2256 48.2226Z" fill="white"/>
    </g>
</svg>
