<svg width="70" height="70" viewBox="0 0 70 70" fill="none" xmlns="http://www.w3.org/2000/svg">
<circle cx="35" cy="35" r="34.5017" transform="rotate(0.833608 35 35)" fill="#7474C1"/>
<mask id="mask0_40_517" style="mask-type:alpha" maskUnits="userSpaceOnUse" x="16" y="16" width="38" height="38">
<rect x="16.5609" y="16.3335" width="37.3333" height="37.3333" fill="#D9D9D9"/>
</mask>
<g mask="url(#mask0_40_517)">
<path d="M37.1727 33.0166L30.795 26.6388L32.4672 24.9666L37.1727 29.711L46.2727 20.6499L47.9061 22.2443L37.1727 33.0166ZM26.4783 45.8888L38.4172 49.3888L48.0616 46.3555C48.0616 45.8369 47.8607 45.4027 47.4589 45.0527C47.057 44.7027 46.5839 44.5277 46.0394 44.5277H37.9116C37.4968 44.5277 37.0885 44.4953 36.6866 44.4305C36.2848 44.3656 35.8894 44.2684 35.5005 44.1388L31.7672 43.011L32.5061 40.6388L36.1616 41.8832C36.4468 41.9869 36.7385 42.0647 37.0366 42.1166C37.3348 42.1684 37.6264 42.1943 37.9116 42.1943H40.0894C40.0894 41.6499 39.9079 41.1768 39.545 40.7749C39.182 40.3731 38.7413 40.0684 38.2227 39.861L29.745 36.6332H26.4783V45.8888ZM18.1172 50.5555V34.2999H29.7061C29.8357 34.2999 29.9718 34.3129 30.1144 34.3388C30.257 34.3647 30.3931 34.4036 30.5227 34.4555L39.0005 37.6443C39.9857 38.0073 40.8218 38.5906 41.5089 39.3943C42.1959 40.1981 42.5394 41.1314 42.5394 42.1943H46.0394C47.3616 42.1943 48.4829 42.674 49.4033 43.6332C50.3237 44.5925 50.7839 45.7332 50.7839 47.0555V48.0666L38.6116 51.7999L26.4783 48.3388V50.5555H18.1172ZM20.4505 48.2221H24.1061V36.6332H20.4505V48.2221Z" fill="white"/>
</g>
</svg>
