<svg width="70" height="70" viewBox="0 0 70 70" fill="none" xmlns="http://www.w3.org/2000/svg">
    <circle cx="34.9999" cy="35" r="34.5017" transform="rotate(0.833608 34.9999 35)" fill="#7474C1"/>
    <mask id="mask0_40_507" style="mask-type:alpha" maskUnits="userSpaceOnUse" x="16" y="16" width="38" height="38">
        <rect x="16.5592" y="16.3335" width="37.3333" height="37.3333" fill="#D9D9D9"/>
    </mask>
    <g mask="url(#mask0_40_507)">
        <path d="M41.4484 33.4448C41.8892 33.4448 42.2586 33.2958 42.5568 32.9976C42.8549 32.6995 43.004 32.33 43.004 31.8893C43.004 31.4485 42.8549 31.0791 42.5568 30.7809C42.2586 30.4828 41.8892 30.3337 41.4484 30.3337C41.0077 30.3337 40.6382 30.4828 40.3401 30.7809C40.042 31.0791 39.8929 31.4485 39.8929 31.8893C39.8929 32.33 40.042 32.6995 40.3401 32.9976C40.6382 33.2958 41.0077 33.4448 41.4484 33.4448ZM29.004 29.5559H36.7818V27.2226H29.004V29.5559ZM23.5595 49.0004C22.6781 46.0448 21.8095 43.0958 20.954 40.1532C20.0984 37.2106 19.6707 34.1967 19.6707 31.1115C19.6707 28.7263 20.5003 26.7041 22.1595 25.0448C23.8188 23.3856 25.841 22.5559 28.2262 22.5559H36.004C36.7558 21.5708 37.6697 20.8059 38.7457 20.2615C39.8216 19.717 40.9818 19.4448 42.2262 19.4448C42.8744 19.4448 43.4253 19.6717 43.879 20.1254C44.3327 20.5791 44.5595 21.13 44.5595 21.7782C44.5595 21.9337 44.5401 22.0893 44.5012 22.2448C44.4623 22.4004 44.417 22.543 44.3651 22.6726C44.2614 22.9578 44.1642 23.2495 44.0734 23.5476C43.9827 23.8458 43.9114 24.1504 43.8595 24.4615L47.3984 28.0004H50.7818V38.8504L46.3873 40.2893L43.7818 49.0004H35.2262V45.8893H32.1151V49.0004H23.5595ZM25.3095 46.667H29.7818V43.5559H37.5595V46.667H42.0318L44.4818 38.5004L48.4484 37.1393V30.3337H46.4262L41.4484 25.3559C41.4744 24.7078 41.5586 24.0791 41.7012 23.4698C41.8438 22.8606 41.9929 22.2448 42.1484 21.6226C41.1632 21.8819 40.2299 22.2643 39.3484 22.7698C38.467 23.2754 37.7929 23.9819 37.3262 24.8893H28.2262C26.5077 24.8893 25.041 25.4967 23.8262 26.7115C22.6114 27.9263 22.004 29.393 22.004 31.1115C22.004 33.786 22.3799 36.399 23.1318 38.9507C23.8836 41.5023 24.6095 44.0745 25.3095 46.667Z" fill="white"/>
    </g>
</svg>
