<svg width="70" height="70" viewBox="0 0 70 70" fill="none" xmlns="http://www.w3.org/2000/svg">
    <circle cx="35" cy="35" r="34.5017" transform="rotate(0.833608 35 35)" fill="#7474C1"/>
    <mask id="mask0_40_532" style="mask-type:alpha" maskUnits="userSpaceOnUse" x="16" y="16" width="38" height="38">
        <rect x="16.5609" y="16.3335" width="37.3333" height="37.3333" fill="#D9D9D9"/>
    </mask>
    <g mask="url(#mask0_40_532)">
        <path d="M25.4772 49.5497V46.4453C26.3418 45.9426 27.0609 45.4201 27.6347 44.8779C28.2085 44.3358 28.6715 43.7868 29.0237 43.2311C29.3759 42.6754 29.6228 42.1137 29.7643 41.5462C29.9057 40.9786 29.9765 40.4108 29.9765 39.8427C29.9765 39.5496 29.9607 39.2585 29.9291 38.9694C29.8976 38.6803 29.8502 38.3891 29.7871 38.0961H25.4772V35.0154H28.2028C27.2503 33.6447 26.6227 32.4323 26.3201 31.3784C26.0174 30.3245 25.8661 29.2694 25.8661 28.2132C25.8661 25.8291 26.6971 23.8061 28.3592 22.144C30.0213 20.4819 32.0444 19.6509 34.4284 19.6509C36.2895 19.6509 37.9482 20.1198 39.4045 21.0576C40.8609 21.9955 41.9351 23.28 42.6273 24.911L39.7849 26.1132C39.3183 25.0548 38.6005 24.2302 37.6317 23.6396C36.6628 23.0489 35.5951 22.7535 34.4284 22.7535C32.9089 22.7535 31.6191 23.2771 30.559 24.3243C29.4988 25.3715 28.9688 26.6678 28.9688 28.2132C28.9688 29.1803 29.1395 30.1537 29.4811 31.1333C29.8226 32.1128 30.6229 33.4069 31.8821 35.0154H38.691V38.0961H32.8847C32.9478 38.3891 32.996 38.6932 33.0293 39.0083C33.0625 39.3233 33.0792 39.6015 33.0792 39.8427C33.0792 41.1142 32.814 42.3169 32.2836 43.4509C31.7533 44.5849 31.0417 45.5909 30.149 46.469H38.3173C39.1999 46.469 39.9951 46.2207 40.703 45.7242C41.4109 45.2277 41.9187 44.3814 42.2265 43.1854L45.0181 44.3284C44.6371 46.0339 43.7905 47.3305 42.4784 48.2182C41.1663 49.1059 39.7793 49.5497 38.3173 49.5497H25.4772Z" fill="white"/>
    </g>
</svg>
