<svg width="70" height="70" viewBox="0 0 70 70" fill="none" xmlns="http://www.w3.org/2000/svg">
    <circle cx="34.9999" cy="35" r="34.5017" transform="rotate(0.833608 34.9999 35)" fill="#7474C1"/>
    <mask id="mask0_40_537" style="mask-type:alpha" maskUnits="userSpaceOnUse" x="20" y="20" width="31" height="30">
        <rect x="20.4492" y="20.2222" width="29.5556" height="29.5556" fill="#D9D9D9"/>
    </mask>
    <g mask="url(#mask0_40_537)">
        <path d="M35.2264 47.3152C32.4145 47.3152 30.0695 46.3505 28.1915 44.4212C26.3135 42.4919 25.3745 40.0905 25.3745 37.217C25.3745 35.1646 26.1904 32.9325 27.8221 30.5208C29.4538 28.1092 31.9219 25.4974 35.2264 22.6855C38.5308 25.4974 40.9989 28.1092 42.6306 30.5208C44.2624 32.9325 45.0782 35.1646 45.0782 37.217C45.0782 40.0905 44.1392 42.4919 42.2612 44.4212C40.3832 46.3505 38.0382 47.3152 35.2264 47.3152ZM35.2264 45.468C37.5251 45.468 39.4339 44.6829 40.9528 43.1127C42.4716 41.5426 43.231 39.5774 43.231 37.217C43.231 35.5956 42.5485 33.7535 41.1837 31.6908C39.8188 29.628 37.833 27.4473 35.2264 25.1485C32.6197 27.4473 30.634 29.628 29.2691 31.6908C27.9042 33.7535 27.2217 35.5956 27.2217 37.217C27.2217 39.5774 27.9811 41.5426 29.5 43.1127C31.0188 44.6829 32.9276 45.468 35.2264 45.468Z" fill="white"/>
    </g>
    <circle cx="35.2262" cy="35.0002" r="17.1667" stroke="white" stroke-width="3"/>
    <path d="M50.7177 26.0557L19.7332 43.9446" stroke="white" stroke-width="3"/>
</svg>
