<svg width="70" height="70" viewBox="0 0 70 70" fill="none" xmlns="http://www.w3.org/2000/svg">
    <circle cx="34.9999" cy="35" r="34.5017" transform="rotate(0.833608 34.9999 35)" fill="#7474C1"/>
    <mask id="mask0_40_512" style="mask-type:alpha" maskUnits="userSpaceOnUse" x="16" y="16" width="38" height="38">
        <rect x="16.5592" y="16.3335" width="37.3333" height="37.3333" fill="#D9D9D9"/>
    </mask>
    <g mask="url(#mask0_40_512)">
        <path d="M30.1699 29.0114H40.281V25.3947C40.281 23.9169 39.7949 22.6855 38.8227 21.7003C37.8505 20.7151 36.6514 20.2225 35.2255 20.2225C33.7995 20.2225 32.6005 20.7151 31.6282 21.7003C30.656 22.6855 30.1699 23.9169 30.1699 25.3947V29.0114ZM38.2199 50.5558H25.1143C24.518 50.5558 23.9801 50.316 23.5005 49.8364C23.0208 49.3568 22.781 48.8188 22.781 48.2225V31.3447C22.781 30.7484 23.0208 30.2105 23.5005 29.7308C23.9801 29.2512 24.518 29.0114 25.1143 29.0114H27.8366V25.3947C27.8366 23.2947 28.5495 21.5188 29.9755 20.0669C31.4014 18.6151 33.1514 17.8892 35.2255 17.8892C37.2995 17.8892 39.0495 18.6151 40.4755 20.0669C41.9014 21.5188 42.6143 23.2947 42.6143 25.3947V29.0114H45.3366C45.9329 29.0114 46.4708 29.2512 46.9505 29.7308C47.4301 30.2105 47.6699 30.7484 47.6699 31.3447V34.728C47.3329 34.6503 46.9829 34.5984 46.6199 34.5725C46.2569 34.5466 45.8292 34.5336 45.3366 34.5336V31.3447H25.1143V48.2225H36.8199C37.0014 48.6632 37.1958 49.0586 37.4032 49.4086C37.6106 49.7586 37.8829 50.141 38.2199 50.5558ZM45.8421 51.878C43.794 51.878 42.031 51.1392 40.5532 49.6614C39.0755 48.1836 38.3366 46.4206 38.3366 44.3725C38.3366 42.3243 39.0755 40.5614 40.5532 39.0836C42.031 37.6058 43.794 36.8669 45.8421 36.8669C47.8903 36.8669 49.6532 37.6058 51.131 39.0836C52.6088 40.5614 53.3477 42.3243 53.3477 44.3725C53.3477 46.4206 52.6088 48.1836 51.131 49.6614C49.6532 51.1392 47.8903 51.878 45.8421 51.878ZM48.7199 48.3003L49.7699 47.2503L46.5032 44.2947V39.4725H44.8699V44.7527L48.7199 48.3003Z" fill="white"/>
    </g>
</svg>
