<svg width="1701" height="214" viewBox="0 0 1701 214" fill="none" xmlns="http://www.w3.org/2000/svg">
    <path d="M24 74H1629" stroke="white" stroke-width="2" stroke-dasharray="2 2"/>
    <circle cx="53.5278" cy="73.6525" r="40.0771" transform="rotate(0.833608 53.5278 73.6525)" fill="#7474C1"/>
    <mask id="mask0_0_1" style="mask-type:alpha" maskUnits="userSpaceOnUse" x="33" y="53" width="42" height="42">
        <rect x="33.3474" y="53.3247" width="41.2627" height="41.2627" fill="#D9D9D9"/>
    </mask>
    <g mask="url(#mask0_0_1)">
        <path d="M53.9787 89.4305L41.9438 82.8972V72.5815L35.0667 68.7991L53.9787 58.4834L72.8908 68.7991V82.5533H69.4523V70.6903L66.0137 72.5815V82.8972L53.9787 89.4305ZM53.9787 75.1604L65.7558 68.7991L53.9787 62.4377L42.2017 68.7991L53.9787 75.1604ZM53.9787 85.5191L62.5752 80.877V74.3867L53.9787 79.1148L45.3823 74.3867V80.877L53.9787 85.5191Z" fill="white"/>
    </g>
    <circle cx="366.849" cy="68.8756" r="45.4207" transform="rotate(0.833608 366.849 68.8756)" fill="#7474C1"/>
    <mask id="mask1_0_1" style="mask-type:alpha" maskUnits="userSpaceOnUse" x="341" y="44" width="50" height="51">
        <rect x="341.045" y="44.9155" width="49.1485" height="49.1485" fill="#D9D9D9"/>
    </mask>
    <g mask="url(#mask1_0_1)">
        <path d="M381.899 87.9205C377.633 87.9205 373.418 86.9904 369.254 85.1303C365.09 83.2701 361.301 80.6335 357.888 77.2204C354.475 73.8073 351.839 70.0188 349.978 65.8548C348.118 61.6909 347.188 57.4757 347.188 53.2093C347.188 52.595 347.393 52.083 347.803 51.6734C348.212 51.2639 348.724 51.0591 349.338 51.0591H357.632C358.11 51.0591 358.537 51.2212 358.912 51.5454C359.288 51.8697 359.509 52.2537 359.578 52.6974L360.909 59.8649C360.977 60.411 360.96 60.8717 360.858 61.2472C360.755 61.6226 360.568 61.9468 360.295 62.2199L355.328 67.2371C356.011 68.5 356.822 69.7202 357.76 70.8977C358.699 72.0752 359.731 73.21 360.858 74.3022C361.916 75.3603 363.025 76.3416 364.185 77.246C365.346 78.1505 366.575 78.9782 367.872 79.729L372.684 74.9166C372.991 74.6094 373.392 74.379 373.887 74.2254C374.382 74.0719 374.868 74.0292 375.346 74.0975L382.411 75.5309C382.889 75.6675 383.282 75.9149 383.589 76.2733C383.896 76.6317 384.05 77.0327 384.05 77.4764V85.7702C384.05 86.3846 383.845 86.8965 383.435 87.3061C383.026 87.7157 382.514 87.9205 381.899 87.9205ZM353.383 63.3462L356.762 59.9673L355.892 55.1548H351.335C351.506 56.5542 351.745 57.9365 352.052 59.3017C352.359 60.6669 352.803 62.0151 353.383 63.3462ZM371.711 81.6745C373.042 82.2547 374.399 82.7155 375.781 83.0568C377.164 83.3981 378.555 83.62 379.954 83.7224V79.2171L375.141 78.2444L371.711 81.6745Z" fill="white"/>
    </g>
    <circle cx="997.829" cy="73.3392" r="56.108" transform="rotate(0.833608 997.829 73.3392)" fill="#7474C1"/>
    <mask id="mask2_0_1" style="mask-type:alpha" maskUnits="userSpaceOnUse" x="966" y="42" width="63" height="63">
        <rect x="966.259" y="42.0342" width="61.983" height="61.983" fill="#D9D9D9"/>
    </mask>
    <g mask="url(#mask2_0_1)">
        <path d="M986.208 63.9216C986.724 63.9216 987.176 63.7279 987.564 63.3405C987.951 62.9531 988.145 62.5012 988.145 61.9846C988.145 61.4681 987.951 61.0162 987.564 60.6288C987.176 60.2414 986.724 60.0477 986.208 60.0477C985.691 60.0477 985.239 60.2414 984.852 60.6288C984.465 61.0162 984.271 61.4681 984.271 61.9846C984.271 62.5012 984.465 62.9531 984.852 63.3405C985.239 63.7279 985.691 63.9216 986.208 63.9216ZM986.208 74.9623C986.724 74.9623 987.176 74.7686 987.564 74.3812C987.951 73.9938 988.145 73.5419 988.145 73.0254C988.145 72.5088 987.951 72.0569 987.564 71.6695C987.176 71.2821 986.724 71.0884 986.208 71.0884C985.691 71.0884 985.239 71.2821 984.852 71.6695C984.465 72.0569 984.271 72.5088 984.271 73.0254C984.271 73.5419 984.465 73.9938 984.852 74.3812C985.239 74.7686 985.691 74.9623 986.208 74.9623ZM986.208 86.003C986.724 86.003 987.176 85.8093 987.564 85.4219C987.951 85.0346 988.145 84.5826 988.145 84.0661C988.145 83.5495 987.951 83.0976 987.564 82.7102C987.176 82.3228 986.724 82.1291 986.208 82.1291C985.691 82.1291 985.239 82.3228 984.852 82.7102C984.465 83.0976 984.271 83.5495 984.271 84.0661C984.271 84.5826 984.465 85.0346 984.852 85.4219C985.239 85.8093 985.691 86.003 986.208 86.003ZM977.879 96.269C976.846 96.269 975.942 95.8816 975.167 95.1068C974.392 94.332 974.005 93.4281 974.005 92.395V53.6557C974.005 52.6226 974.392 51.7187 975.167 50.9439C975.942 50.1691 976.846 49.7817 977.879 49.7817H1007.71L1020.49 62.5657V92.395C1020.49 93.4281 1020.1 94.332 1019.33 95.1068C1018.56 95.8816 1017.65 96.269 1016.62 96.269H977.879ZM977.879 92.395H1016.62V64.7241H1005.58V53.6557H977.879V92.395Z" fill="white"/>
    </g>
    <path d="M0.744229 180V166.909H9.56525V169.191H3.51199V172.31H9.11142V174.592H3.51199V177.718H9.59082V180H0.744229ZM16.4063 180H11.7657V166.909H16.4447C17.7615 166.909 18.895 167.171 19.8453 167.695C20.7955 168.215 21.5264 168.963 22.0377 169.939C22.5534 170.915 22.8112 172.082 22.8112 173.442C22.8112 174.805 22.5534 175.977 22.0377 176.957C21.5264 177.937 20.7913 178.69 19.8325 179.214C18.8779 179.738 17.7359 180 16.4063 180ZM14.5335 177.629H16.2913C17.1095 177.629 17.7977 177.484 18.3559 177.194C18.9184 176.9 19.3403 176.446 19.6215 175.832C19.907 175.214 20.0498 174.418 20.0498 173.442C20.0498 172.474 19.907 171.684 19.6215 171.07C19.3403 170.457 18.9205 170.005 18.3623 169.715C17.8041 169.425 17.1159 169.281 16.2977 169.281H14.5335V177.629ZM32.9474 166.909H35.7151V175.411C35.7151 176.365 35.4871 177.2 35.0312 177.916C34.5795 178.632 33.9466 179.19 33.1327 179.591C32.3188 179.987 31.3707 180.185 30.2883 180.185C29.2016 180.185 28.2513 179.987 27.4374 179.591C26.6235 179.19 25.9907 178.632 25.539 177.916C25.0873 177.2 24.8614 176.365 24.8614 175.411V166.909H27.6292V175.174C27.6292 175.673 27.7378 176.116 27.9552 176.504C28.1768 176.891 28.4878 177.196 28.8884 177.418C29.289 177.639 29.7556 177.75 30.2883 177.75C30.8252 177.75 31.2918 177.639 31.6881 177.418C32.0887 177.196 32.3976 176.891 32.615 176.504C32.8366 176.116 32.9474 175.673 32.9474 175.174V166.909ZM49.5427 171.492H46.743C46.6919 171.13 46.5874 170.808 46.4298 170.527C46.2721 170.241 46.0697 169.999 45.8225 169.798C45.5754 169.598 45.2899 169.445 44.966 169.338C44.6464 169.232 44.2991 169.178 43.9241 169.178C43.2465 169.178 42.6563 169.347 42.1535 169.683C41.6507 170.016 41.2607 170.501 40.9838 171.141C40.7068 171.776 40.5683 172.547 40.5683 173.455C40.5683 174.388 40.7068 175.172 40.9838 175.807C41.265 176.442 41.657 176.921 42.1599 177.245C42.6627 177.569 43.2444 177.731 43.9049 177.731C44.2757 177.731 44.6187 177.682 44.934 177.584C45.2536 177.486 45.537 177.343 45.7842 177.156C46.0313 176.964 46.2359 176.732 46.3978 176.459C46.564 176.186 46.6791 175.875 46.743 175.526L49.5427 175.538C49.4703 176.139 49.2892 176.719 48.9994 177.277C48.7139 177.831 48.3282 178.327 47.8424 178.766C47.3609 179.201 46.7856 179.546 46.1166 179.802C45.4518 180.053 44.6997 180.179 43.8602 180.179C42.6926 180.179 41.6485 179.915 40.7281 179.386C39.8119 178.858 39.0874 178.093 38.5548 177.092C38.0264 176.09 37.7622 174.878 37.7622 173.455C37.7622 172.027 38.0306 170.812 38.5676 169.811C39.1045 168.81 39.8332 168.047 40.7536 167.523C41.6741 166.994 42.7096 166.73 43.8602 166.73C44.6187 166.73 45.3218 166.837 45.9695 167.05C46.6215 167.263 47.199 167.574 47.7018 167.983C48.2046 168.388 48.6137 168.884 48.9291 169.472C49.2487 170.06 49.4532 170.734 49.5427 171.492ZM53.5377 180H50.5718L55.091 166.909H58.6578L63.1705 180H60.2046L56.9255 169.901H56.8232L53.5377 180ZM53.3524 174.854H60.358V177.015H53.3524V174.854ZM62.648 169.191V166.909H73.3994V169.191H69.3916V180H66.6558V169.191H62.648ZM77.9378 166.909V180H75.17V166.909H77.9378ZM92.2448 173.455C92.2448 174.882 91.9742 176.097 91.433 177.098C90.896 178.099 90.1631 178.864 89.2341 179.393C88.3094 179.917 87.2696 180.179 86.1148 180.179C84.9514 180.179 83.9074 179.915 82.9827 179.386C82.058 178.858 81.3271 178.093 80.7902 177.092C80.2533 176.09 79.9848 174.878 79.9848 173.455C79.9848 172.027 80.2533 170.812 80.7902 169.811C81.3271 168.81 82.058 168.047 82.9827 167.523C83.9074 166.994 84.9514 166.73 86.1148 166.73C87.2696 166.73 88.3094 166.994 89.2341 167.523C90.1631 168.047 90.896 168.81 91.433 169.811C91.9742 170.812 92.2448 172.027 92.2448 173.455ZM89.4387 173.455C89.4387 172.53 89.3002 171.75 89.0232 171.115C88.7504 170.48 88.3648 169.999 87.8662 169.67C87.3676 169.342 86.7838 169.178 86.1148 169.178C85.4458 169.178 84.8619 169.342 84.3634 169.67C83.8648 169.999 83.477 170.48 83.2 171.115C82.9273 171.75 82.7909 172.53 82.7909 173.455C82.7909 174.379 82.9273 175.159 83.2 175.794C83.477 176.429 83.8648 176.911 84.3634 177.239C84.8619 177.567 85.4458 177.731 86.1148 177.731C86.7838 177.731 87.3676 177.567 87.8662 177.239C88.3648 176.911 88.7504 176.429 89.0232 175.794C89.3002 175.159 89.4387 174.379 89.4387 173.455ZM105.245 166.909V180H102.854L97.1586 171.761H97.0628V180H94.295V166.909H96.724L102.375 175.142H102.49V166.909H105.245Z" fill="white"/>
    <path d="M332.501 186L328.755 172.909H331.778L333.945 182.005H334.054L336.444 172.909H339.033L341.417 182.024H341.532L343.699 172.909H346.723L342.977 186H340.28L337.787 177.441H337.684L335.198 186H332.501ZM348.204 186V172.909H357.025V175.191H350.972V178.31H356.571V180.592H350.972V183.718H357.051V186H348.204ZM361.482 186H358.516L363.035 172.909H366.602L371.115 186H368.149L364.87 175.901H364.768L361.482 186ZM361.297 180.854H368.302V183.015H361.297V180.854ZM372.691 186V172.909H375.458V183.718H381.07V186H372.691ZM380.77 175.191V172.909H391.521V175.191H387.514V186H384.778V175.191H380.77ZM393.292 186V172.909H396.06V178.31H401.678V172.909H404.44V186H401.678V180.592H396.06V186H393.292ZM330.67 201.674C330.619 201.158 330.399 200.758 330.012 200.472C329.624 200.187 329.098 200.044 328.433 200.044C327.981 200.044 327.6 200.108 327.289 200.236C326.978 200.359 326.739 200.532 326.573 200.754C326.411 200.975 326.33 201.227 326.33 201.508C326.321 201.742 326.37 201.947 326.477 202.121C326.588 202.296 326.739 202.447 326.931 202.575C327.122 202.699 327.344 202.808 327.595 202.901C327.847 202.991 328.115 203.067 328.401 203.131L329.577 203.413C330.148 203.54 330.672 203.711 331.149 203.924C331.627 204.137 332.04 204.399 332.389 204.71C332.739 205.021 333.009 205.388 333.201 205.81C333.397 206.232 333.497 206.715 333.502 207.261C333.497 208.062 333.293 208.756 332.888 209.344C332.487 209.928 331.908 210.382 331.149 210.706C330.395 211.026 329.485 211.185 328.42 211.185C327.363 211.185 326.443 211.023 325.659 210.7C324.879 210.376 324.269 209.896 323.831 209.261C323.396 208.622 323.168 207.832 323.147 206.89H325.825C325.855 207.329 325.98 207.695 326.202 207.989C326.428 208.279 326.728 208.499 327.103 208.648C327.483 208.793 327.911 208.865 328.388 208.865C328.857 208.865 329.264 208.797 329.609 208.661C329.958 208.524 330.229 208.335 330.421 208.092C330.612 207.849 330.708 207.57 330.708 207.254C330.708 206.96 330.621 206.713 330.446 206.513C330.276 206.312 330.024 206.142 329.692 206.001C329.364 205.861 328.961 205.733 328.484 205.618L327.059 205.26C325.955 204.991 325.083 204.572 324.444 204.001C323.805 203.43 323.487 202.661 323.492 201.693C323.487 200.901 323.698 200.208 324.125 199.616C324.555 199.023 325.145 198.561 325.895 198.229C326.645 197.896 327.497 197.73 328.452 197.73C329.424 197.73 330.272 197.896 330.996 198.229C331.725 198.561 332.291 199.023 332.696 199.616C333.101 200.208 333.31 200.894 333.323 201.674H330.67ZM335.363 211V197.909H344.184V200.191H338.131V203.31H343.731V205.592H338.131V208.718H344.21V211H335.363ZM346.385 211V197.909H351.55C352.538 197.909 353.382 198.086 354.081 198.44C354.784 198.789 355.319 199.286 355.685 199.929C356.056 200.568 356.241 201.32 356.241 202.185C356.241 203.055 356.054 203.803 355.679 204.429C355.304 205.051 354.761 205.528 354.049 205.861C353.342 206.193 352.485 206.359 351.479 206.359H348.021V204.135H351.032C351.56 204.135 351.999 204.062 352.349 203.918C352.698 203.773 352.958 203.555 353.128 203.266C353.303 202.976 353.391 202.616 353.391 202.185C353.391 201.751 353.303 201.384 353.128 201.086C352.958 200.788 352.696 200.562 352.342 200.408C351.993 200.251 351.552 200.172 351.019 200.172H349.153V211H346.385ZM353.454 205.043L356.708 211H353.653L350.469 205.043H353.454ZM360.211 197.909L363.375 207.855H363.496L366.667 197.909H369.735L365.222 211H361.655L357.136 197.909H360.211ZM374.078 197.909V211H371.311V197.909H374.078ZM387.906 202.492H385.106C385.055 202.13 384.951 201.808 384.793 201.527C384.635 201.241 384.433 200.999 384.186 200.798C383.939 200.598 383.653 200.445 383.329 200.338C383.01 200.232 382.662 200.178 382.287 200.178C381.61 200.178 381.02 200.347 380.517 200.683C380.014 201.016 379.624 201.501 379.347 202.141C379.07 202.776 378.932 203.547 378.932 204.455C378.932 205.388 379.07 206.172 379.347 206.807C379.628 207.442 380.02 207.921 380.523 208.245C381.026 208.569 381.608 208.731 382.268 208.731C382.639 208.731 382.982 208.682 383.297 208.584C383.617 208.486 383.9 208.343 384.147 208.156C384.395 207.964 384.599 207.732 384.761 207.459C384.927 207.186 385.042 206.875 385.106 206.526L387.906 206.538C387.834 207.139 387.652 207.719 387.363 208.277C387.077 208.831 386.691 209.327 386.206 209.766C385.724 210.201 385.149 210.546 384.48 210.802C383.815 211.053 383.063 211.179 382.223 211.179C381.056 211.179 380.012 210.915 379.091 210.386C378.175 209.858 377.451 209.093 376.918 208.092C376.39 207.09 376.125 205.878 376.125 204.455C376.125 203.027 376.394 201.812 376.931 200.811C377.468 199.81 378.196 199.047 379.117 198.523C380.037 197.994 381.073 197.73 382.223 197.73C382.982 197.73 383.685 197.837 384.333 198.05C384.985 198.263 385.562 198.574 386.065 198.983C386.568 199.388 386.977 199.884 387.292 200.472C387.612 201.06 387.816 201.734 387.906 202.492ZM389.891 211V197.909H398.712V200.191H392.658V203.31H398.258V205.592H392.658V208.718H398.737V211H389.891ZM408.014 201.674C407.963 201.158 407.743 200.758 407.355 200.472C406.968 200.187 406.441 200.044 405.777 200.044C405.325 200.044 404.943 200.108 404.632 200.236C404.321 200.359 404.083 200.532 403.916 200.754C403.755 200.975 403.674 201.227 403.674 201.508C403.665 201.742 403.714 201.947 403.821 202.121C403.931 202.296 404.083 202.447 404.274 202.575C404.466 202.699 404.688 202.808 404.939 202.901C405.191 202.991 405.459 203.067 405.745 203.131L406.921 203.413C407.492 203.54 408.016 203.711 408.493 203.924C408.97 204.137 409.384 204.399 409.733 204.71C410.083 205.021 410.353 205.388 410.545 205.81C410.741 206.232 410.841 206.715 410.845 207.261C410.841 208.062 410.637 208.756 410.232 209.344C409.831 209.928 409.252 210.382 408.493 210.706C407.739 211.026 406.829 211.185 405.764 211.185C404.707 211.185 403.786 211.023 403.002 210.7C402.223 210.376 401.613 209.896 401.174 209.261C400.74 208.622 400.512 207.832 400.49 206.89H403.169C403.198 207.329 403.324 207.695 403.546 207.989C403.772 208.279 404.072 208.499 404.447 208.648C404.826 208.793 405.255 208.865 405.732 208.865C406.201 208.865 406.608 208.797 406.953 208.661C407.302 208.524 407.573 208.335 407.764 208.092C407.956 207.849 408.052 207.57 408.052 207.254C408.052 206.96 407.965 206.713 407.79 206.513C407.62 206.312 407.368 206.142 407.036 206.001C406.708 205.861 406.305 205.733 405.828 205.618L404.402 205.26C403.299 204.991 402.427 204.572 401.788 204.001C401.149 203.43 400.831 202.661 400.835 201.693C400.831 200.901 401.042 200.208 401.468 199.616C401.899 199.023 402.489 198.561 403.239 198.229C403.989 197.896 404.841 197.73 405.796 197.73C406.767 197.73 407.615 197.896 408.34 198.229C409.068 198.561 409.635 199.023 410.04 199.616C410.445 200.208 410.654 200.894 410.666 201.674H408.014Z" fill="white"/>
    <path d="M604.906 166.909V180H602.138V169.536H602.061L599.063 171.415V168.961L602.304 166.909H604.906ZM615.195 170.674C615.144 170.158 614.925 169.758 614.537 169.472C614.149 169.187 613.623 169.044 612.958 169.044C612.506 169.044 612.125 169.108 611.814 169.236C611.503 169.359 611.264 169.532 611.098 169.754C610.936 169.975 610.855 170.227 610.855 170.508C610.847 170.742 610.896 170.947 611.002 171.121C611.113 171.296 611.264 171.447 611.456 171.575C611.648 171.699 611.869 171.808 612.121 171.901C612.372 171.991 612.641 172.067 612.926 172.131L614.102 172.413C614.673 172.54 615.198 172.711 615.675 172.924C616.152 173.137 616.565 173.399 616.915 173.71C617.264 174.021 617.535 174.388 617.727 174.81C617.923 175.232 618.023 175.715 618.027 176.261C618.023 177.062 617.818 177.756 617.413 178.344C617.013 178.928 616.433 179.382 615.675 179.706C614.921 180.026 614.011 180.185 612.945 180.185C611.889 180.185 610.968 180.023 610.184 179.7C609.404 179.376 608.795 178.896 608.356 178.261C607.921 177.622 607.693 176.832 607.672 175.89H610.35C610.38 176.329 610.506 176.695 610.727 176.989C610.953 177.279 611.254 177.499 611.629 177.648C612.008 177.793 612.436 177.865 612.913 177.865C613.382 177.865 613.789 177.797 614.134 177.661C614.484 177.524 614.754 177.335 614.946 177.092C615.138 176.849 615.234 176.57 615.234 176.254C615.234 175.96 615.146 175.713 614.972 175.513C614.801 175.312 614.55 175.142 614.217 175.001C613.889 174.861 613.487 174.733 613.009 174.618L611.584 174.26C610.48 173.991 609.609 173.572 608.97 173.001C608.33 172.43 608.013 171.661 608.017 170.693C608.013 169.901 608.224 169.208 608.65 168.616C609.08 168.023 609.671 167.561 610.421 167.229C611.171 166.896 612.023 166.73 612.977 166.73C613.949 166.73 614.797 166.896 615.521 167.229C616.25 167.561 616.817 168.023 617.222 168.616C617.627 169.208 617.835 169.894 617.848 170.674H615.195ZM619.39 169.191V166.909H630.142V169.191H626.134V180H623.398V169.191H619.39ZM638.335 180H635.369L639.888 166.909H643.455L647.967 180H645.002L641.722 169.901H641.62L638.335 180ZM638.149 174.854H645.155V177.015H638.149V174.854ZM649.543 180V166.909H654.708C655.701 166.909 656.547 167.099 657.245 167.478C657.944 167.853 658.477 168.375 658.843 169.044C659.214 169.709 659.4 170.476 659.4 171.345C659.4 172.214 659.212 172.982 658.837 173.646C658.462 174.311 657.919 174.829 657.207 175.2C656.5 175.57 655.643 175.756 654.638 175.756H651.346V173.538H654.19C654.723 173.538 655.162 173.446 655.507 173.263C655.856 173.075 656.116 172.817 656.287 172.489C656.461 172.157 656.549 171.776 656.549 171.345C656.549 170.911 656.461 170.531 656.287 170.207C656.116 169.879 655.856 169.626 655.507 169.447C655.157 169.263 654.714 169.172 654.177 169.172H652.311V180H649.543ZM661.197 180V166.909H666.362C667.355 166.909 668.201 167.099 668.9 167.478C669.599 167.853 670.131 168.375 670.498 169.044C670.869 169.709 671.054 170.476 671.054 171.345C671.054 172.214 670.866 172.982 670.491 173.646C670.116 174.311 669.573 174.829 668.861 175.2C668.154 175.57 667.297 175.756 666.292 175.756H663V173.538H665.844C666.377 173.538 666.816 173.446 667.161 173.263C667.511 173.075 667.771 172.817 667.941 172.489C668.116 172.157 668.203 171.776 668.203 171.345C668.203 170.911 668.116 170.531 667.941 170.207C667.771 169.879 667.511 169.626 667.161 169.447C666.812 169.263 666.369 169.172 665.832 169.172H663.965V180H661.197ZM684.881 173.455C684.881 174.882 684.611 176.097 684.07 177.098C683.533 178.099 682.8 178.864 681.871 179.393C680.946 179.917 679.906 180.179 678.752 180.179C677.588 180.179 676.544 179.915 675.619 179.386C674.695 178.858 673.964 178.093 673.427 177.092C672.89 176.09 672.622 174.878 672.622 173.455C672.622 172.027 672.89 170.812 673.427 169.811C673.964 168.81 674.695 168.047 675.619 167.523C676.544 166.994 677.588 166.73 678.752 166.73C679.906 166.73 680.946 166.994 681.871 167.523C682.8 168.047 683.533 168.81 684.07 169.811C684.611 170.812 684.881 172.027 684.881 173.455ZM682.075 173.455C682.075 172.53 681.937 171.75 681.66 171.115C681.387 170.48 681.002 169.999 680.503 169.67C680.004 169.342 679.421 169.178 678.752 169.178C678.082 169.178 677.499 169.342 677 169.67C676.502 169.999 676.114 170.48 675.837 171.115C675.564 171.75 675.428 172.53 675.428 173.455C675.428 174.379 675.564 175.159 675.837 175.794C676.114 176.429 676.502 176.911 677 177.239C677.499 177.567 678.082 177.731 678.752 177.731C679.421 177.731 680.004 177.567 680.503 177.239C681.002 176.911 681.387 176.429 681.66 175.794C681.937 175.159 682.075 174.379 682.075 173.455ZM689.699 166.909V180H686.932V166.909H689.699ZM702.926 166.909V180H700.536L694.84 171.761H694.744V180H691.977V166.909H694.406L700.056 175.142H700.171V166.909H702.926ZM704.714 169.191V166.909H715.466V169.191H711.458V180H708.722V169.191H704.714ZM717.236 166.909H720.65L724.255 175.705H724.408L728.013 166.909H731.427V180H728.742V171.479H728.633L725.246 179.936H723.418L720.03 171.447H719.921V180H717.236V166.909ZM733.707 180V166.909H742.528V169.191H736.475V172.31H742.074V174.592H736.475V177.718H742.554V180H733.707ZM755.678 166.909V180H753.288L747.592 171.761H747.496V180H744.729V166.909H747.158L752.808 175.142H752.923V166.909H755.678ZM757.466 169.191V166.909H768.218V169.191H764.21V180H761.474V169.191H757.466Z" fill="white"/>
    <path d="M959.364 170.674C959.313 170.158 959.094 169.758 958.706 169.472C958.318 169.187 957.792 169.044 957.127 169.044C956.675 169.044 956.294 169.108 955.983 169.236C955.672 169.359 955.433 169.532 955.267 169.754C955.105 169.975 955.024 170.227 955.024 170.508C955.016 170.742 955.065 170.947 955.171 171.121C955.282 171.296 955.433 171.447 955.625 171.575C955.817 171.699 956.038 171.808 956.29 171.901C956.541 171.991 956.81 172.067 957.095 172.131L958.271 172.413C958.842 172.54 959.366 172.711 959.844 172.924C960.321 173.137 960.734 173.399 961.084 173.71C961.433 174.021 961.704 174.388 961.896 174.81C962.092 175.232 962.192 175.715 962.196 176.261C962.192 177.062 961.987 177.756 961.582 178.344C961.182 178.928 960.602 179.382 959.844 179.706C959.089 180.026 958.18 180.185 957.114 180.185C956.058 180.185 955.137 180.023 954.353 179.7C953.573 179.376 952.964 178.896 952.525 178.261C952.09 177.622 951.862 176.832 951.841 175.89H954.519C954.549 176.329 954.675 176.695 954.896 176.989C955.122 177.279 955.423 177.499 955.798 177.648C956.177 177.793 956.605 177.865 957.082 177.865C957.551 177.865 957.958 177.797 958.303 177.661C958.653 177.524 958.923 177.335 959.115 177.092C959.307 176.849 959.403 176.57 959.403 176.254C959.403 175.96 959.315 175.713 959.141 175.513C958.97 175.312 958.719 175.142 958.386 175.001C958.058 174.861 957.656 174.733 957.178 174.618L955.753 174.26C954.649 173.991 953.778 173.572 953.138 173.001C952.499 172.43 952.182 171.661 952.186 170.693C952.182 169.901 952.393 169.208 952.819 168.616C953.249 168.023 953.839 167.561 954.589 167.229C955.339 166.896 956.192 166.73 957.146 166.73C958.118 166.73 958.966 166.896 959.69 167.229C960.419 167.561 960.986 168.023 961.391 168.616C961.795 169.208 962.004 169.894 962.017 170.674H959.364ZM963.559 169.191V166.909H974.311V169.191H970.303V180H967.567V169.191H963.559ZM976.081 180V166.909H981.246C982.235 166.909 983.078 167.086 983.777 167.44C984.48 167.789 985.015 168.286 985.382 168.929C985.752 169.568 985.938 170.32 985.938 171.185C985.938 172.055 985.75 172.803 985.375 173.429C985 174.051 984.457 174.528 983.745 174.861C983.038 175.193 982.181 175.359 981.176 175.359H977.718V173.135H980.728C981.257 173.135 981.695 173.062 982.045 172.918C982.394 172.773 982.654 172.555 982.825 172.266C982.999 171.976 983.087 171.616 983.087 171.185C983.087 170.751 982.999 170.384 982.825 170.086C982.654 169.788 982.392 169.562 982.039 169.408C981.689 169.251 981.248 169.172 980.715 169.172H978.849V180H976.081ZM983.151 174.043L986.404 180H983.349L980.166 174.043H983.151ZM990.15 180H987.184L991.703 166.909H995.27L999.783 180H996.817L993.538 169.901H993.436L990.15 180ZM989.965 174.854H996.97V177.015H989.965V174.854ZM999.26 169.191V166.909H1010.01V169.191H1006V180H1003.27V169.191H999.26ZM1011.78 180V166.909H1020.6V169.191H1014.55V172.31H1020.15V174.592H1014.55V177.718H1020.63V180H1011.78ZM1031.48 171.141C1031.39 170.83 1031.27 170.555 1031.11 170.316C1030.95 170.073 1030.75 169.869 1030.51 169.702C1030.28 169.532 1030.02 169.402 1029.72 169.312C1029.43 169.223 1029.1 169.178 1028.74 169.178C1028.07 169.178 1027.48 169.344 1026.98 169.677C1026.47 170.009 1026.08 170.493 1025.8 171.128C1025.52 171.759 1025.38 172.53 1025.38 173.442C1025.38 174.354 1025.52 175.129 1025.8 175.768C1026.07 176.408 1026.46 176.896 1026.97 177.232C1027.48 177.565 1028.08 177.731 1028.77 177.731C1029.39 177.731 1029.93 177.62 1030.37 177.398C1030.82 177.173 1031.16 176.855 1031.39 176.446C1031.63 176.037 1031.75 175.553 1031.75 174.995L1032.32 175.078H1028.94V172.994H1034.42V174.643C1034.42 175.794 1034.18 176.783 1033.69 177.609C1033.2 178.432 1032.53 179.067 1031.68 179.514C1030.83 179.957 1029.85 180.179 1028.75 180.179C1027.53 180.179 1026.45 179.908 1025.52 179.367C1024.59 178.822 1023.87 178.048 1023.35 177.047C1022.83 176.041 1022.57 174.848 1022.57 173.467C1022.57 172.406 1022.73 171.46 1023.03 170.629C1023.34 169.794 1023.78 169.087 1024.34 168.507C1024.9 167.928 1025.55 167.487 1026.29 167.184C1027.03 166.881 1027.83 166.73 1028.7 166.73C1029.44 166.73 1030.13 166.839 1030.77 167.056C1031.41 167.269 1031.97 167.572 1032.47 167.964C1032.97 168.356 1033.37 168.822 1033.69 169.364C1034 169.901 1034.21 170.493 1034.3 171.141H1031.48ZM1035.2 166.909H1038.3L1041.29 172.547H1041.42L1044.4 166.909H1047.5L1042.73 175.372V180H1039.98V175.372L1035.2 166.909ZM964.436 205V191.909H969.6C970.589 191.909 971.433 192.086 972.132 192.44C972.835 192.789 973.37 193.286 973.736 193.929C974.107 194.568 974.292 195.32 974.292 196.185C974.292 197.055 974.105 197.803 973.73 198.429C973.355 199.051 972.811 199.528 972.1 199.861C971.392 200.193 970.536 200.359 969.53 200.359H966.072V198.135H969.083C969.611 198.135 970.05 198.062 970.399 197.918C970.749 197.773 971.009 197.555 971.179 197.266C971.354 196.976 971.441 196.616 971.441 196.185C971.441 195.751 971.354 195.384 971.179 195.086C971.009 194.788 970.747 194.562 970.393 194.408C970.044 194.251 969.603 194.172 969.07 194.172H967.203V205H964.436ZM971.505 199.043L974.759 205H971.703L968.52 199.043H971.505ZM976.248 205V191.909H985.069V194.191H979.016V197.31H984.615V199.592H979.016V202.718H985.095V205H976.248ZM987.27 205V191.909H992.434C993.427 191.909 994.273 192.099 994.972 192.478C995.671 192.853 996.204 193.375 996.57 194.044C996.941 194.709 997.126 195.476 997.126 196.345C997.126 197.214 996.939 197.982 996.564 198.646C996.189 199.311 995.645 199.829 994.934 200.2C994.226 200.57 993.37 200.756 992.364 200.756H989.072V198.538H991.917C992.449 198.538 992.888 198.446 993.233 198.263C993.583 198.075 993.843 197.817 994.013 197.489C994.188 197.157 994.275 196.776 994.275 196.345C994.275 195.911 994.188 195.531 994.013 195.207C993.843 194.879 993.583 194.626 993.233 194.447C992.884 194.263 992.441 194.172 991.904 194.172H990.037V205H987.27ZM1010.95 198.455C1010.95 199.882 1010.68 201.097 1010.14 202.098C1009.61 203.099 1008.87 203.864 1007.94 204.393C1007.02 204.917 1005.98 205.179 1004.82 205.179C1003.66 205.179 1002.62 204.915 1001.69 204.386C1000.77 203.858 1000.04 203.093 999.499 202.092C998.962 201.09 998.694 199.878 998.694 198.455C998.694 197.027 998.962 195.812 999.499 194.811C1000.04 193.81 1000.77 193.047 1001.69 192.523C1002.62 191.994 1003.66 191.73 1004.82 191.73C1005.98 191.73 1007.02 191.994 1007.94 192.523C1008.87 193.047 1009.61 193.81 1010.14 194.811C1010.68 195.812 1010.95 197.027 1010.95 198.455ZM1008.15 198.455C1008.15 197.53 1008.01 196.75 1007.73 196.115C1007.46 195.48 1007.07 194.999 1006.58 194.67C1006.08 194.342 1005.49 194.178 1004.82 194.178C1004.15 194.178 1003.57 194.342 1003.07 194.67C1002.57 194.999 1002.19 195.48 1001.91 196.115C1001.64 196.75 1001.5 197.53 1001.5 198.455C1001.5 199.379 1001.64 200.159 1001.91 200.794C1002.19 201.429 1002.57 201.911 1003.07 202.239C1003.57 202.567 1004.15 202.731 1004.82 202.731C1005.49 202.731 1006.08 202.567 1006.58 202.239C1007.07 201.911 1007.46 201.429 1007.73 200.794C1008.01 200.159 1008.15 199.379 1008.15 198.455ZM1013 205V191.909H1018.17C1019.16 191.909 1020 192.086 1020.7 192.44C1021.4 192.789 1021.94 193.286 1022.3 193.929C1022.68 194.568 1022.86 195.32 1022.86 196.185C1022.86 197.055 1022.67 197.803 1022.3 198.429C1021.92 199.051 1021.38 199.528 1020.67 199.861C1019.96 200.193 1019.1 200.359 1018.1 200.359H1014.64V198.135H1017.65C1018.18 198.135 1018.62 198.062 1018.97 197.918C1019.32 197.773 1019.58 197.555 1019.75 197.266C1019.92 196.976 1020.01 196.616 1020.01 196.185C1020.01 195.751 1019.92 195.384 1019.75 195.086C1019.58 194.788 1019.32 194.562 1018.96 194.408C1018.61 194.251 1018.17 194.172 1017.64 194.172H1015.77V205H1013ZM1020.07 199.043L1023.33 205H1020.27L1017.09 199.043H1020.07ZM1024.32 194.191V191.909H1035.07V194.191H1031.06V205H1028.33V194.191H1024.32Z" fill="white"/>
    <path d="M1338.45 188H1335.48L1340 174.909H1343.57L1348.08 188H1345.12L1341.84 177.901H1341.74L1338.45 188ZM1338.26 182.854H1345.27V185.015H1338.26V182.854ZM1354.3 188H1349.66V174.909H1354.34C1355.65 174.909 1356.79 175.171 1357.74 175.695C1358.69 176.215 1359.42 176.963 1359.93 177.939C1360.45 178.915 1360.7 180.082 1360.7 181.442C1360.7 182.805 1360.45 183.977 1359.93 184.957C1359.42 185.937 1358.68 186.69 1357.73 187.214C1356.77 187.738 1355.63 188 1354.3 188ZM1352.43 185.629H1354.18C1355 185.629 1355.69 185.484 1356.25 185.194C1356.81 184.9 1357.23 184.446 1357.51 183.832C1357.8 183.214 1357.94 182.418 1357.94 181.442C1357.94 180.474 1357.8 179.684 1357.51 179.07C1357.23 178.457 1356.81 178.005 1356.25 177.715C1355.7 177.425 1355.01 177.281 1354.19 177.281H1352.43V185.629ZM1364.38 174.909L1367.54 184.855H1367.67L1370.84 174.909H1373.9L1369.39 188H1365.83L1361.31 174.909H1364.38ZM1378.25 174.909V188H1375.48V174.909H1378.25ZM1392.08 179.492H1389.28C1389.23 179.13 1389.12 178.808 1388.96 178.527C1388.81 178.241 1388.6 177.999 1388.36 177.798C1388.11 177.598 1387.82 177.445 1387.5 177.338C1387.18 177.232 1386.83 177.178 1386.46 177.178C1385.78 177.178 1385.19 177.347 1384.69 177.683C1384.18 178.016 1383.79 178.501 1383.52 179.141C1383.24 179.776 1383.1 180.547 1383.1 181.455C1383.1 182.388 1383.24 183.172 1383.52 183.807C1383.8 184.442 1384.19 184.921 1384.69 185.245C1385.2 185.569 1385.78 185.731 1386.44 185.731C1386.81 185.731 1387.15 185.682 1387.47 185.584C1387.79 185.486 1388.07 185.343 1388.32 185.156C1388.56 184.964 1388.77 184.732 1388.93 184.459C1389.1 184.186 1389.21 183.875 1389.28 183.526L1392.08 183.538C1392 184.139 1391.82 184.719 1391.53 185.277C1391.25 185.831 1390.86 186.327 1390.38 186.766C1389.89 187.201 1389.32 187.546 1388.65 187.802C1387.98 188.053 1387.23 188.179 1386.39 188.179C1385.23 188.179 1384.18 187.915 1383.26 187.386C1382.35 186.858 1381.62 186.093 1381.09 185.092C1380.56 184.09 1380.3 182.878 1380.3 181.455C1380.3 180.027 1380.56 178.812 1381.1 177.811C1381.64 176.81 1382.37 176.047 1383.29 175.523C1384.21 174.994 1385.24 174.73 1386.39 174.73C1387.15 174.73 1387.86 174.837 1388.5 175.05C1389.15 175.263 1389.73 175.574 1390.23 175.983C1390.74 176.388 1391.15 176.884 1391.46 177.472C1391.78 178.06 1391.99 178.734 1392.08 179.492ZM1394.06 188V174.909H1402.88V177.191H1396.83V180.31H1402.43V182.592H1396.83V185.718H1402.91V188H1394.06ZM1334.44 213V199.909H1339.6C1340.59 199.909 1341.43 200.086 1342.13 200.44C1342.83 200.789 1343.37 201.286 1343.74 201.929C1344.11 202.568 1344.29 203.32 1344.29 204.185C1344.29 205.055 1344.1 205.803 1343.73 206.429C1343.35 207.051 1342.81 207.528 1342.1 207.861C1341.39 208.193 1340.54 208.359 1339.53 208.359H1336.07V206.135H1339.08C1339.61 206.135 1340.05 206.062 1340.4 205.918C1340.75 205.773 1341.01 205.555 1341.18 205.266C1341.35 204.976 1341.44 204.616 1341.44 204.185C1341.44 203.751 1341.35 203.384 1341.18 203.086C1341.01 202.788 1340.75 202.562 1340.39 202.408C1340.04 202.251 1339.6 202.172 1339.07 202.172H1337.2V213H1334.44ZM1341.51 207.043L1344.76 213H1341.7L1338.52 207.043H1341.51ZM1346.25 213V199.909H1355.07V202.191H1349.02V205.31H1354.62V207.592H1349.02V210.718H1355.09V213H1346.25ZM1357.27 213V199.909H1362.43C1363.43 199.909 1364.27 200.099 1364.97 200.478C1365.67 200.853 1366.2 201.375 1366.57 202.044C1366.94 202.709 1367.13 203.476 1367.13 204.345C1367.13 205.214 1366.94 205.982 1366.56 206.646C1366.19 207.311 1365.65 207.829 1364.93 208.2C1364.23 208.57 1363.37 208.756 1362.36 208.756H1359.07V206.538H1361.92C1362.45 206.538 1362.89 206.446 1363.23 206.263C1363.58 206.075 1363.84 205.817 1364.01 205.489C1364.19 205.157 1364.28 204.776 1364.28 204.345C1364.28 203.911 1364.19 203.531 1364.01 203.207C1363.84 202.879 1363.58 202.626 1363.23 202.447C1362.88 202.263 1362.44 202.172 1361.9 202.172H1360.04V213H1357.27ZM1380.95 206.455C1380.95 207.882 1380.68 209.097 1380.14 210.098C1379.61 211.099 1378.87 211.864 1377.94 212.393C1377.02 212.917 1375.98 213.179 1374.82 213.179C1373.66 213.179 1372.62 212.915 1371.69 212.386C1370.77 211.858 1370.04 211.093 1369.5 210.092C1368.96 209.09 1368.69 207.878 1368.69 206.455C1368.69 205.027 1368.96 203.812 1369.5 202.811C1370.04 201.81 1370.77 201.047 1371.69 200.523C1372.62 199.994 1373.66 199.73 1374.82 199.73C1375.98 199.73 1377.02 199.994 1377.94 200.523C1378.87 201.047 1379.61 201.81 1380.14 202.811C1380.68 203.812 1380.95 205.027 1380.95 206.455ZM1378.15 206.455C1378.15 205.53 1378.01 204.75 1377.73 204.115C1377.46 203.48 1377.07 202.999 1376.58 202.67C1376.08 202.342 1375.49 202.178 1374.82 202.178C1374.15 202.178 1373.57 202.342 1373.07 202.67C1372.57 202.999 1372.19 203.48 1371.91 204.115C1371.64 204.75 1371.5 205.53 1371.5 206.455C1371.5 207.379 1371.64 208.159 1371.91 208.794C1372.19 209.429 1372.57 209.911 1373.07 210.239C1373.57 210.567 1374.15 210.731 1374.82 210.731C1375.49 210.731 1376.08 210.567 1376.58 210.239C1377.07 209.911 1377.46 209.429 1377.73 208.794C1378.01 208.159 1378.15 207.379 1378.15 206.455ZM1383 213V199.909H1388.17C1389.16 199.909 1390 200.086 1390.7 200.44C1391.4 200.789 1391.94 201.286 1392.3 201.929C1392.68 202.568 1392.86 203.32 1392.86 204.185C1392.86 205.055 1392.67 205.803 1392.3 206.429C1391.92 207.051 1391.38 207.528 1390.67 207.861C1389.96 208.193 1389.1 208.359 1388.1 208.359H1384.64V206.135H1387.65C1388.18 206.135 1388.62 206.062 1388.97 205.918C1389.32 205.773 1389.58 205.555 1389.75 205.266C1389.92 204.976 1390.01 204.616 1390.01 204.185C1390.01 203.751 1389.92 203.384 1389.75 203.086C1389.58 202.788 1389.32 202.562 1388.96 202.408C1388.61 202.251 1388.17 202.172 1387.64 202.172H1385.77V213H1383ZM1390.07 207.043L1393.33 213H1390.27L1387.09 207.043H1390.07ZM1394.32 202.191V199.909H1405.07V202.191H1401.06V213H1398.33V202.191H1394.32Z" fill="white"/>
    <path d="M1580.86 170.674C1580.81 170.158 1580.59 169.758 1580.21 169.472C1579.82 169.187 1579.29 169.044 1578.63 169.044C1578.18 169.044 1577.79 169.108 1577.48 169.236C1577.17 169.359 1576.93 169.532 1576.77 169.754C1576.61 169.975 1576.52 170.227 1576.52 170.508C1576.52 170.742 1576.56 170.947 1576.67 171.121C1576.78 171.296 1576.93 171.447 1577.12 171.575C1577.32 171.699 1577.54 171.808 1577.79 171.901C1578.04 171.991 1578.31 172.067 1578.6 172.131L1579.77 172.413C1580.34 172.54 1580.87 172.711 1581.34 172.924C1581.82 173.137 1582.23 173.399 1582.58 173.71C1582.93 174.021 1583.2 174.388 1583.4 174.81C1583.59 175.232 1583.69 175.715 1583.7 176.261C1583.69 177.062 1583.49 177.756 1583.08 178.344C1582.68 178.928 1582.1 179.382 1581.34 179.706C1580.59 180.026 1579.68 180.185 1578.61 180.185C1577.56 180.185 1576.64 180.023 1575.85 179.7C1575.07 179.376 1574.46 178.896 1574.02 178.261C1573.59 177.622 1573.36 176.832 1573.34 175.89H1576.02C1576.05 176.329 1576.17 176.695 1576.4 176.989C1576.62 177.279 1576.92 177.499 1577.3 177.648C1577.68 177.793 1578.11 177.865 1578.58 177.865C1579.05 177.865 1579.46 177.797 1579.8 177.661C1580.15 177.524 1580.42 177.335 1580.62 177.092C1580.81 176.849 1580.9 176.57 1580.9 176.254C1580.9 175.96 1580.82 175.713 1580.64 175.513C1580.47 175.312 1580.22 175.142 1579.89 175.001C1579.56 174.861 1579.16 174.733 1578.68 174.618L1577.25 174.26C1576.15 173.991 1575.28 173.572 1574.64 173.001C1574 172.43 1573.68 171.661 1573.69 170.693C1573.68 169.901 1573.89 169.208 1574.32 168.616C1574.75 168.023 1575.34 167.561 1576.09 167.229C1576.84 166.896 1577.69 166.73 1578.65 166.73C1579.62 166.73 1580.47 166.896 1581.19 167.229C1581.92 167.561 1582.49 168.023 1582.89 168.616C1583.3 169.208 1583.5 169.894 1583.52 170.674H1580.86ZM1585.06 169.191V166.909H1595.81V169.191H1591.8V180H1589.07V169.191H1585.06ZM1597.58 180V166.909H1602.75C1603.73 166.909 1604.58 167.086 1605.28 167.44C1605.98 167.789 1606.52 168.286 1606.88 168.929C1607.25 169.568 1607.44 170.32 1607.44 171.185C1607.44 172.055 1607.25 172.803 1606.88 173.429C1606.5 174.051 1605.96 174.528 1605.25 174.861C1604.54 175.193 1603.68 175.359 1602.68 175.359H1599.22V173.135H1602.23C1602.76 173.135 1603.2 173.062 1603.54 172.918C1603.89 172.773 1604.15 172.555 1604.32 172.266C1604.5 171.976 1604.59 171.616 1604.59 171.185C1604.59 170.751 1604.5 170.384 1604.32 170.086C1604.15 169.788 1603.89 169.562 1603.54 169.408C1603.19 169.251 1602.75 169.172 1602.22 169.172H1600.35V180H1597.58ZM1604.65 174.043L1607.9 180H1604.85L1601.67 174.043H1604.65ZM1611.65 180H1608.68L1613.2 166.909H1616.77L1621.28 180H1618.32L1615.04 169.901H1614.94L1611.65 180ZM1611.46 174.854H1618.47V177.015H1611.46V174.854ZM1620.76 169.191V166.909H1631.51V169.191H1627.5V180H1624.77V169.191H1620.76ZM1633.28 180V166.909H1642.1V169.191H1636.05V172.31H1641.65V174.592H1636.05V177.718H1642.13V180H1633.28ZM1652.98 171.141C1652.89 170.83 1652.77 170.555 1652.61 170.316C1652.45 170.073 1652.25 169.869 1652.01 169.702C1651.78 169.532 1651.52 169.402 1651.22 169.312C1650.93 169.223 1650.6 169.178 1650.24 169.178C1649.57 169.178 1648.98 169.344 1648.48 169.677C1647.97 170.009 1647.58 170.493 1647.3 171.128C1647.02 171.759 1646.88 172.53 1646.88 173.442C1646.88 174.354 1647.02 175.129 1647.3 175.768C1647.57 176.408 1647.96 176.896 1648.47 177.232C1648.98 177.565 1649.58 177.731 1650.27 177.731C1650.89 177.731 1651.43 177.62 1651.87 177.398C1652.32 177.173 1652.66 176.855 1652.89 176.446C1653.13 176.037 1653.25 175.553 1653.25 174.995L1653.82 175.078H1650.44V172.994H1655.92V174.643C1655.92 175.794 1655.68 176.783 1655.19 177.609C1654.7 178.432 1654.03 179.067 1653.18 179.514C1652.33 179.957 1651.35 180.179 1650.25 180.179C1649.03 180.179 1647.95 179.908 1647.02 179.367C1646.09 178.822 1645.37 178.048 1644.85 177.047C1644.33 176.041 1644.07 174.848 1644.07 173.467C1644.07 172.406 1644.23 171.46 1644.53 170.629C1644.84 169.794 1645.28 169.087 1645.84 168.507C1646.4 167.928 1647.05 167.487 1647.79 167.184C1648.53 166.881 1649.33 166.73 1650.2 166.73C1650.94 166.73 1651.63 166.839 1652.27 167.056C1652.91 167.269 1653.47 167.572 1653.97 167.964C1654.47 168.356 1654.87 168.822 1655.19 169.364C1655.5 169.901 1655.71 170.493 1655.8 171.141H1652.98ZM1656.7 166.909H1659.8L1662.79 172.547H1662.92L1665.9 166.909H1669L1664.23 175.372V180H1661.48V175.372L1656.7 166.909ZM1544 191.909V205H1541.23V191.909H1544ZM1546.28 191.909H1549.69L1553.3 200.705H1553.45L1557.06 191.909H1560.47V205H1557.79V196.479H1557.68L1554.29 204.936H1552.46L1549.07 196.447H1548.96V205H1546.28V191.909ZM1562.75 205V191.909H1567.91C1568.91 191.909 1569.75 192.099 1570.45 192.478C1571.15 192.853 1571.68 193.375 1572.05 194.044C1572.42 194.709 1572.61 195.476 1572.61 196.345C1572.61 197.214 1572.42 197.982 1572.04 198.646C1571.67 199.311 1571.13 199.829 1570.41 200.2C1569.71 200.57 1568.85 200.756 1567.84 200.756H1564.55V198.538H1567.4C1567.93 198.538 1568.37 198.446 1568.71 198.263C1569.06 198.075 1569.32 197.817 1569.49 197.489C1569.67 197.157 1569.76 196.776 1569.76 196.345C1569.76 195.911 1569.67 195.531 1569.49 195.207C1569.32 194.879 1569.06 194.626 1568.71 194.447C1568.36 194.263 1567.92 194.172 1567.38 194.172H1565.52V205H1562.75ZM1574.4 205V191.909H1577.17V202.718H1582.78V205H1574.4ZM1584.62 205V191.909H1593.44V194.191H1587.39V197.31H1592.98V199.592H1587.39V202.718H1593.46V205H1584.62ZM1595.64 191.909H1599.05L1602.66 200.705H1602.81L1606.42 191.909H1609.83V205H1607.14V196.479H1607.04L1603.65 204.936H1601.82L1598.43 196.447H1598.32V205H1595.64V191.909ZM1612.11 205V191.909H1620.93V194.191H1614.88V197.31H1620.48V199.592H1614.88V202.718H1620.96V205H1612.11ZM1634.08 191.909V205H1631.69L1625.99 196.761H1625.9V205H1623.13V191.909H1625.56L1631.21 200.142H1631.33V191.909H1634.08ZM1635.87 194.191V191.909H1646.62V194.191H1642.61V205H1639.88V194.191H1635.87ZM1649.05 205H1646.08L1650.6 191.909H1654.17L1658.68 205H1655.71L1652.44 194.901H1652.33L1649.05 205ZM1648.86 199.854H1655.87V202.015H1648.86V199.854ZM1658.16 194.191V191.909H1668.91V194.191H1664.9V205H1662.17V194.191H1658.16ZM1673.45 191.909V205H1670.68V191.909H1673.45ZM1687.75 198.455C1687.75 199.882 1687.48 201.097 1686.94 202.098C1686.41 203.099 1685.67 203.864 1684.74 204.393C1683.82 204.917 1682.78 205.179 1681.62 205.179C1680.46 205.179 1679.42 204.915 1678.49 204.386C1677.57 203.858 1676.84 203.093 1676.3 202.092C1675.76 201.09 1675.49 199.878 1675.49 198.455C1675.49 197.027 1675.76 195.812 1676.3 194.811C1676.84 193.81 1677.57 193.047 1678.49 192.523C1679.42 191.994 1680.46 191.73 1681.62 191.73C1682.78 191.73 1683.82 191.994 1684.74 192.523C1685.67 193.047 1686.41 193.81 1686.94 194.811C1687.48 195.812 1687.75 197.027 1687.75 198.455ZM1684.95 198.455C1684.95 197.53 1684.81 196.75 1684.53 196.115C1684.26 195.48 1683.87 194.999 1683.38 194.67C1682.88 194.342 1682.29 194.178 1681.62 194.178C1680.96 194.178 1680.37 194.342 1679.87 194.67C1679.37 194.999 1678.99 195.48 1678.71 196.115C1678.44 196.75 1678.3 197.53 1678.3 198.455C1678.3 199.379 1678.44 200.159 1678.71 200.794C1678.99 201.429 1679.37 201.911 1679.87 202.239C1680.37 202.567 1680.96 202.731 1681.62 202.731C1682.29 202.731 1682.88 202.567 1683.38 202.239C1683.87 201.911 1684.26 201.429 1684.53 200.794C1684.81 200.159 1684.95 199.379 1684.95 198.455ZM1700.75 191.909V205H1698.36L1692.67 196.761H1692.57V205H1689.8V191.909H1692.23L1697.88 200.142H1698V191.909H1700.75Z" fill="white"/>
    <circle cx="683.424" cy="74.2968" r="50.7643" transform="rotate(0.833608 683.424 74.2968)" fill="#7474C1"/>
    <mask id="mask3_0_1" style="mask-type:alpha" maskUnits="userSpaceOnUse" x="655" y="47" width="56" height="56">
        <rect x="655.957" y="47.6899" width="54.9307" height="54.9307" fill="#D9D9D9"/>
    </mask>
    <g mask="url(#mask3_0_1)">
        <path d="M664.196 100.332V96.899H702.647V100.332H664.196ZM664.196 53.4122V49.979H702.647V53.4122H664.196ZM683.421 77.2155C685.329 77.2155 686.931 76.567 688.228 75.27C689.525 73.973 690.173 72.3709 690.173 70.4636C690.173 68.5563 689.525 66.9541 688.228 65.6571C686.931 64.3602 685.329 63.7117 683.421 63.7117C681.514 63.7117 679.912 64.3602 678.615 65.6571C677.318 66.9541 676.67 68.5563 676.67 70.4636C676.67 72.3709 677.318 73.973 678.615 75.27C679.912 76.567 681.514 77.2155 683.421 77.2155ZM663.509 93.4658C662.594 93.4658 661.793 93.1225 661.106 92.4359C660.419 91.7492 660.076 90.9481 660.076 90.0326V60.2785C660.076 59.2867 660.419 58.4666 661.106 57.8181C661.793 57.1696 662.594 56.8453 663.509 56.8453H703.334C704.249 56.8453 705.05 57.1887 705.737 57.8753C706.424 58.5619 706.767 59.363 706.767 60.2785V90.0326C706.767 90.9481 706.424 91.7492 705.737 92.4359C705.05 93.1225 704.249 93.4658 703.334 93.4658H663.509ZM668.544 90.0326C670.49 87.6294 672.798 85.827 675.468 84.6254C678.138 83.4238 680.78 82.823 683.393 82.823C686.006 82.823 688.676 83.4238 691.404 84.6254C694.131 85.827 696.429 87.6294 698.299 90.0326H703.334V60.2785H663.509V90.0326H668.544ZM673.923 90.0326H693.034C691.852 88.8882 690.469 87.9727 688.886 87.2861C687.303 86.5995 685.481 86.2562 683.421 86.2562C681.362 86.2562 679.559 86.5995 678.014 87.2861C676.469 87.9727 675.106 88.8882 673.923 90.0326ZM683.431 73.7823C682.509 73.7823 681.733 73.4581 681.104 72.8096C680.475 72.1611 680.16 71.3791 680.16 70.4636C680.16 69.5481 680.472 68.7661 681.095 68.1176C681.718 67.4691 682.491 67.1448 683.412 67.1448C684.334 67.1448 685.109 67.4691 685.739 68.1176C686.368 68.7661 686.683 69.5481 686.683 70.4636C686.683 71.3791 686.371 72.1611 685.748 72.8096C685.125 73.4581 684.352 73.7823 683.431 73.7823Z" fill="white"/>
    </g>
    <circle cx="1369.88" cy="73.5" r="72.4536" transform="rotate(0.833608 1369.88 73.5)" fill="#78BE20"/>
    <mask id="mask4_0_1" style="mask-type:alpha" maskUnits="userSpaceOnUse" x="1330" y="35" width="80" height="79">
        <rect x="1330.68" y="35.5249" width="78.4" height="78.4" fill="#D9D9D9"/>
    </mask>
    <g mask="url(#mask4_0_1)">
        <path d="M1342.44 110.659V105.759H1397.32V110.659H1342.44ZM1342.44 43.692V38.792H1397.32V43.692H1342.44ZM1369.88 77.6653C1372.6 77.6653 1374.89 76.7398 1376.74 74.8887C1378.59 73.0376 1379.52 70.7509 1379.52 68.0287C1379.52 65.3064 1378.59 63.0198 1376.74 61.1687C1374.89 59.3176 1372.6 58.392 1369.88 58.392C1367.16 58.392 1364.87 59.3176 1363.02 61.1687C1361.17 63.0198 1360.24 65.3064 1360.24 68.0287C1360.24 70.7509 1361.17 73.0376 1363.02 74.8887C1364.87 76.7398 1367.16 77.6653 1369.88 77.6653ZM1341.46 100.859C1340.15 100.859 1339.01 100.369 1338.03 99.3887C1337.05 98.4087 1336.56 97.2653 1336.56 95.9587V53.492C1336.56 52.0764 1337.05 50.9059 1338.03 49.9803C1339.01 49.0548 1340.15 48.592 1341.46 48.592H1398.3C1399.61 48.592 1400.75 49.082 1401.73 50.062C1402.71 51.042 1403.2 52.1853 1403.2 53.492V95.9587C1403.2 97.2653 1402.71 98.4087 1401.73 99.3887C1400.75 100.369 1399.61 100.859 1398.3 100.859H1341.46ZM1348.65 95.9587C1351.42 92.5287 1354.72 89.9562 1358.53 88.2412C1362.34 86.5262 1366.11 85.6687 1369.84 85.6687C1373.57 85.6687 1377.38 86.5262 1381.27 88.2412C1385.16 89.9562 1388.44 92.5287 1391.11 95.9587H1398.3V53.492H1341.46V95.9587H1348.65ZM1356.32 95.9587H1383.6C1381.91 94.3253 1379.94 93.0187 1377.68 92.0387C1375.42 91.0587 1372.82 90.5687 1369.88 90.5687C1366.94 90.5687 1364.37 91.0587 1362.16 92.0387C1359.96 93.0187 1358.01 94.3253 1356.32 95.9587ZM1369.89 72.7653C1368.58 72.7653 1367.47 72.3026 1366.57 71.377C1365.67 70.4514 1365.22 69.3353 1365.22 68.0287C1365.22 66.722 1365.67 65.6059 1366.56 64.6803C1367.45 63.7548 1368.55 63.292 1369.87 63.292C1371.18 63.292 1372.29 63.7548 1373.19 64.6803C1374.08 65.6059 1374.53 66.722 1374.53 68.0287C1374.53 69.3353 1374.09 70.4514 1373.2 71.377C1372.31 72.3026 1371.21 72.7653 1369.89 72.7653Z" fill="white"/>
    </g>
    <circle cx="1618.29" cy="74.4235" r="40.0771" transform="rotate(0.833608 1618.29 74.4235)" fill="#7474C1"/>
    <mask id="mask5_0_1" style="mask-type:alpha" maskUnits="userSpaceOnUse" x="1598" y="54" width="40" height="40">
        <rect x="1598.77" y="54.9087" width="39.0297" height="39.0297" fill="#D9D9D9"/>
    </mask>
    <g mask="url(#mask5_0_1)">
        <path d="M1623.33 89.0604V83.9784H1617.07V67.3094H1613.29V72.5947H1602.03V59.7881H1613.29V64.8701H1623.33V59.7881H1634.55V72.5947H1623.33V67.3094H1619.51V81.539H1623.33V76.2537H1634.55V89.0604H1623.33ZM1625.77 70.1554H1632.11V62.2274H1625.77V70.1554ZM1625.77 86.621H1632.11V78.6931H1625.77V86.621ZM1604.47 70.1554H1610.85V62.2274H1604.47V70.1554Z" fill="white"/>
    </g>
</svg>
