<svg width="241" height="305" viewBox="0 0 241 305" fill="none" xmlns="http://www.w3.org/2000/svg">
    <path d="M39.2418 124.292L36.4423 124.251C36.3965 123.888 36.2968 123.565 36.1432 123.281C35.9897 122.993 35.7908 122.748 35.5466 122.544C35.3024 122.34 35.0192 122.182 34.6969 122.071C34.3789 121.96 34.0324 121.902 33.6574 121.896C32.9799 121.886 32.3873 122.046 31.8796 122.375C31.372 122.7 30.9751 123.18 30.6888 123.816C30.4026 124.446 30.2529 125.216 30.2397 126.123C30.2261 127.056 30.3532 127.842 30.6209 128.481C30.8929 129.12 31.2779 129.605 31.776 129.936C32.2741 130.268 32.8534 130.438 33.5138 130.448C33.8845 130.453 34.2282 130.409 34.5449 130.316C34.8659 130.222 35.1514 130.084 35.4012 129.9C35.6512 129.712 35.8591 129.482 36.0249 129.212C36.1951 128.942 36.3147 128.632 36.3837 128.284L39.1829 128.337C39.1017 128.937 38.9122 129.514 38.6143 130.068C38.3208 130.618 37.9279 131.108 37.4358 131.54C36.948 131.968 36.3678 132.305 35.6951 132.551C35.0267 132.792 34.2728 132.907 33.4334 132.895C32.266 132.878 31.2259 132.598 30.3132 132.057C29.4048 131.515 28.6916 130.74 28.1735 129.731C27.6597 128.722 27.4132 127.505 27.4339 126.082C27.4547 124.655 27.7408 123.444 28.2922 122.451C28.8437 121.457 29.5834 120.705 30.5114 120.195C31.4394 119.68 32.4787 119.431 33.6291 119.447C34.3875 119.458 35.089 119.575 35.7336 119.798C36.3824 120.02 36.9553 120.34 37.4521 120.756C37.949 121.168 38.3508 121.67 38.6576 122.263C38.9686 122.856 39.1633 123.532 39.2418 124.292ZM43.8481 133.053C43.2217 133.044 42.6651 132.927 42.1783 132.702C41.6915 132.474 41.3085 132.142 41.0293 131.708C40.7544 131.269 40.6217 130.726 40.6311 130.078C40.639 129.533 40.7458 129.076 40.9515 128.708C41.1571 128.34 41.4342 128.046 41.7826 127.825C42.131 127.605 42.5255 127.44 42.966 127.331C43.4108 127.223 43.8765 127.148 44.3629 127.109C44.9347 127.057 45.3957 127.009 45.7458 126.962C46.096 126.912 46.3507 126.835 46.5099 126.731C46.6692 126.626 46.7503 126.47 46.7533 126.261L46.7539 126.223C46.7598 125.818 46.6365 125.503 46.3841 125.278C46.1359 125.052 45.7796 124.936 45.3151 124.93C44.8251 124.923 44.4337 125.026 44.1408 125.239C43.8479 125.447 43.6523 125.713 43.5538 126.036L41.0386 125.794C41.1751 125.2 41.434 124.688 41.8153 124.259C42.1966 123.825 42.6852 123.496 43.2808 123.27C43.8808 123.04 44.5728 122.931 45.3568 122.942C45.9022 122.95 46.4233 123.022 46.9199 123.157C47.4209 123.292 47.8633 123.496 48.2471 123.771C48.6352 124.045 48.9391 124.394 49.1588 124.819C49.3785 125.24 49.4842 125.743 49.4757 126.326L49.3793 132.948L46.7972 132.91L46.817 131.549L46.7403 131.548C46.5782 131.852 46.3633 132.12 46.0958 132.35C45.8282 132.576 45.5082 132.753 45.1355 132.88C44.763 133.002 44.3338 133.06 43.8481 133.053ZM44.6552 131.185C45.0557 131.191 45.4105 131.117 45.7196 130.964C46.0287 130.806 46.2726 130.593 46.4513 130.323C46.63 130.052 46.7218 129.745 46.7268 129.4L46.742 128.358C46.656 128.412 46.538 128.461 46.3882 128.506C46.2427 128.547 46.0781 128.585 45.8943 128.62C45.7106 128.652 45.5269 128.681 45.3433 128.708C45.1597 128.731 44.9932 128.752 44.8437 128.771C44.5235 128.814 44.2433 128.884 44.0032 128.983C43.7631 129.082 43.5757 129.217 43.4411 129.39C43.3065 129.559 43.2374 129.771 43.2337 130.026C43.2283 130.397 43.3584 130.682 43.624 130.882C43.8939 131.078 44.2376 131.179 44.6552 131.185ZM59.7619 126.08L57.2671 126.197C57.2276 125.983 57.1387 125.79 57.0006 125.618C56.8625 125.441 56.6792 125.3 56.4506 125.194C56.2263 125.084 55.9565 125.027 55.6412 125.022C55.2194 125.016 54.8623 125.101 54.57 125.275C54.2777 125.446 54.1294 125.678 54.1251 125.972C54.1217 126.206 54.2126 126.406 54.3977 126.571C54.5828 126.735 54.9026 126.87 55.3571 126.974L57.1287 127.358C58.0803 127.568 58.7873 127.894 59.2497 128.335C59.712 128.777 59.9381 129.351 59.9278 130.058C59.9184 130.702 59.7206 131.264 59.3343 131.744C58.9523 132.224 58.4312 132.596 57.7711 132.859C57.1152 133.118 56.3612 133.241 55.509 133.229C54.2095 133.21 53.178 132.924 52.4147 132.372C51.6556 131.815 51.2169 131.067 51.0984 130.128L53.7785 130.026C53.8537 130.424 54.0453 130.729 54.3533 130.943C54.6613 131.152 55.0582 131.26 55.544 131.267C56.0212 131.274 56.406 131.188 56.6984 131.009C56.9952 130.825 57.1478 130.587 57.1563 130.293C57.1557 130.046 57.0542 129.842 56.852 129.681C56.6498 129.516 56.3363 129.388 55.9115 129.297L54.2163 128.933C53.2604 128.728 52.5515 128.385 52.0897 127.905C51.6321 127.425 51.4087 126.819 51.4193 126.086C51.4285 125.456 51.6069 124.915 51.9544 124.464C52.3061 124.013 52.7949 123.668 53.4206 123.43C54.0505 123.192 54.7852 123.079 55.6246 123.092C56.8645 123.11 57.8364 123.386 58.5404 123.92C59.2486 124.455 59.6558 125.175 59.7619 126.08ZM64.4033 127.49L64.3207 133.165L61.598 133.126L61.7885 120.036L64.4345 120.075L64.3617 125.079L64.4767 125.081C64.7067 124.504 65.0712 124.056 65.5703 123.735C66.0694 123.41 66.6918 123.253 67.4374 123.263C68.1192 123.273 68.7114 123.431 69.2141 123.737C69.7211 124.038 70.1112 124.468 70.3844 125.026C70.6619 125.58 70.7929 126.24 70.7775 127.007L70.6865 133.258L67.9638 133.218L68.0477 127.453C68.0608 126.848 67.9142 126.375 67.6081 126.034C67.3062 125.693 66.8783 125.518 66.3244 125.51C65.9537 125.505 65.6244 125.579 65.3367 125.732C65.0531 125.886 64.8282 126.113 64.6619 126.413C64.4999 126.709 64.4137 127.068 64.4033 127.49Z" fill="white"/>
    <circle cx="50.652" cy="50.7221" r="50" transform="rotate(0.833608 50.652 50.7221)" fill="#7474C1"/>
    <mask id="mask0_0_1" style="mask-type:alpha" maskUnits="userSpaceOnUse" x="23" y="23" width="56" height="56">
        <rect x="24.3848" y="23" width="54.2693" height="54.2693" transform="rotate(0.833608 24.3848 23)" fill="#D9D9D9"/>
    </mask>
    <g mask="url(#mask0_0_1)">
        <path d="M54.4634 53.9677C52.5793 53.9403 50.9873 53.2575 49.6876 51.9194C48.3879 50.5813 47.7518 48.9702 47.7792 47.0861C47.8066 45.2019 48.4893 43.61 49.8274 42.3103C51.1655 41.0105 52.7767 40.3744 54.6608 40.4018C56.545 40.4292 58.1369 41.112 59.4366 42.4501C60.7363 43.7882 61.3725 45.3993 61.3451 47.2834C61.3176 49.1676 60.6349 50.7595 59.2968 52.0592C57.9587 53.359 56.3476 53.9951 54.4634 53.9677ZM36.2604 61.618C35.3278 61.6044 34.5342 61.2607 33.8797 60.5869C33.2252 59.913 32.9047 59.1098 32.9183 58.1771L33.2473 35.5673C33.2608 34.6347 33.6045 33.8411 34.2784 33.1866C34.9522 32.5321 35.7554 32.2116 36.6881 32.2252L72.8638 32.7516C73.7965 32.7651 74.59 33.1088 75.2445 33.7826C75.899 34.4565 76.2195 35.2597 76.2059 36.1924L75.877 58.8022C75.8634 59.7348 75.5197 60.5284 74.8459 61.1829C74.172 61.8374 73.3688 62.1579 72.4361 62.1443L36.2604 61.618ZM41.9622 58.3087L66.833 58.6706C66.8561 57.0879 67.4219 55.7581 68.5306 54.6812C69.6393 53.6043 70.985 53.0774 72.5677 53.1004L72.7322 41.7955C71.1495 41.7725 69.8197 41.2066 68.7428 40.0979C67.6659 38.9892 67.139 37.6435 67.162 36.0608L42.2912 35.6989C42.2682 37.2816 41.7023 38.6114 40.5936 39.6883C39.4849 40.7652 38.1392 41.2921 36.5565 41.2691L36.392 52.574C37.9747 52.5971 39.3045 53.1629 40.3814 54.2716C41.4583 55.3803 41.9853 56.726 41.9622 58.3087ZM68.946 68.8779L29.3788 68.3022C28.4461 68.2886 27.6525 67.9449 26.998 67.2711C26.3435 66.5973 26.0231 65.794 26.0367 64.8614L26.415 38.8601L29.8065 38.9094L29.4281 64.9107L68.9953 65.4864L68.946 68.8779Z" fill="white"/>
    </g>
    <path d="M163.384 132.555L163.574 119.465L168.815 119.542C169.778 119.556 170.579 119.71 171.218 120.005C171.858 120.3 172.336 120.703 172.652 121.215C172.969 121.722 173.122 122.304 173.112 122.96C173.105 123.472 172.996 123.92 172.786 124.305C172.576 124.685 172.29 124.996 171.929 125.238C171.571 125.476 171.164 125.643 170.707 125.738L170.705 125.866C171.203 125.895 171.668 126.042 172.098 126.308C172.534 126.575 172.884 126.944 173.15 127.417C173.416 127.885 173.544 128.441 173.535 129.084C173.525 129.779 173.343 130.396 172.99 130.937C172.641 131.473 172.13 131.894 171.457 132.199C170.783 132.505 169.956 132.651 168.976 132.636L163.384 132.555ZM166.184 130.333L168.44 130.366C169.212 130.377 169.776 130.238 170.134 129.949C170.492 129.656 170.675 129.262 170.682 128.768C170.687 128.406 170.604 128.085 170.434 127.806C170.263 127.526 170.017 127.305 169.695 127.143C169.378 126.98 168.998 126.896 168.555 126.89L166.235 126.856L166.184 130.333ZM166.262 124.983L168.314 125.013C168.693 125.019 169.03 124.957 169.326 124.83C169.627 124.698 169.864 124.509 170.038 124.265C170.216 124.02 170.308 123.725 170.313 123.38C170.32 122.907 170.157 122.523 169.824 122.229C169.496 121.934 169.025 121.782 168.412 121.773L166.309 121.743L166.262 124.983ZM179.665 132.984C178.672 132.969 177.816 132.746 177.098 132.313C176.384 131.877 175.837 131.277 175.456 130.512C175.075 129.744 174.892 128.857 174.906 127.851C174.921 126.837 175.13 125.954 175.533 125.201C175.936 124.444 176.501 123.86 177.227 123.449C177.958 123.033 178.819 122.833 179.812 122.847C180.805 122.861 181.658 123.087 182.372 123.523C183.09 123.956 183.64 124.556 184.021 125.325C184.402 126.089 184.585 126.978 184.57 127.992C184.555 128.998 184.347 129.879 183.944 130.636C183.54 131.389 182.974 131.973 182.243 132.388C181.517 132.8 180.657 132.998 179.665 132.984ZM179.708 130.875C180.16 130.881 180.539 130.759 180.845 130.508C181.151 130.252 181.384 129.902 181.544 129.457C181.708 129.012 181.795 128.504 181.803 127.933C181.811 127.362 181.74 126.851 181.589 126.402C181.442 125.952 181.219 125.595 180.92 125.331C180.621 125.066 180.246 124.931 179.795 124.924C179.339 124.918 178.953 125.042 178.639 125.297C178.328 125.553 178.091 125.903 177.926 126.348C177.767 126.793 177.682 127.302 177.674 127.873C177.666 128.443 177.735 128.954 177.882 129.403C178.033 129.853 178.26 130.21 178.563 130.474C178.871 130.735 179.252 130.868 179.708 130.875ZM189.075 127.252L188.992 132.928L186.27 132.888L186.413 123.071L189.007 123.109L188.982 124.841L189.097 124.842C189.323 124.275 189.694 123.828 190.21 123.503C190.726 123.174 191.349 123.015 192.077 123.025C192.759 123.035 193.351 123.193 193.854 123.499C194.357 123.804 194.744 124.236 195.018 124.794C195.291 125.348 195.422 126.006 195.411 126.769L195.32 133.02L192.597 132.98L192.681 127.215C192.694 126.614 192.547 126.143 192.241 125.802C191.935 125.457 191.509 125.28 190.964 125.272C190.598 125.267 190.273 125.341 189.989 125.495C189.71 125.648 189.489 125.875 189.327 126.175C189.169 126.471 189.085 126.83 189.075 127.252ZM201.081 133.263C200.335 133.252 199.663 133.051 199.063 132.659C198.468 132.262 197.999 131.686 197.656 130.931C197.318 130.172 197.157 129.245 197.173 128.15C197.189 127.025 197.384 126.092 197.757 125.352C198.13 124.607 198.619 124.054 199.226 123.692C199.836 123.326 200.501 123.148 201.222 123.158C201.771 123.166 202.228 123.267 202.592 123.46C202.96 123.648 203.255 123.883 203.476 124.163C203.702 124.439 203.873 124.71 203.989 124.976L204.072 124.977L204.143 120.056L206.86 120.095L206.669 133.185L203.985 133.146L204.008 131.573L203.893 131.572C203.761 131.843 203.576 132.111 203.338 132.376C203.104 132.636 202.8 132.852 202.427 133.021C202.058 133.19 201.609 133.271 201.081 133.263ZM201.975 131.109C202.414 131.116 202.787 131.002 203.093 130.767C203.403 130.529 203.642 130.194 203.81 129.761C203.983 129.329 204.073 128.821 204.082 128.238C204.09 127.654 204.017 127.146 203.861 126.713C203.706 126.28 203.476 125.944 203.173 125.706C202.869 125.467 202.498 125.344 202.059 125.338C201.612 125.331 201.233 125.447 200.923 125.686C200.612 125.924 200.375 126.257 200.211 126.685C200.047 127.113 199.961 127.611 199.953 128.177C199.945 128.748 200.016 129.255 200.168 129.696C200.323 130.133 200.55 130.477 200.849 130.728C201.153 130.976 201.528 131.103 201.975 131.109ZM217.178 126.319L214.683 126.436C214.644 126.222 214.555 126.029 214.417 125.856C214.279 125.68 214.095 125.539 213.867 125.433C213.643 125.323 213.373 125.266 213.057 125.261C212.636 125.255 212.279 125.339 211.986 125.514C211.694 125.685 211.546 125.917 211.541 126.211C211.538 126.445 211.629 126.645 211.814 126.809C211.999 126.974 212.319 127.109 212.773 127.213L214.545 127.597C215.497 127.807 216.204 128.133 216.666 128.574C217.128 129.016 217.354 129.59 217.344 130.297C217.335 130.941 217.137 131.502 216.751 131.983C216.369 132.463 215.847 132.835 215.187 133.098C214.531 133.357 213.777 133.48 212.925 133.468C211.626 133.449 210.594 133.163 209.831 132.611C209.072 132.054 208.633 131.306 208.515 130.367L211.195 130.265C211.27 130.663 211.461 130.968 211.769 131.181C212.078 131.39 212.474 131.499 212.96 131.506C213.437 131.513 213.822 131.426 214.115 131.247C214.411 131.064 214.564 130.826 214.573 130.532C214.572 130.285 214.47 130.081 214.268 129.92C214.066 129.755 213.753 129.627 213.328 129.536L211.633 129.172C210.677 128.966 209.968 128.624 209.506 128.144C209.048 127.664 208.825 127.058 208.836 126.325C208.845 125.694 209.023 125.154 209.371 124.703C209.722 124.252 210.211 123.907 210.837 123.669C211.467 123.431 212.201 123.318 213.041 123.33C214.281 123.348 215.253 123.625 215.957 124.159C216.665 124.694 217.072 125.413 217.178 126.319Z" fill="white"/>
    <circle cx="190.108" cy="50.7221" r="50" transform="rotate(0.833608 190.108 50.7221)" fill="#7474C1"/>
    <mask id="mask1_0_1" style="mask-type:alpha" maskUnits="userSpaceOnUse" x="163" y="23" width="56" height="56">
        <rect x="163.851" y="23" width="54.2693" height="54.2693" transform="rotate(0.833608 163.851 23)" fill="#D9D9D9"/>
    </mask>
    <g mask="url(#mask1_0_1)">
        <path d="M173.334 70.6282C172.43 70.6151 171.644 70.2644 170.975 69.5763C170.307 68.8881 169.979 68.0918 169.992 67.1874L170.486 33.2727C170.499 32.3683 170.85 31.5819 171.538 30.9135C172.226 30.245 173.022 29.9174 173.927 29.9306L207.841 30.424C208.746 30.4372 209.532 30.7879 210.201 31.476C210.869 32.1642 211.197 32.9605 211.183 33.8649L210.69 67.7796C210.677 68.684 210.326 69.4704 209.638 70.1388C208.95 70.8072 208.154 71.1349 207.249 71.1217L173.334 70.6282ZM173.877 33.322L173.384 67.2368L207.299 67.7302L207.792 33.8155L201.913 33.73L201.684 49.5003L196.193 46.0848L190.605 49.3391L190.835 33.5688L173.877 33.322Z" fill="white"/>
    </g>
    <path d="M26.8432 291.293C26.7996 290.777 26.586 290.373 26.2024 290.082C25.8188 289.791 25.2947 289.64 24.6299 289.631C24.1783 289.624 23.796 289.682 23.4831 289.806C23.1703 289.925 22.9291 290.094 22.7597 290.313C22.5946 290.532 22.51 290.782 22.5059 291.064C22.494 291.298 22.54 291.503 22.644 291.679C22.7522 291.856 22.9013 292.009 23.0912 292.14C23.2811 292.266 23.5011 292.378 23.7511 292.475C24.0012 292.568 24.2685 292.649 24.5531 292.717L25.725 293.015C26.2941 293.152 26.8157 293.33 27.2898 293.55C27.764 293.77 28.1735 294.038 28.5183 294.354C28.8632 294.67 29.1284 295.04 29.314 295.465C29.5039 295.89 29.597 296.375 29.5933 296.92C29.5774 297.721 29.3628 298.413 28.9494 298.995C28.5404 299.573 27.9543 300.018 27.1912 300.331C26.4323 300.639 25.5203 300.786 24.4551 300.771C23.3984 300.755 22.4804 300.58 21.7011 300.245C20.926 299.909 20.3237 299.421 19.8941 298.78C19.4688 298.135 19.2523 297.341 19.2447 296.399L21.9227 296.438C21.9461 296.877 22.0665 297.245 22.2838 297.543C22.5054 297.836 22.8026 298.059 23.1754 298.214C23.5525 298.364 23.9797 298.443 24.4569 298.45C24.9256 298.457 25.3335 298.395 25.6806 298.263C26.032 298.132 26.3053 297.946 26.5006 297.706C26.6959 297.466 26.7958 297.188 26.8004 296.873C26.8047 296.579 26.7209 296.331 26.5491 296.128C26.3816 295.925 26.1327 295.751 25.8024 295.606C25.4763 295.46 25.0755 295.327 24.6 295.205L23.1799 294.826C22.0802 294.541 21.215 294.109 20.5842 293.529C19.9533 292.949 19.6471 292.175 19.6654 291.208C19.6727 290.415 19.8937 289.726 20.3284 289.14C20.7674 288.554 21.3642 288.1 22.119 287.778C22.8737 287.457 23.7283 287.303 24.6828 287.317C25.6543 287.331 26.4998 287.51 27.2193 287.853C27.9431 288.196 28.5031 288.666 28.8992 289.264C29.2954 289.863 29.4942 290.552 29.4956 291.332L26.8432 291.293ZM34.1546 295.05L34.072 300.725L31.3493 300.685L31.5397 287.596L34.1857 287.634L34.1129 292.639L34.228 292.641C34.458 292.064 34.8225 291.616 35.3215 291.295C35.8206 290.97 36.443 290.813 37.1887 290.823C37.8704 290.833 38.4626 290.991 38.9654 291.297C39.4724 291.598 39.8625 292.028 40.1356 292.586C40.4131 293.14 40.5442 293.8 40.5287 294.567L40.4378 300.818L37.7151 300.778L37.799 295.013C37.812 294.408 37.6655 293.935 37.3593 293.594C37.0574 293.253 36.6295 293.078 36.0756 293.07C35.7049 293.065 35.3757 293.139 35.0879 293.292C34.8044 293.446 34.5795 293.673 34.4132 293.973C34.2512 294.269 34.165 294.628 34.1546 295.05ZM45.3772 301.075C44.7509 301.066 44.1943 300.949 43.7074 300.725C43.2206 300.496 42.8376 300.164 42.5584 299.73C42.2835 299.291 42.1508 298.748 42.1602 298.1C42.1682 297.555 42.2749 297.098 42.4806 296.731C42.6863 296.363 42.9633 296.068 43.3117 295.848C43.6601 295.627 44.0546 295.462 44.4952 295.353C44.94 295.245 45.4056 295.171 45.892 295.131C46.4639 295.079 46.9248 295.031 47.275 294.985C47.6252 294.934 47.8799 294.857 48.0391 294.753C48.1983 294.649 48.2794 294.492 48.2824 294.283L48.283 294.245C48.2889 293.84 48.1656 293.525 47.9132 293.3C47.665 293.075 47.3087 292.959 46.8443 292.952C46.3543 292.945 45.9628 293.048 45.6699 293.261C45.3771 293.47 45.1814 293.735 45.083 294.058L42.5677 293.817C42.7043 293.222 42.9632 292.71 43.3444 292.281C43.7258 291.848 44.2143 291.518 44.81 291.292C45.41 291.062 46.102 290.953 46.886 290.964C47.4314 290.972 47.9524 291.044 48.4491 291.179C48.95 291.314 49.3924 291.519 49.7762 291.793C50.1643 292.067 50.4682 292.417 50.6879 292.842C50.9077 293.263 51.0133 293.765 51.0048 294.349L50.9085 300.97L48.3263 300.932L48.3461 299.571L48.2695 299.57C48.1073 299.874 47.8925 300.142 47.6249 300.373C47.3574 300.599 47.0373 300.775 46.6647 300.902C46.2921 301.024 45.863 301.082 45.3772 301.075ZM46.1843 299.207C46.5848 299.213 46.9396 299.139 47.2487 298.986C47.5579 298.829 47.8018 298.615 47.9804 298.345C48.1591 298.075 48.2509 297.767 48.256 297.422L48.2711 296.38C48.1851 296.434 48.0672 296.484 47.9174 296.528C47.7719 296.569 47.6072 296.607 47.4235 296.643C47.2397 296.674 47.0561 296.703 46.8724 296.73C46.6888 296.753 46.5223 296.774 46.3729 296.794C46.0526 296.836 45.7724 296.906 45.5323 297.005C45.2922 297.104 45.1049 297.24 44.9702 297.412C44.8357 297.581 44.7665 297.793 44.7628 298.049C44.7574 298.419 44.8875 298.705 45.1531 298.905C45.423 299.1 45.7667 299.201 46.1843 299.207ZM53.0208 301.001L53.1636 291.184L55.8033 291.222L55.7784 292.935L55.8806 292.936C56.0684 292.33 56.3755 291.874 56.8019 291.569C57.2283 291.26 57.7163 291.109 58.266 291.117C58.4023 291.119 58.5492 291.13 58.7066 291.149C58.864 291.169 59.0022 291.194 59.121 291.226L59.0859 293.642C58.9586 293.601 58.7823 293.565 58.5569 293.532C58.3315 293.498 58.1251 293.481 57.9376 293.478C57.5371 293.472 57.1779 293.554 56.86 293.724C56.5465 293.89 56.2959 294.125 56.1082 294.429C55.9248 294.733 55.8302 295.086 55.8243 295.486L55.7435 301.04L53.0208 301.001ZM64.3994 301.358C63.3896 301.343 62.5234 301.126 61.8007 300.707C61.0823 300.283 60.5327 299.691 60.1516 298.931C59.7707 298.167 59.5877 297.267 59.6028 296.232C59.6175 295.222 59.8264 294.338 60.2295 293.581C60.6326 292.824 61.193 292.238 61.9108 291.822C62.6328 291.407 63.4753 291.206 64.4383 291.22C65.0859 291.229 65.6873 291.342 66.2425 291.559C66.8019 291.772 67.2875 292.088 67.699 292.507C68.1148 292.927 68.4354 293.452 68.6606 294.081C68.8859 294.707 68.9925 295.437 68.9803 296.272L68.9694 297.02L60.6798 296.899L60.7044 295.212L66.431 295.295C66.4367 294.903 66.3566 294.555 66.1905 294.25C66.0245 293.945 65.7915 293.705 65.4914 293.53C65.1957 293.351 64.8497 293.259 64.4534 293.253C64.0401 293.247 63.6723 293.337 63.3499 293.525C63.0319 293.707 62.7811 293.957 62.5975 294.274C62.4139 294.587 62.3172 294.937 62.3073 295.325L62.284 296.929C62.2769 297.415 62.3603 297.836 62.5341 298.192C62.7122 298.548 62.966 298.825 63.2955 299.022C63.6251 299.218 64.0178 299.32 64.4738 299.326C64.7763 299.331 65.0539 299.292 65.3065 299.211C65.5591 299.129 65.7762 299.004 65.9576 298.836C66.139 298.669 66.2784 298.462 66.3758 298.216L68.8915 298.419C68.7549 299.022 68.4852 299.547 68.0823 299.993C67.6838 300.434 67.1717 300.776 66.5459 301.019C65.9245 301.257 65.209 301.37 64.3994 301.358ZM78.9552 294.359L76.4604 294.476C76.4208 294.262 76.332 294.069 76.1939 293.897C76.0558 293.72 75.8725 293.579 75.6439 293.473C75.4196 293.363 75.1498 293.306 74.8345 293.302C74.4127 293.296 74.0556 293.38 73.7633 293.555C73.471 293.725 73.3227 293.957 73.3184 294.251C73.315 294.486 73.4059 294.685 73.591 294.85C73.7761 295.014 74.0959 295.149 74.5504 295.254L76.322 295.638C77.2736 295.847 77.9806 296.173 78.4429 296.614C78.9053 297.056 79.1314 297.63 79.1211 298.338C79.1117 298.981 78.9139 299.543 78.5276 300.023C78.1456 300.503 77.6245 300.875 76.9643 301.138C76.3085 301.397 75.5545 301.52 74.7023 301.508C73.4027 301.489 72.3713 301.203 71.6079 300.651C70.8489 300.095 70.4102 299.347 70.2917 298.407L72.9717 298.306C73.0469 298.703 73.2385 299.008 73.5465 299.222C73.8546 299.431 74.2515 299.539 74.7373 299.546C75.2145 299.553 75.5993 299.467 75.8917 299.288C76.1884 299.105 76.3411 298.866 76.3496 298.572C76.349 298.325 76.2475 298.121 76.0453 297.96C75.8431 297.796 75.5296 297.667 75.1047 297.576L73.4096 297.212C72.4537 297.007 71.7448 296.664 71.283 296.184C70.8254 295.705 70.602 295.098 70.6126 294.365C70.6218 293.735 70.8001 293.194 71.1477 292.743C71.4994 292.292 71.9881 291.948 72.6138 291.71C73.2438 291.472 73.9785 291.359 74.8179 291.371C76.0578 291.389 77.0297 291.665 77.7337 292.2C78.4419 292.734 78.8491 293.454 78.9552 294.359Z" fill="white"/>
    <circle cx="50.1071" cy="218.722" r="50" transform="rotate(0.833608 50.1071 218.722)" fill="#7474C1"/>
    <mask id="mask2_0_1" style="mask-type:alpha" maskUnits="userSpaceOnUse" x="23" y="191" width="56" height="56">
        <rect x="23.8457" y="191" width="54.2693" height="54.2693" transform="rotate(0.833608 23.8457 191)" fill="#D9D9D9"/>
    </mask>
    <g mask="url(#mask2_0_1)">
        <path d="M27.6836 237.981L27.733 234.59L72.9526 235.248L72.9033 238.639L27.6836 237.981ZM30.0433 231.231L30.2654 215.969L35.9178 216.052L35.6958 231.313L30.0433 231.231ZM41.6874 231.4L42.0739 204.834L47.7264 204.916L47.3398 231.483L41.6874 231.4ZM53.388 231.571L53.6758 211.787L59.3283 211.869L59.0404 231.653L53.388 231.571ZM65.0885 231.741L65.5738 198.392L71.2262 198.474L70.741 231.823L65.0885 231.741Z" fill="white"/>
    </g>
    <path d="M152.679 299.399L152.869 286.309L158.034 286.384C159.026 286.399 159.869 286.601 160.563 286.99C161.256 287.375 161.781 287.905 162.138 288.579C162.499 289.249 162.673 290.019 162.66 290.888C162.648 291.758 162.449 292.522 162.064 293.181C161.68 293.84 161.129 294.35 160.412 294.71C159.699 295.071 158.84 295.244 157.835 295.229L154.543 295.181L154.575 292.963L157.419 293.005C157.952 293.013 158.392 292.927 158.74 292.749C159.092 292.567 159.356 292.313 159.531 291.987C159.711 291.657 159.803 291.277 159.81 290.847C159.816 290.412 159.734 290.032 159.564 289.705C159.399 289.375 159.142 289.118 158.796 288.933C158.449 288.745 158.007 288.647 157.47 288.639L155.604 288.612L155.446 299.439L152.679 299.399ZM164.281 299.568L164.424 289.751L167.063 289.789L167.038 291.502L167.141 291.503C167.328 290.897 167.636 290.441 168.062 290.136C168.488 289.827 168.976 289.676 169.526 289.684C169.662 289.686 169.809 289.697 169.967 289.716C170.124 289.735 170.262 289.761 170.381 289.792L170.346 292.208C170.219 292.168 170.042 292.132 169.817 292.098C169.591 292.065 169.385 292.047 169.198 292.045C168.797 292.039 168.438 292.121 168.12 292.291C167.806 292.457 167.556 292.692 167.368 292.996C167.185 293.3 167.09 293.653 167.084 294.053L167.004 299.607L164.281 299.568ZM175.621 299.924C174.628 299.91 173.773 299.687 173.055 299.254C172.341 298.818 171.793 298.217 171.412 297.453C171.031 296.685 170.848 295.798 170.863 294.792C170.878 293.778 171.087 292.895 171.49 292.142C171.893 291.385 172.457 290.801 173.184 290.389C173.914 289.974 174.776 289.773 175.769 289.788C176.761 289.802 177.615 290.028 178.329 290.464C179.047 290.897 179.596 291.497 179.977 292.265C180.358 293.03 180.541 293.919 180.527 294.933C180.512 295.938 180.303 296.82 179.9 297.577C179.497 298.329 178.93 298.914 178.2 299.329C177.473 299.74 176.614 299.939 175.621 299.924ZM175.665 297.816C176.116 297.822 176.495 297.7 176.801 297.448C177.108 297.193 177.341 296.843 177.501 296.397C177.665 295.952 177.751 295.444 177.759 294.873C177.768 294.302 177.696 293.792 177.545 293.342C177.398 292.893 177.175 292.536 176.877 292.271C176.578 292.007 176.203 291.872 175.751 291.865C175.295 291.859 174.91 291.983 174.595 292.238C174.284 292.494 174.047 292.844 173.883 293.289C173.723 293.734 173.639 294.242 173.631 294.813C173.622 295.384 173.692 295.895 173.838 296.344C173.99 296.794 174.217 297.151 174.52 297.415C174.827 297.675 175.209 297.809 175.665 297.816ZM182.173 303.51L182.369 290.012L185.053 290.051L185.029 291.7L185.151 291.701C185.274 291.439 185.45 291.173 185.68 290.904C185.914 290.63 186.216 290.404 186.585 290.226C186.958 290.044 187.42 289.957 187.97 289.965C188.686 289.976 189.343 290.173 189.943 290.557C190.542 290.936 191.018 291.503 191.369 292.259C191.721 293.01 191.888 293.947 191.872 295.072C191.856 296.167 191.665 297.089 191.301 297.838C190.941 298.583 190.455 299.145 189.844 299.524C189.238 299.899 188.562 300.081 187.816 300.07C187.288 300.062 186.84 299.968 186.472 299.788C186.108 299.608 185.81 299.384 185.58 299.117C185.349 298.845 185.174 298.572 185.055 298.297L184.972 298.296L184.895 303.55L182.173 303.51ZM184.963 294.959C184.954 295.543 185.028 296.053 185.183 296.49C185.339 296.927 185.568 297.269 185.872 297.517C186.175 297.76 186.546 297.884 186.985 297.891C187.428 297.897 187.805 297.781 188.115 297.543C188.426 297.3 188.663 296.963 188.827 296.53C188.995 296.094 189.083 295.59 189.092 295.019C189.1 294.452 189.028 293.953 188.877 293.52C188.725 293.087 188.498 292.747 188.195 292.5C187.892 292.253 187.516 292.126 187.069 292.119C186.626 292.113 186.249 292.225 185.939 292.454C185.633 292.684 185.396 293.013 185.228 293.441C185.06 293.869 184.971 294.375 184.963 294.959ZM198.087 300.251C197.077 300.237 196.211 300.019 195.488 299.6C194.77 299.176 194.22 298.584 193.839 297.824C193.458 297.06 193.275 296.16 193.29 295.125C193.305 294.115 193.514 293.232 193.917 292.475C194.32 291.718 194.88 291.131 195.598 290.716C196.32 290.3 197.163 290.099 198.126 290.113C198.773 290.122 199.375 290.236 199.93 290.453C200.489 290.665 200.975 290.981 201.386 291.401C201.802 291.82 202.123 292.345 202.348 292.975C202.573 293.6 202.68 294.33 202.668 295.165L202.657 295.913L194.367 295.793L194.392 294.105L200.118 294.189C200.124 293.797 200.044 293.448 199.878 293.143C199.712 292.838 199.479 292.598 199.179 292.423C198.883 292.244 198.537 292.152 198.141 292.146C197.727 292.14 197.36 292.231 197.037 292.418C196.719 292.601 196.468 292.851 196.285 293.168C196.101 293.48 196.005 293.83 195.995 294.218L195.971 295.822C195.964 296.308 196.048 296.729 196.221 297.085C196.399 297.442 196.653 297.718 196.983 297.915C197.312 298.111 197.705 298.213 198.161 298.22C198.464 298.224 198.741 298.185 198.994 298.104C199.246 298.022 199.463 297.898 199.645 297.73C199.826 297.562 199.966 297.355 200.063 297.109L202.579 297.312C202.442 297.915 202.172 298.44 201.77 298.886C201.371 299.327 200.859 299.669 200.233 299.912C199.612 300.15 198.896 300.263 198.087 300.251ZM204.372 300.151L204.515 290.334L207.155 290.372L207.13 292.085L207.232 292.087C207.42 291.48 207.727 291.024 208.153 290.719C208.58 290.41 209.068 290.259 209.617 290.267C209.754 290.269 209.901 290.28 210.058 290.299C210.215 290.319 210.354 290.344 210.472 290.376L210.437 292.792C210.31 292.752 210.134 292.715 209.908 292.682C209.683 292.649 209.477 292.631 209.289 292.628C208.889 292.622 208.529 292.704 208.211 292.874C207.898 293.04 207.647 293.275 207.46 293.579C207.276 293.884 207.182 294.236 207.176 294.637L207.095 300.191L204.372 300.151ZM217.593 290.524L217.564 292.569L211.652 292.483L211.681 290.438L217.593 290.524ZM213.058 288.106L215.781 288.145L215.647 297.298C215.644 297.549 215.679 297.746 215.754 297.887C215.829 298.025 215.934 298.122 216.069 298.18C216.209 298.237 216.371 298.267 216.554 298.27C216.682 298.272 216.81 298.263 216.938 298.243C217.066 298.22 217.164 298.202 217.233 298.19L217.631 300.222C217.494 300.263 217.302 300.309 217.054 300.361C216.806 300.417 216.505 300.449 216.151 300.457C215.495 300.473 214.921 300.377 214.429 300.17C213.942 299.962 213.565 299.646 213.299 299.22C213.032 298.794 212.906 298.259 212.919 297.616L213.058 288.106ZM220.852 304.073C220.506 304.068 220.183 304.036 219.881 303.976C219.584 303.92 219.338 303.851 219.143 303.767L219.786 301.743C220.104 301.846 220.391 301.903 220.646 301.916C220.906 301.928 221.131 301.872 221.32 301.746C221.514 301.621 221.672 301.406 221.796 301.101L221.962 300.688L218.587 290.539L221.451 290.58L223.378 297.819L223.48 297.821L225.637 290.641L228.519 290.683L224.546 301.506C224.355 302.031 224.099 302.488 223.778 302.875C223.461 303.267 223.062 303.566 222.582 303.772C222.102 303.983 221.525 304.083 220.852 304.073Z" fill="white"/>
    <circle cx="189.722" cy="218.722" r="50" transform="rotate(0.833608 189.722 218.722)" fill="#7474C1"/>
    <mask id="mask3_0_1" style="mask-type:alpha" maskUnits="userSpaceOnUse" x="162" y="191" width="56" height="56">
        <rect x="163.455" y="191" width="54.2693" height="54.2693" transform="rotate(0.833608 163.455 191)" fill="#D9D9D9"/>
    </mask>
    <g mask="url(#mask3_0_1)">
        <path d="M171.809 238.612L172.138 215.946L167.338 219.494L165.342 216.752L172.2 211.707L172.294 205.263L175.685 205.312L175.629 209.156L190.489 198.178L215.083 217.532L213.01 220.159L208.314 216.472L207.984 239.139L171.809 238.612ZM175.249 235.27L188.25 235.459L188.382 226.415L191.773 226.465L191.642 235.509L204.642 235.698L204.96 213.823L190.427 202.417L175.568 213.395L175.249 235.27ZM172.335 202.437C172.36 200.703 172.994 199.242 174.236 198.054C175.478 196.866 176.947 196.285 178.643 196.309C179.444 196.321 180.119 196.048 180.669 195.491C181.219 194.933 181.5 194.278 181.51 193.524L184.902 193.574C184.877 195.269 184.252 196.721 183.025 197.928C181.798 199.135 180.321 199.726 178.594 199.701C177.84 199.69 177.177 199.951 176.604 200.485C176.03 201.018 175.738 201.685 175.726 202.486L172.335 202.437Z" fill="white"/>
    </g>
</svg>
