<svg width="732" height="803" viewBox="0 0 732 803" fill="none" xmlns="http://www.w3.org/2000/svg">
    <path d="M68 492C30.505 492 0 461.495 0 424H38.13C38.13 440.469 51.5309 453.87 68 453.87C84.4691 453.87 97.87 440.469 97.87 424C97.87 407.531 84.4691 394.13 68 394.13V356C105.495 356 136 386.505 136 424C136 461.495 105.495 492 68 492Z" fill="#B397E8"/>
    <path d="M701.343 303.189L701.331 283.758L671.758 313.344L691.204 313.332L701.343 303.189Z" fill="#9AD537"/>
    <path d="M701.344 260.685L701.332 241.228L630.153 313.343L649.38 313.331L701.344 260.685Z" fill="#9AD537"/>
    <path d="M701.344 218.954L701.332 199.624L620.908 280.144L620.92 299.475L701.344 218.954Z" fill="#9AD537"/>
    <path d="M701.344 176.42L701.332 157.095L620.908 237.62L620.92 256.946L701.344 176.42Z" fill="#9AD537"/>
    <path d="M689.324 146L670.159 146.012L590.397 226.436L609.569 226.424L689.324 146Z" fill="#9AD537"/>
    <path d="M647.72 146L628.369 146.012L547.868 226.436L567.213 226.424L647.72 146Z" fill="#9AD537"/>
    <path d="M605.19 146L585.936 146.012L534 197.951L534.012 217.19L605.19 146Z" fill="#9AD537"/>
    <path d="M563.586 146L544.071 146.012L534 156.087L534.012 175.586L563.586 146Z" fill="#9AD537"/>
    <path d="M701.343 303.189L701.331 283.758L671.758 313.344L691.204 313.332L701.343 303.189Z" fill="#9AD537"/>
    <path d="M701.344 260.685L701.332 241.228L630.153 313.343L649.38 313.331L701.344 260.685Z" fill="#9AD537"/>
    <path d="M701.344 218.954L701.332 199.624L620.908 280.144L620.92 299.475L701.344 218.954Z" fill="#9AD537"/>
    <path d="M701.344 176.42L701.332 157.095L620.908 237.62L620.92 256.946L701.344 176.42Z" fill="#9AD537"/>
    <path d="M689.324 146L670.159 146.012L590.397 226.436L609.569 226.424L689.324 146Z" fill="#9AD537"/>
    <path d="M647.72 146L628.369 146.012L547.868 226.436L567.213 226.424L647.72 146Z" fill="#9AD537"/>
    <path d="M605.19 146L585.936 146.012L534 197.951L534.012 217.19L605.19 146Z" fill="#9AD537"/>
    <path d="M563.586 146L544.071 146.012L534 156.087L534.012 175.586L563.586 146Z" fill="#9AD537"/>
    <circle cx="425.5" cy="94.5" r="93.6" fill="#7474C1" stroke="#7574BD" stroke-width="1.8"/>
    <mask id="mask0_0_1" style="mask-type:alpha" maskUnits="userSpaceOnUse" x="388" y="45" width="76" height="76">
        <rect x="388" y="45" width="76" height="76" fill="#D9D9D9"/>
    </mask>
    <g mask="url(#mask0_0_1)">
        <path d="M394.334 110.972V105.694H457.667V110.972H394.334ZM397.501 101.472V79.8333H405.945V101.472H397.501ZM413.651 101.472V64H422.095V101.472H413.651ZM429.853 101.472V73.5H438.298V101.472H429.853ZM446.056 101.472V54.5H454.501V101.472H446.056Z" fill="white"/>
    </g>
    <path d="M400.631 138.638C400.575 138.065 400.331 137.62 399.9 137.303C399.469 136.985 398.884 136.827 398.146 136.827C397.644 136.827 397.22 136.898 396.874 137.04C396.529 137.177 396.263 137.369 396.079 137.615C395.899 137.861 395.809 138.141 395.809 138.453C395.799 138.714 395.854 138.941 395.972 139.135C396.095 139.329 396.263 139.497 396.477 139.639C396.69 139.777 396.936 139.897 397.215 140.001C397.495 140.101 397.793 140.186 398.11 140.257L399.417 140.57C400.051 140.712 400.634 140.901 401.164 141.138C401.694 141.375 402.154 141.666 402.542 142.011C402.93 142.357 403.231 142.764 403.444 143.233C403.662 143.702 403.773 144.239 403.778 144.845C403.773 145.735 403.546 146.507 403.096 147.161C402.651 147.809 402.007 148.313 401.164 148.673C400.326 149.028 399.315 149.206 398.131 149.206C396.957 149.206 395.934 149.026 395.063 148.666C394.197 148.306 393.52 147.774 393.032 147.068C392.549 146.358 392.296 145.48 392.272 144.433H395.248C395.281 144.921 395.421 145.328 395.667 145.655C395.918 145.977 396.252 146.221 396.668 146.386C397.09 146.547 397.566 146.628 398.096 146.628C398.617 146.628 399.069 146.552 399.452 146.401C399.841 146.249 400.141 146.038 400.354 145.768C400.567 145.499 400.674 145.188 400.674 144.838C400.674 144.511 400.577 144.237 400.383 144.014C400.193 143.792 399.914 143.602 399.545 143.446C399.18 143.29 398.733 143.148 398.202 143.02L396.619 142.622C395.392 142.324 394.424 141.857 393.714 141.223C393.004 140.589 392.651 139.734 392.656 138.659C392.651 137.778 392.885 137.009 393.359 136.351C393.837 135.693 394.493 135.179 395.326 134.81C396.159 134.44 397.106 134.256 398.167 134.256C399.246 134.256 400.189 134.44 400.994 134.81C401.803 135.179 402.433 135.693 402.883 136.351C403.333 137.009 403.565 137.771 403.579 138.638H400.631ZM408.815 142.693V149H405.789V134.455H408.73V140.016H408.858C409.104 139.372 409.502 138.867 410.051 138.503C410.6 138.134 411.289 137.949 412.118 137.949C412.875 137.949 413.536 138.115 414.099 138.446C414.667 138.773 415.108 139.244 415.42 139.859C415.737 140.47 415.894 141.202 415.889 142.054V149H412.863V142.594C412.868 141.921 412.698 141.398 412.352 141.024C412.011 140.65 411.533 140.463 410.917 140.463C410.505 140.463 410.141 140.551 409.824 140.726C409.511 140.901 409.265 141.157 409.085 141.493C408.91 141.824 408.82 142.224 408.815 142.693ZM421.381 149.206C420.685 149.206 420.064 149.085 419.52 148.844C418.975 148.598 418.545 148.235 418.227 147.757C417.915 147.274 417.759 146.673 417.759 145.953C417.759 145.347 417.87 144.838 418.092 144.426C418.315 144.014 418.618 143.683 419.001 143.432C419.385 143.181 419.821 142.991 420.308 142.864C420.801 142.736 421.317 142.646 421.857 142.594C422.491 142.527 423.002 142.466 423.391 142.409C423.779 142.348 424.061 142.258 424.236 142.139C424.411 142.021 424.499 141.846 424.499 141.614V141.571C424.499 141.121 424.357 140.773 424.072 140.527C423.793 140.281 423.395 140.158 422.879 140.158C422.335 140.158 421.902 140.278 421.58 140.52C421.258 140.757 421.045 141.055 420.94 141.415L418.142 141.188C418.284 140.525 418.563 139.952 418.98 139.469C419.397 138.981 419.934 138.607 420.592 138.347C421.255 138.081 422.022 137.949 422.893 137.949C423.5 137.949 424.08 138.02 424.634 138.162C425.192 138.304 425.687 138.524 426.118 138.822C426.554 139.121 426.897 139.504 427.148 139.973C427.399 140.437 427.524 140.993 427.524 141.642V149H424.655V147.487H424.57C424.394 147.828 424.16 148.129 423.866 148.389C423.573 148.645 423.22 148.846 422.808 148.993C422.396 149.135 421.92 149.206 421.381 149.206ZM422.247 147.118C422.692 147.118 423.085 147.03 423.426 146.855C423.767 146.675 424.035 146.434 424.229 146.131C424.423 145.828 424.52 145.484 424.52 145.101V143.943C424.425 144.005 424.295 144.062 424.129 144.114C423.968 144.161 423.786 144.206 423.582 144.249C423.379 144.286 423.175 144.322 422.972 144.355C422.768 144.384 422.583 144.41 422.418 144.433C422.063 144.485 421.752 144.568 421.487 144.682C421.222 144.795 421.016 144.949 420.869 145.143C420.723 145.333 420.649 145.57 420.649 145.854C420.649 146.266 420.798 146.58 421.097 146.798C421.4 147.011 421.783 147.118 422.247 147.118ZM429.871 149V138.091H432.805V139.994H432.918C433.117 139.317 433.451 138.806 433.92 138.46C434.388 138.11 434.928 137.935 435.539 137.935C435.691 137.935 435.854 137.944 436.029 137.963C436.204 137.982 436.358 138.008 436.491 138.041V140.726C436.349 140.683 436.152 140.645 435.901 140.612C435.65 140.579 435.421 140.562 435.212 140.562C434.767 140.562 434.37 140.66 434.019 140.854C433.674 141.043 433.399 141.308 433.195 141.649C432.996 141.99 432.897 142.383 432.897 142.828V149H429.871ZM442.519 149.213C441.397 149.213 440.431 148.986 439.621 148.531C438.816 148.072 438.196 147.423 437.76 146.585C437.325 145.742 437.107 144.746 437.107 143.595C437.107 142.473 437.325 141.488 437.76 140.641C438.196 139.793 438.809 139.133 439.6 138.659C440.395 138.186 441.328 137.949 442.398 137.949C443.118 137.949 443.788 138.065 444.408 138.297C445.033 138.524 445.578 138.867 446.042 139.327C446.51 139.786 446.875 140.364 447.135 141.06C447.396 141.751 447.526 142.561 447.526 143.489V144.32H438.314V142.445H444.678C444.678 142.009 444.583 141.623 444.394 141.287C444.204 140.951 443.942 140.688 443.605 140.499C443.274 140.304 442.888 140.207 442.448 140.207C441.989 140.207 441.581 140.314 441.226 140.527C440.876 140.735 440.601 141.017 440.402 141.372C440.203 141.723 440.102 142.113 440.097 142.544V144.327C440.097 144.866 440.196 145.333 440.395 145.726C440.599 146.119 440.885 146.422 441.255 146.635C441.624 146.848 442.062 146.955 442.569 146.955C442.905 146.955 443.212 146.907 443.492 146.812C443.771 146.718 444.01 146.576 444.209 146.386C444.408 146.197 444.56 145.965 444.664 145.69L447.462 145.875C447.32 146.547 447.029 147.134 446.588 147.636C446.153 148.134 445.589 148.522 444.898 148.801C444.212 149.076 443.418 149.213 442.519 149.213ZM458.577 141.202L455.807 141.372C455.76 141.135 455.658 140.922 455.502 140.733C455.346 140.539 455.14 140.385 454.884 140.271C454.633 140.153 454.332 140.094 453.982 140.094C453.513 140.094 453.118 140.193 452.796 140.392C452.474 140.586 452.313 140.847 452.313 141.173C452.313 141.434 452.417 141.654 452.625 141.834C452.834 142.014 453.191 142.158 453.698 142.267L455.672 142.665C456.733 142.883 457.524 143.233 458.044 143.716C458.565 144.199 458.826 144.833 458.826 145.619C458.826 146.334 458.615 146.962 458.194 147.501C457.777 148.041 457.204 148.463 456.475 148.766C455.75 149.064 454.915 149.213 453.968 149.213C452.524 149.213 451.373 148.912 450.516 148.311C449.664 147.705 449.164 146.881 449.017 145.839L451.993 145.683C452.083 146.124 452.301 146.46 452.647 146.692C452.992 146.919 453.435 147.033 453.975 147.033C454.505 147.033 454.931 146.931 455.253 146.727C455.58 146.519 455.746 146.251 455.75 145.925C455.746 145.65 455.63 145.425 455.402 145.25C455.175 145.07 454.825 144.933 454.351 144.838L452.462 144.462C451.397 144.249 450.604 143.879 450.083 143.354C449.567 142.828 449.309 142.158 449.309 141.344C449.309 140.643 449.498 140.039 449.877 139.533C450.26 139.026 450.798 138.635 451.489 138.361C452.185 138.086 452.999 137.949 453.932 137.949C455.31 137.949 456.394 138.24 457.185 138.822C457.98 139.405 458.444 140.198 458.577 141.202Z" fill="white"/>
    <circle cx="225.381" cy="632.381" r="110.481" fill="#7474C1" stroke="#7474C1" stroke-width="1.8"/>
    <mask id="mask1_0_1" style="mask-type:alpha" maskUnits="userSpaceOnUse" x="178" y="561" width="95" height="95">
        <rect x="179.984" y="561.065" width="92.6733" height="92.6733" transform="rotate(0.833608 179.984 561.065)" fill="white"/>
    </mask>
    <g mask="url(#mask1_0_1)">
        <path d="M194.25 642.371L194.814 603.664L186.616 609.724L183.208 605.04L194.919 596.425L195.079 585.421L200.87 585.506L200.775 592.069L226.149 573.323L268.148 606.373L264.607 610.859L256.589 604.563L256.026 643.27L194.25 642.371ZM200.126 636.663L222.327 636.987L222.551 621.543L228.343 621.627L228.118 637.071L250.319 637.394L250.862 600.039L226.044 580.562L200.67 599.309L200.126 636.663ZM195.149 580.595C195.192 577.635 196.275 575.141 198.396 573.112C200.517 571.083 203.026 570.09 205.921 570.132C207.289 570.152 208.442 569.686 209.381 568.734C210.32 567.782 210.799 566.663 210.818 565.376L216.609 565.46C216.567 568.356 215.499 570.834 213.404 572.896C211.309 574.957 208.786 575.966 205.837 575.923C204.55 575.905 203.417 576.351 202.439 577.262C201.46 578.173 200.961 579.312 200.941 580.679L195.149 580.595Z" fill="white"/>
    </g>
    <path d="M175.465 688.538V671.084H182.351C183.675 671.084 184.803 671.336 185.735 671.842C186.667 672.342 187.377 673.038 187.865 673.93C188.36 674.816 188.607 675.839 188.607 676.998C188.607 678.157 188.357 679.18 187.857 680.066C187.357 680.953 186.632 681.643 185.684 682.138C184.74 682.632 183.598 682.879 182.257 682.879H177.868V679.922H181.661C182.371 679.922 182.956 679.799 183.417 679.555C183.882 679.305 184.229 678.961 184.456 678.524C184.689 678.081 184.806 677.572 184.806 676.998C184.806 676.419 184.689 675.913 184.456 675.481C184.229 675.044 183.882 674.706 183.417 674.467C182.951 674.223 182.36 674.101 181.644 674.101H179.155V688.538H175.465ZM190.936 688.538V675.447H194.456V677.731H194.592C194.831 676.919 195.231 676.305 195.794 675.89C196.356 675.47 197.004 675.26 197.737 675.26C197.919 675.26 198.115 675.271 198.325 675.294C198.535 675.316 198.72 675.348 198.879 675.388V678.609C198.708 678.558 198.473 678.513 198.172 678.473C197.87 678.433 197.595 678.413 197.345 678.413C196.811 678.413 196.333 678.53 195.913 678.763C195.498 678.99 195.169 679.308 194.924 679.717C194.686 680.126 194.566 680.598 194.566 681.132V688.538H190.936ZM206.061 688.794C204.738 688.794 203.593 688.513 202.627 687.95C201.667 687.382 200.925 686.592 200.402 685.581C199.88 684.564 199.618 683.385 199.618 682.044C199.618 680.691 199.88 679.51 200.402 678.498C200.925 677.481 201.667 676.691 202.627 676.129C203.593 675.561 204.738 675.277 206.061 675.277C207.385 675.277 208.527 675.561 209.488 676.129C210.453 676.691 211.198 677.481 211.721 678.498C212.243 679.51 212.505 680.691 212.505 682.044C212.505 683.385 212.243 684.564 211.721 685.581C211.198 686.592 210.453 687.382 209.488 687.95C208.527 688.513 207.385 688.794 206.061 688.794ZM206.078 685.981C206.681 685.981 207.184 685.811 207.587 685.47C207.99 685.123 208.294 684.652 208.499 684.055C208.709 683.459 208.814 682.78 208.814 682.018C208.814 681.257 208.709 680.578 208.499 679.981C208.294 679.385 207.99 678.913 207.587 678.566C207.184 678.22 206.681 678.047 206.078 678.047C205.471 678.047 204.959 678.22 204.544 678.566C204.135 678.913 203.826 679.385 203.615 679.981C203.411 680.578 203.309 681.257 203.309 682.018C203.309 682.78 203.411 683.459 203.615 684.055C203.826 684.652 204.135 685.123 204.544 685.47C204.959 685.811 205.471 685.981 206.078 685.981ZM214.865 693.447V675.447H218.445V677.646H218.607C218.766 677.294 218.996 676.936 219.297 676.572C219.604 676.203 220.002 675.896 220.49 675.652C220.985 675.402 221.598 675.277 222.331 675.277C223.286 675.277 224.167 675.527 224.973 676.027C225.78 676.521 226.425 677.268 226.908 678.268C227.391 679.263 227.632 680.51 227.632 682.01C227.632 683.47 227.397 684.703 226.925 685.709C226.459 686.709 225.823 687.467 225.016 687.984C224.215 688.495 223.317 688.751 222.323 688.751C221.618 688.751 221.019 688.635 220.525 688.402C220.036 688.169 219.635 687.876 219.323 687.524C219.01 687.166 218.772 686.805 218.607 686.441H218.496V693.447H214.865ZM218.419 681.993C218.419 682.771 218.527 683.45 218.743 684.03C218.959 684.609 219.272 685.061 219.681 685.385C220.09 685.703 220.587 685.862 221.172 685.862C221.763 685.862 222.263 685.7 222.672 685.376C223.081 685.047 223.391 684.592 223.601 684.013C223.817 683.427 223.925 682.754 223.925 681.993C223.925 681.237 223.82 680.572 223.61 679.998C223.4 679.424 223.09 678.976 222.681 678.652C222.272 678.328 221.769 678.166 221.172 678.166C220.581 678.166 220.081 678.322 219.672 678.635C219.269 678.947 218.959 679.39 218.743 679.964C218.527 680.538 218.419 681.214 218.419 681.993ZM236.019 688.794C234.672 688.794 233.513 688.521 232.542 687.976C231.576 687.424 230.831 686.646 230.309 685.64C229.786 684.629 229.525 683.433 229.525 682.052C229.525 680.706 229.786 679.524 230.309 678.507C230.831 677.49 231.567 676.697 232.516 676.129C233.471 675.561 234.59 675.277 235.874 675.277C236.738 675.277 237.542 675.416 238.286 675.694C239.036 675.967 239.689 676.379 240.246 676.93C240.809 677.481 241.246 678.174 241.559 679.01C241.871 679.839 242.027 680.811 242.027 681.924V682.922H230.973V680.672H238.61C238.61 680.149 238.496 679.686 238.269 679.282C238.042 678.879 237.726 678.564 237.323 678.336C236.925 678.103 236.462 677.987 235.934 677.987C235.382 677.987 234.894 678.115 234.468 678.37C234.047 678.62 233.718 678.959 233.479 679.385C233.24 679.805 233.118 680.274 233.113 680.791V682.93C233.113 683.578 233.232 684.138 233.471 684.609C233.715 685.081 234.059 685.444 234.502 685.7C234.945 685.956 235.471 686.084 236.078 686.084C236.482 686.084 236.851 686.027 237.186 685.913C237.522 685.799 237.809 685.629 238.047 685.402C238.286 685.174 238.468 684.896 238.593 684.566L241.951 684.788C241.78 685.595 241.431 686.299 240.902 686.902C240.38 687.498 239.703 687.964 238.874 688.299C238.05 688.629 237.098 688.794 236.019 688.794ZM244.397 688.538V675.447H247.917V677.731H248.053C248.292 676.919 248.692 676.305 249.255 675.89C249.817 675.47 250.465 675.26 251.198 675.26C251.38 675.26 251.576 675.271 251.786 675.294C251.996 675.316 252.181 675.348 252.34 675.388V678.609C252.169 678.558 251.934 678.513 251.632 678.473C251.331 678.433 251.056 678.413 250.806 678.413C250.272 678.413 249.794 678.53 249.374 678.763C248.959 678.99 248.63 679.308 248.385 679.717C248.147 680.126 248.027 680.598 248.027 681.132V688.538H244.397ZM261.836 675.447V678.174H253.953V675.447H261.836ZM255.743 672.311H259.373V684.515C259.373 684.851 259.424 685.112 259.527 685.299C259.629 685.481 259.771 685.609 259.953 685.683C260.14 685.757 260.356 685.794 260.6 685.794C260.771 685.794 260.941 685.78 261.112 685.751C261.282 685.717 261.413 685.691 261.504 685.674L262.075 688.376C261.893 688.433 261.637 688.498 261.308 688.572C260.978 688.652 260.578 688.7 260.106 688.717C259.231 688.751 258.464 688.635 257.805 688.368C257.152 688.101 256.643 687.686 256.279 687.123C255.916 686.561 255.737 685.851 255.743 684.993V672.311ZM266.443 693.447C265.983 693.447 265.551 693.41 265.147 693.336C264.75 693.268 264.42 693.18 264.159 693.072L264.977 690.362C265.403 690.493 265.787 690.564 266.127 690.575C266.474 690.586 266.772 690.507 267.022 690.336C267.278 690.166 267.485 689.876 267.645 689.467L267.858 688.913L263.162 675.447H266.98L269.69 685.061H269.826L272.562 675.447H276.406L271.318 689.953C271.074 690.657 270.741 691.271 270.321 691.794C269.906 692.322 269.38 692.728 268.744 693.013C268.108 693.302 267.341 693.447 266.443 693.447Z" fill="white"/>
    <circle cx="619" cy="523" r="111.845" fill="#7474C1" stroke="#7474C1" stroke-width="2.31088"/>
    <path d="M605.707 572.656H601.974C601.906 572.173 601.766 571.744 601.556 571.369C601.346 570.989 601.076 570.665 600.746 570.398C600.417 570.131 600.036 569.926 599.604 569.784C599.178 569.642 598.715 569.571 598.215 569.571C597.312 569.571 596.525 569.795 595.854 570.244C595.184 570.687 594.664 571.335 594.295 572.188C593.925 573.034 593.741 574.062 593.741 575.273C593.741 576.517 593.925 577.562 594.295 578.409C594.67 579.256 595.192 579.895 595.863 580.327C596.533 580.759 597.309 580.974 598.19 580.974C598.684 580.974 599.141 580.909 599.562 580.778C599.988 580.648 600.366 580.457 600.695 580.207C601.025 579.952 601.298 579.642 601.513 579.278C601.735 578.915 601.888 578.5 601.974 578.034L605.707 578.051C605.61 578.852 605.369 579.625 604.982 580.369C604.602 581.108 604.087 581.77 603.44 582.355C602.798 582.935 602.031 583.395 601.138 583.736C600.252 584.071 599.249 584.239 598.13 584.239C596.573 584.239 595.181 583.886 593.954 583.182C592.732 582.477 591.766 581.457 591.056 580.122C590.352 578.787 589.999 577.17 589.999 575.273C589.999 573.369 590.357 571.75 591.073 570.415C591.789 569.08 592.761 568.062 593.988 567.364C595.215 566.659 596.596 566.307 598.13 566.307C599.141 566.307 600.079 566.449 600.942 566.733C601.812 567.017 602.582 567.432 603.252 567.977C603.923 568.517 604.468 569.179 604.888 569.963C605.315 570.747 605.587 571.645 605.707 572.656ZM612.018 584.247C611.183 584.247 610.438 584.102 609.785 583.812C609.131 583.517 608.614 583.082 608.234 582.509C607.859 581.929 607.671 581.207 607.671 580.344C607.671 579.616 607.805 579.006 608.072 578.511C608.339 578.017 608.702 577.619 609.163 577.318C609.623 577.017 610.146 576.79 610.731 576.636C611.322 576.483 611.941 576.375 612.589 576.312C613.35 576.233 613.964 576.159 614.43 576.091C614.896 576.017 615.234 575.909 615.444 575.767C615.654 575.625 615.759 575.415 615.759 575.136V575.085C615.759 574.545 615.589 574.128 615.248 573.832C614.913 573.537 614.435 573.389 613.816 573.389C613.163 573.389 612.643 573.534 612.256 573.824C611.87 574.108 611.614 574.466 611.489 574.898L608.131 574.625C608.302 573.83 608.637 573.142 609.137 572.562C609.637 571.977 610.282 571.528 611.072 571.216C611.867 570.898 612.788 570.739 613.833 570.739C614.56 570.739 615.256 570.824 615.921 570.994C616.592 571.165 617.185 571.429 617.702 571.787C618.225 572.145 618.637 572.605 618.938 573.168C619.239 573.724 619.39 574.392 619.39 575.17V584H615.947V582.185H615.844C615.634 582.594 615.353 582.955 615.001 583.267C614.648 583.574 614.225 583.815 613.731 583.991C613.237 584.162 612.665 584.247 612.018 584.247ZM613.058 581.741C613.592 581.741 614.063 581.636 614.472 581.426C614.881 581.21 615.202 580.92 615.435 580.557C615.668 580.193 615.785 579.781 615.785 579.321V577.932C615.671 578.006 615.515 578.074 615.316 578.136C615.123 578.193 614.904 578.247 614.66 578.298C614.415 578.344 614.171 578.386 613.927 578.426C613.683 578.46 613.461 578.491 613.262 578.52C612.836 578.582 612.464 578.682 612.146 578.818C611.827 578.955 611.58 579.139 611.404 579.372C611.228 579.599 611.14 579.884 611.14 580.224C611.14 580.719 611.319 581.097 611.677 581.358C612.04 581.614 612.501 581.741 613.058 581.741ZM633.099 574.642L629.775 574.847C629.718 574.562 629.596 574.307 629.408 574.08C629.221 573.847 628.974 573.662 628.667 573.526C628.366 573.384 628.005 573.312 627.585 573.312C627.022 573.312 626.548 573.432 626.161 573.67C625.775 573.903 625.582 574.216 625.582 574.608C625.582 574.92 625.707 575.185 625.957 575.401C626.207 575.616 626.636 575.79 627.244 575.92L629.613 576.398C630.886 576.659 631.835 577.08 632.46 577.659C633.085 578.239 633.397 579 633.397 579.943C633.397 580.801 633.144 581.554 632.638 582.202C632.138 582.849 631.451 583.355 630.576 583.719C629.707 584.077 628.704 584.256 627.567 584.256C625.835 584.256 624.454 583.895 623.425 583.173C622.403 582.446 621.803 581.457 621.627 580.207L625.198 580.02C625.306 580.548 625.567 580.952 625.982 581.23C626.397 581.503 626.928 581.639 627.576 581.639C628.212 581.639 628.724 581.517 629.11 581.273C629.502 581.023 629.701 580.702 629.707 580.31C629.701 579.98 629.562 579.71 629.289 579.5C629.016 579.284 628.596 579.119 628.028 579.006L625.761 578.554C624.482 578.298 623.531 577.855 622.906 577.224C622.286 576.594 621.977 575.79 621.977 574.812C621.977 573.972 622.204 573.247 622.658 572.639C623.119 572.031 623.763 571.562 624.593 571.233C625.428 570.903 626.406 570.739 627.525 570.739C629.178 570.739 630.479 571.088 631.428 571.787C632.383 572.486 632.94 573.437 633.099 574.642ZM639.314 576.432V584H635.683V566.545H639.212V573.219H639.365C639.661 572.446 640.138 571.841 640.797 571.403C641.456 570.96 642.283 570.739 643.277 570.739C644.186 570.739 644.979 570.938 645.655 571.335C646.337 571.727 646.865 572.293 647.24 573.031C647.621 573.764 647.808 574.642 647.803 575.665V584H644.172V576.312C644.178 575.506 643.973 574.878 643.558 574.429C643.149 573.98 642.575 573.756 641.837 573.756C641.342 573.756 640.905 573.861 640.524 574.071C640.149 574.281 639.854 574.588 639.638 574.991C639.428 575.389 639.32 575.869 639.314 576.432Z" fill="white"/>
    <mask id="mask2_0_1" style="mask-type:alpha" maskUnits="userSpaceOnUse" x="569" y="452" width="102" height="102">
        <rect x="570.455" y="452" width="100" height="100" transform="rotate(0.833608 570.455 452)" fill="white"/>
    </mask>
    <g mask="url(#mask2_0_1)">
        <path d="M625.882 509.063C622.41 509.012 619.477 507.754 617.082 505.289C614.687 502.823 613.514 499.854 613.565 496.382C613.616 492.911 614.874 489.977 617.339 487.582C619.805 485.187 622.774 484.015 626.246 484.066C629.717 484.116 632.651 485.374 635.046 487.84C637.441 490.305 638.613 493.274 638.562 496.746C638.512 500.218 637.254 503.151 634.788 505.546C632.322 507.941 629.354 509.113 625.882 509.063ZM592.34 523.16C590.621 523.135 589.159 522.501 587.953 521.26C586.747 520.018 586.156 518.538 586.181 516.819L586.788 475.157C586.813 473.439 587.446 471.976 588.688 470.77C589.929 469.564 591.409 468.974 593.128 468.999L659.788 469.969C661.506 469.994 662.968 470.627 664.174 471.869C665.38 473.11 665.971 474.59 665.946 476.309L665.34 517.971C665.315 519.69 664.681 521.152 663.44 522.358C662.198 523.564 660.718 524.155 658.999 524.13L592.34 523.16ZM602.846 517.062L648.675 517.729C648.717 514.812 649.76 512.362 651.803 510.378C653.846 508.393 656.326 507.422 659.242 507.465L659.545 486.634C656.629 486.591 654.178 485.548 652.194 483.506C650.21 481.463 649.239 478.983 649.281 476.067L603.453 475.4C603.41 478.316 602.367 480.766 600.324 482.751C598.281 484.735 595.802 485.706 592.885 485.664L592.582 506.495C595.499 506.537 597.949 507.58 599.933 509.623C601.918 511.666 602.889 514.146 602.846 517.062ZM652.568 536.537L579.659 535.477C577.941 535.452 576.478 534.818 575.272 533.577C574.066 532.335 573.476 530.855 573.501 529.136L574.198 481.225L580.447 481.316L579.75 529.227L652.659 530.288L652.568 536.537Z" fill="white"/>
    </g>
    <path d="M471.572 662.714H464.209V802.891H471.572V662.714Z" fill="#4FA3DE"/>
    <path d="M537.978 729.121H397.801V736.485H537.978V729.121Z" fill="#4FA3DE"/>
    <path d="M514.857 680.653L415.719 779.756L420.925 784.964L520.062 685.86L514.857 680.653Z" fill="#4FA3DE"/>
    <path d="M420.933 680.638L415.727 685.845L514.847 784.965L520.054 779.759L420.933 680.638Z" fill="#4FA3DE"/>
    <path d="M491.484 666.708L437.502 796.075L444.297 798.91L498.28 669.544L491.484 666.708Z" fill="#4FA3DE"/>
    <path d="M404.614 702.42L401.779 709.216L531.155 763.176L533.99 756.38L404.614 702.42Z" fill="#4FA3DE"/>
    <path d="M531.308 702.731L401.67 756.058L404.471 762.868L534.109 709.541L531.308 702.731Z" fill="#4FA3DE"/>
    <path d="M444.628 666.58L437.818 669.381L491.145 799.019L497.955 796.218L444.628 666.58Z" fill="#4FA3DE"/>
    <circle cx="136.24" cy="185.24" r="108.049" fill="#7474C1" stroke="#7474C1" stroke-width="2.38095"/>
    <path d="M100.392 251.566V234.112H107.381C108.665 234.112 109.736 234.302 110.594 234.683C111.452 235.064 112.097 235.592 112.528 236.268C112.96 236.939 113.176 237.711 113.176 238.586C113.176 239.268 113.04 239.868 112.767 240.385C112.494 240.896 112.119 241.316 111.642 241.646C111.17 241.97 110.631 242.2 110.023 242.336V242.507C110.688 242.535 111.31 242.723 111.889 243.069C112.474 243.416 112.949 243.902 113.312 244.527C113.676 245.146 113.858 245.885 113.858 246.743C113.858 247.669 113.628 248.495 113.168 249.223C112.713 249.944 112.04 250.515 111.148 250.936C110.256 251.356 109.156 251.566 107.849 251.566H100.392ZM104.082 248.549H107.091C108.119 248.549 108.869 248.353 109.341 247.961C109.813 247.564 110.048 247.035 110.048 246.376C110.048 245.893 109.932 245.467 109.699 245.098C109.466 244.728 109.134 244.439 108.702 244.228C108.276 244.018 107.767 243.913 107.176 243.913H104.082V248.549ZM104.082 241.416H106.818C107.324 241.416 107.773 241.328 108.165 241.152C108.563 240.97 108.875 240.714 109.102 240.385C109.335 240.055 109.452 239.66 109.452 239.2C109.452 238.569 109.227 238.061 108.778 237.674C108.335 237.288 107.705 237.095 106.886 237.095H104.082V241.416ZM122.106 251.822C120.782 251.822 119.637 251.541 118.671 250.978C117.711 250.41 116.969 249.62 116.447 248.609C115.924 247.592 115.663 246.413 115.663 245.072C115.663 243.72 115.924 242.538 116.447 241.527C116.969 240.51 117.711 239.72 118.671 239.157C119.637 238.589 120.782 238.305 122.106 238.305C123.43 238.305 124.572 238.589 125.532 239.157C126.498 239.72 127.242 240.51 127.765 241.527C128.288 242.538 128.549 243.72 128.549 245.072C128.549 246.413 128.288 247.592 127.765 248.609C127.242 249.62 126.498 250.41 125.532 250.978C124.572 251.541 123.43 251.822 122.106 251.822ZM122.123 249.01C122.725 249.01 123.228 248.839 123.631 248.498C124.035 248.152 124.339 247.68 124.543 247.083C124.754 246.487 124.859 245.808 124.859 245.047C124.859 244.285 124.754 243.606 124.543 243.01C124.339 242.413 124.035 241.941 123.631 241.595C123.228 241.248 122.725 241.075 122.123 241.075C121.515 241.075 121.004 241.248 120.589 241.595C120.18 241.941 119.87 242.413 119.66 243.01C119.455 243.606 119.353 244.285 119.353 245.047C119.353 245.808 119.455 246.487 119.66 247.083C119.87 247.68 120.18 248.152 120.589 248.498C121.004 248.839 121.515 249.01 122.123 249.01ZM134.54 243.998V251.566H130.91V238.475H134.37V240.785H134.523C134.813 240.024 135.299 239.422 135.981 238.978C136.663 238.529 137.489 238.305 138.461 238.305C139.37 238.305 140.163 238.504 140.839 238.902C141.515 239.299 142.04 239.868 142.415 240.606C142.79 241.339 142.978 242.214 142.978 243.231V251.566H139.347V243.879C139.353 243.078 139.148 242.453 138.734 242.004C138.319 241.549 137.748 241.322 137.021 241.322C136.532 241.322 136.1 241.427 135.725 241.637C135.356 241.848 135.066 242.154 134.856 242.558C134.651 242.956 134.546 243.436 134.54 243.998ZM150.663 251.779C149.669 251.779 148.768 251.524 147.962 251.012C147.161 250.495 146.524 249.737 146.053 248.737C145.587 247.731 145.354 246.498 145.354 245.038C145.354 243.538 145.595 242.291 146.078 241.297C146.561 240.297 147.203 239.549 148.004 239.055C148.811 238.555 149.695 238.305 150.655 238.305C151.388 238.305 151.999 238.43 152.487 238.68C152.982 238.924 153.379 239.231 153.68 239.6C153.987 239.964 154.22 240.322 154.379 240.674H154.49V234.112H158.112V251.566H154.533V249.47H154.379C154.209 249.833 153.967 250.194 153.655 250.552C153.348 250.904 152.947 251.197 152.453 251.43C151.964 251.663 151.368 251.779 150.663 251.779ZM151.814 248.89C152.399 248.89 152.893 248.731 153.297 248.413C153.706 248.089 154.018 247.637 154.234 247.058C154.456 246.478 154.567 245.799 154.567 245.021C154.567 244.243 154.459 243.566 154.243 242.993C154.027 242.419 153.714 241.975 153.305 241.663C152.896 241.35 152.399 241.194 151.814 241.194C151.217 241.194 150.714 241.356 150.305 241.68C149.896 242.004 149.587 242.453 149.376 243.027C149.166 243.6 149.061 244.265 149.061 245.021C149.061 245.782 149.166 246.456 149.376 247.041C149.592 247.62 149.902 248.075 150.305 248.404C150.714 248.728 151.217 248.89 151.814 248.89ZM171.989 242.208L168.665 242.413C168.609 242.129 168.487 241.873 168.299 241.646C168.112 241.413 167.864 241.228 167.558 241.092C167.256 240.95 166.896 240.879 166.475 240.879C165.913 240.879 165.438 240.998 165.052 241.237C164.665 241.47 164.472 241.782 164.472 242.174C164.472 242.487 164.597 242.751 164.847 242.967C165.097 243.183 165.526 243.356 166.134 243.487L168.504 243.964C169.776 244.225 170.725 244.646 171.35 245.225C171.975 245.805 172.288 246.566 172.288 247.51C172.288 248.368 172.035 249.12 171.529 249.768C171.029 250.416 170.342 250.922 169.467 251.285C168.597 251.643 167.594 251.822 166.458 251.822C164.725 251.822 163.344 251.461 162.316 250.74C161.293 250.012 160.694 249.024 160.518 247.774L164.089 247.586C164.197 248.115 164.458 248.518 164.873 248.797C165.288 249.069 165.819 249.206 166.467 249.206C167.103 249.206 167.614 249.083 168.001 248.839C168.393 248.589 168.592 248.268 168.597 247.876C168.592 247.547 168.452 247.277 168.18 247.066C167.907 246.85 167.487 246.686 166.918 246.572L164.651 246.12C163.373 245.865 162.421 245.422 161.796 244.791C161.177 244.16 160.867 243.356 160.867 242.379C160.867 241.538 161.094 240.814 161.549 240.206C162.009 239.598 162.654 239.129 163.484 238.799C164.319 238.47 165.296 238.305 166.415 238.305C168.069 238.305 169.37 238.654 170.319 239.353C171.273 240.052 171.83 241.004 171.989 242.208Z" fill="white"/>
    <mask id="mask3_0_1" style="mask-type:alpha" maskUnits="userSpaceOnUse" x="85" y="116" width="102" height="102">
        <rect x="87" y="116" width="100" height="100" transform="rotate(0.833608 87 116)" fill="#D9D9D9"/>
    </mask>
    <g mask="url(#mask3_0_1)">
        <path d="M104.475 203.762C102.808 203.738 101.359 203.092 100.127 201.824C98.8957 200.555 98.2919 199.088 98.3162 197.422L99.2255 134.928C99.2497 133.262 99.8959 131.813 101.164 130.581C102.432 129.349 103.899 128.746 105.566 128.77L168.059 129.679C169.726 129.703 171.175 130.35 172.406 131.618C173.638 132.886 174.242 134.353 174.218 136.019L173.308 198.513C173.284 200.179 172.638 201.628 171.37 202.86C170.102 204.092 168.634 204.695 166.968 204.671L104.475 203.762ZM105.475 135.019L104.566 197.513L167.059 198.422L167.968 135.929L157.136 135.771L156.713 164.83L146.595 158.537L136.299 164.533L136.722 135.474L105.475 135.019Z" fill="white"/>
    </g>
    <path d="M270.407 362.15C272.627 362.15 274.567 362.58 276.227 363.44C277.907 364.28 279.197 365.5 280.097 367.1C281.017 368.68 281.477 370.53 281.477 372.65C281.477 374.77 281.017 376.61 280.097 378.17C279.197 379.73 277.907 380.93 276.227 381.77C274.567 382.59 272.627 383 270.407 383H263.597V362.15H270.407ZM270.407 380.21C272.847 380.21 274.717 379.55 276.017 378.23C277.317 376.91 277.967 375.05 277.967 372.65C277.967 370.23 277.317 368.34 276.017 366.98C274.717 365.62 272.847 364.94 270.407 364.94H267.017V380.21H270.407ZM286.606 364.28C285.986 364.28 285.466 364.07 285.046 363.65C284.626 363.23 284.416 362.71 284.416 362.09C284.416 361.47 284.626 360.95 285.046 360.53C285.466 360.11 285.986 359.9 286.606 359.9C287.206 359.9 287.716 360.11 288.136 360.53C288.556 360.95 288.766 361.47 288.766 362.09C288.766 362.71 288.556 363.23 288.136 363.65C287.716 364.07 287.206 364.28 286.606 364.28ZM288.286 366.47V383H284.866V366.47H288.286ZM299.166 379.94L303.846 366.47H307.476L301.176 383H297.096L290.826 366.47H294.486L299.166 379.94ZM325.212 374.33C325.212 374.95 325.172 375.51 325.092 376.01H312.462C312.562 377.33 313.052 378.39 313.932 379.19C314.812 379.99 315.892 380.39 317.172 380.39C319.012 380.39 320.312 379.62 321.072 378.08H324.762C324.262 379.6 323.352 380.85 322.032 381.83C320.732 382.79 319.112 383.27 317.172 383.27C315.592 383.27 314.172 382.92 312.912 382.22C311.672 381.5 310.692 380.5 309.972 379.22C309.272 377.92 308.922 376.42 308.922 374.72C308.922 373.02 309.262 371.53 309.942 370.25C310.642 368.95 311.612 367.95 312.852 367.25C314.112 366.55 315.552 366.2 317.172 366.2C318.732 366.2 320.122 366.54 321.342 367.22C322.562 367.9 323.512 368.86 324.192 370.1C324.872 371.32 325.212 372.73 325.212 374.33ZM321.642 373.25C321.622 371.99 321.172 370.98 320.292 370.22C319.412 369.46 318.322 369.08 317.022 369.08C315.842 369.08 314.832 369.46 313.992 370.22C313.152 370.96 312.652 371.97 312.492 373.25H321.642ZM331.997 368.87C332.497 368.03 333.157 367.38 333.977 366.92C334.817 366.44 335.807 366.2 336.947 366.2V369.74H336.077C334.737 369.74 333.717 370.08 333.017 370.76C332.337 371.44 331.997 372.62 331.997 374.3V383H328.577V366.47H331.997V368.87ZM346.091 383.27C344.791 383.27 343.621 383.04 342.581 382.58C341.561 382.1 340.751 381.46 340.151 380.66C339.551 379.84 339.231 378.93 339.191 377.93H342.731C342.791 378.63 343.121 379.22 343.721 379.7C344.341 380.16 345.111 380.39 346.031 380.39C346.991 380.39 347.731 380.21 348.251 379.85C348.791 379.47 349.061 378.99 349.061 378.41C349.061 377.79 348.761 377.33 348.161 377.03C347.581 376.73 346.651 376.4 345.371 376.04C344.131 375.7 343.121 375.37 342.341 375.05C341.561 374.73 340.881 374.24 340.301 373.58C339.741 372.92 339.461 372.05 339.461 370.97C339.461 370.09 339.721 369.29 340.241 368.57C340.761 367.83 341.501 367.25 342.461 366.83C343.441 366.41 344.561 366.2 345.821 366.2C347.701 366.2 349.211 366.68 350.351 367.64C351.511 368.58 352.131 369.87 352.211 371.51H348.791C348.731 370.77 348.431 370.18 347.891 369.74C347.351 369.3 346.621 369.08 345.701 369.08C344.801 369.08 344.111 369.25 343.631 369.59C343.151 369.93 342.911 370.38 342.911 370.94C342.911 371.38 343.071 371.75 343.391 372.05C343.711 372.35 344.101 372.59 344.561 372.77C345.021 372.93 345.701 373.14 346.601 373.4C347.801 373.72 348.781 374.05 349.541 374.39C350.321 374.71 350.991 375.19 351.551 375.83C352.111 376.47 352.401 377.32 352.421 378.38C352.421 379.32 352.161 380.16 351.641 380.9C351.121 381.64 350.381 382.22 349.421 382.64C348.481 383.06 347.371 383.27 346.091 383.27ZM357.856 364.28C357.236 364.28 356.716 364.07 356.296 363.65C355.876 363.23 355.666 362.71 355.666 362.09C355.666 361.47 355.876 360.95 356.296 360.53C356.716 360.11 357.236 359.9 357.856 359.9C358.456 359.9 358.966 360.11 359.386 360.53C359.806 360.95 360.016 361.47 360.016 362.09C360.016 362.71 359.806 363.23 359.386 363.65C358.966 364.07 358.456 364.28 357.856 364.28ZM359.536 366.47V383H356.116V366.47H359.536ZM370.956 369.26H367.896V383H364.446V369.26H362.496V366.47H364.446V365.3C364.446 363.4 364.946 362.02 365.946 361.16C366.966 360.28 368.556 359.84 370.716 359.84V362.69C369.676 362.69 368.946 362.89 368.526 363.29C368.106 363.67 367.896 364.34 367.896 365.3V366.47H370.956V369.26ZM375.727 364.28C375.107 364.28 374.587 364.07 374.167 363.65C373.747 363.23 373.537 362.71 373.537 362.09C373.537 361.47 373.747 360.95 374.167 360.53C374.587 360.11 375.107 359.9 375.727 359.9C376.327 359.9 376.837 360.11 377.257 360.53C377.677 360.95 377.887 361.47 377.887 362.09C377.887 362.71 377.677 363.23 377.257 363.65C376.837 364.07 376.327 364.28 375.727 364.28ZM377.407 366.47V383H373.987V366.47H377.407ZM380.757 374.72C380.757 373.02 381.097 371.53 381.777 370.25C382.477 368.95 383.437 367.95 384.657 367.25C385.877 366.55 387.277 366.2 388.857 366.2C390.857 366.2 392.507 366.68 393.807 367.64C395.127 368.58 396.017 369.93 396.477 371.69H392.787C392.487 370.87 392.007 370.23 391.347 369.77C390.687 369.31 389.857 369.08 388.857 369.08C387.457 369.08 386.337 369.58 385.497 370.58C384.677 371.56 384.267 372.94 384.267 374.72C384.267 376.5 384.677 377.89 385.497 378.89C386.337 379.89 387.457 380.39 388.857 380.39C390.837 380.39 392.147 379.52 392.787 377.78H396.477C395.997 379.46 395.097 380.8 393.777 381.8C392.457 382.78 390.817 383.27 388.857 383.27C387.277 383.27 385.877 382.92 384.657 382.22C383.437 381.5 382.477 380.5 381.777 379.22C381.097 377.92 380.757 376.42 380.757 374.72ZM398.746 374.66C398.746 373 399.086 371.53 399.766 370.25C400.466 368.97 401.406 367.98 402.586 367.28C403.786 366.56 405.106 366.2 406.546 366.2C407.846 366.2 408.976 366.46 409.936 366.98C410.916 367.48 411.696 368.11 412.276 368.87V366.47H415.726V383H412.276V380.54C411.696 381.32 410.906 381.97 409.906 382.49C408.906 383.01 407.766 383.27 406.486 383.27C405.066 383.27 403.766 382.91 402.586 382.19C401.406 381.45 400.466 380.43 399.766 379.13C399.086 377.81 398.746 376.32 398.746 374.66ZM412.276 374.72C412.276 373.58 412.036 372.59 411.556 371.75C411.096 370.91 410.486 370.27 409.726 369.83C408.966 369.39 408.146 369.17 407.266 369.17C406.386 369.17 405.566 369.39 404.806 369.83C404.046 370.25 403.426 370.88 402.946 371.72C402.486 372.54 402.256 373.52 402.256 374.66C402.256 375.8 402.486 376.8 402.946 377.66C403.426 378.52 404.046 379.18 404.806 379.64C405.586 380.08 406.406 380.3 407.266 380.3C408.146 380.3 408.966 380.08 409.726 379.64C410.486 379.2 411.096 378.56 411.556 377.72C412.036 376.86 412.276 375.86 412.276 374.72ZM424.208 369.26V378.41C424.208 379.03 424.348 379.48 424.628 379.76C424.928 380.02 425.428 380.15 426.128 380.15H428.228V383H425.528C423.988 383 422.808 382.64 421.988 381.92C421.168 381.2 420.758 380.03 420.758 378.41V369.26H418.808V366.47H420.758V362.36H424.208V366.47H428.228V369.26H424.208ZM433.12 364.28C432.5 364.28 431.98 364.07 431.56 363.65C431.14 363.23 430.93 362.71 430.93 362.09C430.93 361.47 431.14 360.95 431.56 360.53C431.98 360.11 432.5 359.9 433.12 359.9C433.72 359.9 434.23 360.11 434.65 360.53C435.07 360.95 435.28 361.47 435.28 362.09C435.28 362.71 435.07 363.23 434.65 363.65C434.23 364.07 433.72 364.28 433.12 364.28ZM434.8 366.47V383H431.38V366.47H434.8ZM446.46 383.27C444.9 383.27 443.49 382.92 442.23 382.22C440.97 381.5 439.98 380.5 439.26 379.22C438.54 377.92 438.18 376.42 438.18 374.72C438.18 373.04 438.55 371.55 439.29 370.25C440.03 368.95 441.04 367.95 442.32 367.25C443.6 366.55 445.03 366.2 446.61 366.2C448.19 366.2 449.62 366.55 450.9 367.25C452.18 367.95 453.19 368.95 453.93 370.25C454.67 371.55 455.04 373.04 455.04 374.72C455.04 376.4 454.66 377.89 453.9 379.19C453.14 380.49 452.1 381.5 450.78 382.22C449.48 382.92 448.04 383.27 446.46 383.27ZM446.46 380.3C447.34 380.3 448.16 380.09 448.92 379.67C449.7 379.25 450.33 378.62 450.81 377.78C451.29 376.94 451.53 375.92 451.53 374.72C451.53 373.52 451.3 372.51 450.84 371.69C450.38 370.85 449.77 370.22 449.01 369.8C448.25 369.38 447.43 369.17 446.55 369.17C445.67 369.17 444.85 369.38 444.09 369.8C443.35 370.22 442.76 370.85 442.32 371.69C441.88 372.51 441.66 373.52 441.66 374.72C441.66 376.5 442.11 377.88 443.01 378.86C443.93 379.82 445.08 380.3 446.46 380.3ZM466.761 366.2C468.061 366.2 469.221 366.47 470.241 367.01C471.281 367.55 472.091 368.35 472.671 369.41C473.251 370.47 473.541 371.75 473.541 373.25V383H470.151V373.76C470.151 372.28 469.781 371.15 469.041 370.37C468.301 369.57 467.291 369.17 466.011 369.17C464.731 369.17 463.711 369.57 462.951 370.37C462.211 371.15 461.841 372.28 461.841 373.76V383H458.421V366.47H461.841V368.36C462.401 367.68 463.111 367.15 463.971 366.77C464.851 366.39 465.781 366.2 466.761 366.2Z" fill="white"/>
    <circle cx="367.5" cy="372.5" r="146.6" stroke="#7574BD" stroke-width="1.8"/>
</svg>
