<svg width="76" height="76" viewBox="0 0 76 76" fill="none" xmlns="http://www.w3.org/2000/svg">
    <mask id="mask0_40_1548" style="mask-type:alpha" maskUnits="userSpaceOnUse" x="0" y="0" width="76" height="76">
        <rect width="75.4552" height="75.4552" fill="#D9D9D9"/>
    </mask>
    <g mask="url(#mask0_40_1548)">
        <path d="M33.0125 69.1672V47.1594H26.7246V27.2738C26.7246 25.9769 27.1864 24.8667 28.1099 23.9432C29.0335 23.0196 30.1437 22.5579 31.4406 22.5579H44.0164C45.3133 22.5579 46.4235 23.0196 47.3471 23.9432C48.2706 24.8667 48.7324 25.9769 48.7324 27.2738V47.1594H42.4444V69.1672H33.0125ZM37.7348 17.7633C36.1586 17.7633 34.8072 17.2021 33.6806 16.0797C32.554 14.9573 31.9908 13.608 31.9908 12.0319C31.9908 10.4557 32.552 9.10431 33.6744 7.97772C34.7968 6.85114 36.1461 6.28784 37.7222 6.28784C39.2984 6.28784 40.6498 6.84904 41.7764 7.97143C42.9029 9.09388 43.4662 10.4432 43.4662 12.0193C43.4662 13.5955 42.905 14.9469 41.7826 16.0734C40.6602 17.2 39.3109 17.7633 37.7348 17.7633Z" fill="white"/>
    </g>
</svg>
