<svg width="76" height="76" viewBox="0 0 76 76" fill="none" xmlns="http://www.w3.org/2000/svg">
    <mask id="mask0_40_1553" style="mask-type:alpha" maskUnits="userSpaceOnUse" x="0" y="0" width="76" height="76">
        <rect width="75.4552" height="75.4552" fill="#D9D9D9"/>
    </mask>
    <g mask="url(#mask0_40_1553)">
        <path d="M33.6408 69.1673V51.8755H23.5801L31.5972 26.095C32.0164 24.785 32.8024 23.7763 33.9552 23.0689C35.108 22.3615 36.3655 22.0078 37.7279 22.0078C39.0903 22.0078 40.3479 22.3615 41.5007 23.0689C42.6535 23.7763 43.4395 24.785 43.8587 26.095L51.8758 51.8755H41.8151V69.1673H33.6408ZM37.7342 17.7634C36.158 17.7634 34.8067 17.2022 33.6801 16.0799C32.5535 14.9574 31.9902 13.6081 31.9902 12.032C31.9902 10.4558 32.5514 9.10443 33.6738 7.97785C34.7962 6.85126 36.1455 6.28796 37.7216 6.28796C39.2978 6.28796 40.6492 6.84916 41.7758 7.97156C42.9024 9.09401 43.4657 10.4433 43.4657 12.0194C43.4657 13.5956 42.9045 14.947 41.7821 16.0736C40.6596 17.2002 39.3103 17.7634 37.7342 17.7634Z" fill="white"/>
    </g>
</svg>
