<svg width="174" height="174" viewBox="0 0 174 174" fill="none" xmlns="http://www.w3.org/2000/svg">
    <circle cx="86.9993" cy="87" r="86.7471" transform="rotate(0.833608 86.9993 87)" fill="#7474C1"/>
    <mask id="mask0_0_1" style="mask-type:alpha" maskUnits="userSpaceOnUse" x="40" y="40" width="95" height="94">
        <rect x="40.6348" y="40.0669" width="93.8667" height="93.8667" fill="#D9D9D9"/>
    </mask>
    <g mask="url(#mask0_0_1)">
        <path d="M52.3672 122.2V114.769L58.2339 108.903V122.2H52.3672ZM68.5005 122.2V99.1247L74.3672 93.2581V122.2H68.5005ZM84.6339 122.2V93.2581L90.5005 99.2225V122.2H84.6339ZM100.767 122.2V99.2225L106.634 93.3559V122.2H100.767ZM116.901 122.2V83.4803L122.767 77.6136V122.2H116.901ZM52.3672 99.1247V90.8136L79.745 63.6314L95.3894 79.2758L122.767 51.8003V60.1114L95.3894 87.587L79.745 71.9425L52.3672 99.1247Z" fill="white"/>
    </g>
</svg>
