<svg width="40" height="40" viewBox="0 0 40 40" fill="none" xmlns="http://www.w3.org/2000/svg">
    <mask id="mask0_40_1645" style="mask-type:alpha" maskUnits="userSpaceOnUse" x="0" y="0" width="40" height="40">
        <rect width="40" height="40" fill="#D9D9D9"/>
    </mask>
    <g mask="url(#mask0_40_1645)">
        <path d="M19.4997 30.0007C16.833 29.8618 14.583 28.834 12.7497 26.9173C10.9163 25.0007 9.99967 22.6951 9.99967 20.0007C9.99967 17.2229 10.9719 14.8618 12.9163 12.9173C14.8608 10.9729 17.2219 10.0007 19.9997 10.0007C22.6941 10.0007 24.9997 10.9173 26.9163 12.7507C28.833 14.584 29.8608 16.8432 29.9997 19.5284L27.083 18.6257C26.759 16.9405 25.9441 15.5446 24.6386 14.4382C23.333 13.3317 21.7867 12.7784 19.9997 12.7784C17.9997 12.7784 16.296 13.4821 14.8885 14.8895C13.4811 16.2969 12.7774 18.0007 12.7774 20.0007C12.7774 21.7692 13.3307 23.3108 14.4372 24.6257C15.5436 25.9405 16.9395 26.7599 18.6247 27.084L19.4997 30.0007ZM21.4997 36.584C21.2497 36.621 20.9997 36.6442 20.7497 36.6534C20.4997 36.6627 20.2497 36.6673 19.9997 36.6673C17.6941 36.6673 15.5275 36.2298 13.4997 35.3548C11.4719 34.4798 9.70801 33.2923 8.20801 31.7923C6.70801 30.2923 5.52051 28.5284 4.64551 26.5007C3.77051 24.4729 3.33301 22.3062 3.33301 20.0007C3.33301 17.6951 3.77051 15.5284 4.64551 13.5007C5.52051 11.4729 6.70801 9.70898 8.20801 8.20898C9.70801 6.70898 11.4719 5.52148 13.4997 4.64648C15.5275 3.77148 17.6941 3.33398 19.9997 3.33398C22.3052 3.33398 24.4719 3.77148 26.4997 4.64648C28.5275 5.52148 30.2913 6.70898 31.7913 8.20898C33.2913 9.70898 34.4788 11.4729 35.3538 13.5007C36.2288 15.5284 36.6663 17.6951 36.6663 20.0007C36.6663 20.2507 36.6617 20.5007 36.6525 20.7507C36.6432 21.0007 36.62 21.2507 36.583 21.5007L33.8886 20.6673V20.0007C33.8886 16.1303 32.5414 12.8479 29.8469 10.1534C27.1525 7.45896 23.87 6.11174 19.9997 6.11174C16.1293 6.11174 12.8469 7.45896 10.1524 10.1534C7.45798 12.8479 6.11076 16.1303 6.11076 20.0007C6.11076 23.871 7.45798 27.1534 10.1524 29.8479C12.8469 32.5423 16.1293 33.8896 19.9997 33.8896H20.6663L21.4997 36.584ZM34.208 37.5007L27.083 30.3757L24.9997 36.6673L19.9997 20.0007L36.6663 25.0007L30.3747 27.084L37.4997 34.209L34.208 37.5007Z" fill="white"/>
    </g>
</svg>
