<svg width="650" height="199" viewBox="0 0 650 199" fill="none" xmlns="http://www.w3.org/2000/svg">
    <path d="M30.6177 163.64H4.19727V157.302H30.6177V163.64ZM23.5865 149.169H4.10849V143.115H23.5865V149.169ZM15.3833 137.557L15.9515 152.667C16.0107 154.289 15.6852 155.644 14.975 156.733C14.2766 157.811 13.0692 158.728 11.3528 159.486L6.52326 157.302C7.04409 157.195 7.43472 156.929 7.69514 156.503C7.96739 156.065 8.14495 155.544 8.22781 154.94C8.3225 154.336 8.36393 153.721 8.3521 153.094L7.81942 137.557C7.72473 135.249 8.16862 133.296 9.1511 131.698C10.1454 130.088 11.5185 128.869 13.2704 128.04C15.0223 127.2 16.9991 126.78 19.2008 126.78C21.0592 126.78 22.7105 127.04 24.1547 127.561C25.5988 128.07 26.818 128.798 27.8123 129.745C28.8185 130.68 29.5642 131.787 30.0495 133.065C30.5349 134.344 30.7479 135.746 30.6887 137.273L23.4977 137.078C23.5214 136.072 23.3438 135.267 22.965 134.663C22.5862 134.059 22.0772 133.621 21.438 133.349C20.7988 133.077 20.0945 132.941 19.3251 132.941C18.5794 132.941 17.9047 133.112 17.301 133.456C16.7091 133.787 16.2356 134.296 15.8805 134.983C15.5372 135.657 15.3715 136.516 15.3833 137.557ZM53.0431 127.277V163.64H45.3549V134.574H45.1419L36.8145 139.794V132.976L45.8166 127.277H53.0431ZM75.9435 164.439C72.8896 164.428 70.2617 163.676 68.06 162.184C65.8701 160.693 64.1834 158.533 62.9996 155.704C61.8278 152.875 61.2478 149.471 61.2596 145.494C61.2596 141.529 61.8455 138.149 63.0174 135.356C64.2011 132.562 65.8879 130.437 68.0778 128.981C70.2795 127.513 72.9014 126.78 75.9435 126.78C78.9857 126.78 81.6017 127.513 83.7915 128.981C85.9933 130.449 87.686 132.58 88.8697 135.373C90.0534 138.155 90.6393 141.529 90.6275 145.494C90.6275 149.483 90.0356 152.892 88.8519 155.721C87.68 158.55 85.9992 160.711 83.8093 162.202C81.6194 163.694 78.9975 164.439 75.9435 164.439ZM75.9435 158.065C78.0269 158.065 79.69 157.018 80.9329 154.922C82.1758 152.827 82.7913 149.684 82.7795 145.494C82.7795 142.736 82.4954 140.44 81.9272 138.605C81.3709 136.77 80.5778 135.391 79.5479 134.468C78.5299 133.544 77.3285 133.083 75.9435 133.083C73.872 133.083 72.2148 134.119 70.9719 136.19C69.729 138.262 69.1017 141.363 69.0898 145.494C69.0898 148.288 69.368 150.62 69.9244 152.49C70.4925 154.348 71.2915 155.745 72.3214 156.68C73.3512 157.603 74.5586 158.065 75.9435 158.065ZM102.937 158.669L102.741 160.622C102.587 162.184 102.291 163.741 101.854 165.292C101.427 166.854 100.978 168.269 100.504 169.535C100.042 170.802 99.6696 171.796 99.3855 172.518H94.4849C94.6625 171.82 94.9051 170.843 95.2129 169.589C95.5207 168.346 95.8107 166.949 96.0829 165.398C96.3552 163.848 96.5268 162.267 96.5978 160.657L96.6866 158.669H102.937ZM122.574 164.439C119.52 164.428 116.893 163.676 114.691 162.184C112.501 160.693 110.814 158.533 109.631 155.704C108.459 152.875 107.879 149.471 107.89 145.494C107.89 141.529 108.476 138.149 109.648 135.356C110.832 132.562 112.519 130.437 114.709 128.981C116.91 127.513 119.532 126.78 122.574 126.78C125.617 126.78 128.233 127.513 130.422 128.981C132.624 130.449 134.317 132.58 135.501 135.373C136.684 138.155 137.27 141.529 137.258 145.494C137.258 149.483 136.666 152.892 135.483 155.721C134.311 158.55 132.63 160.711 130.44 162.202C128.25 163.694 125.628 164.439 122.574 164.439ZM122.574 158.065C124.658 158.065 126.321 157.018 127.564 154.922C128.807 152.827 129.422 149.684 129.41 145.494C129.41 142.736 129.126 140.44 128.558 138.605C128.002 136.77 127.209 135.391 126.179 134.468C125.161 133.544 123.959 133.083 122.574 133.083C120.503 133.083 118.846 134.119 117.603 136.19C116.36 138.262 115.733 141.363 115.721 145.494C115.721 148.288 115.999 150.62 116.555 152.49C117.123 154.348 117.922 155.745 118.952 156.68C119.982 157.603 121.189 158.065 122.574 158.065ZM156.998 164.439C153.944 164.428 151.316 163.676 149.115 162.184C146.925 160.693 145.238 158.533 144.054 155.704C142.882 152.875 142.302 149.471 142.314 145.494C142.314 141.529 142.9 138.149 144.072 135.356C145.256 132.562 146.943 130.437 149.132 128.981C151.334 127.513 153.956 126.78 156.998 126.78C160.04 126.78 162.656 127.513 164.846 128.981C167.048 130.449 168.741 132.58 169.924 135.373C171.108 138.155 171.694 141.529 171.682 145.494C171.682 149.483 171.09 152.892 169.907 155.721C168.735 158.55 167.054 160.711 164.864 162.202C162.674 163.694 160.052 164.439 156.998 164.439ZM156.998 158.065C159.082 158.065 160.745 157.018 161.988 154.922C163.23 152.827 163.846 149.684 163.834 145.494C163.834 142.736 163.55 140.44 162.982 138.605C162.426 136.77 161.632 135.391 160.603 134.468C159.585 133.544 158.383 133.083 156.998 133.083C154.927 133.083 153.27 134.119 152.027 136.19C150.784 138.262 150.156 141.363 150.145 145.494C150.145 148.288 150.423 150.62 150.979 152.49C151.547 154.348 152.346 155.745 153.376 156.68C154.406 157.603 155.613 158.065 156.998 158.065ZM191.422 164.439C188.368 164.428 185.74 163.676 183.539 162.184C181.349 160.693 179.662 158.533 178.478 155.704C177.306 152.875 176.726 149.471 176.738 145.494C176.738 141.529 177.324 138.149 178.496 135.356C179.68 132.562 181.366 130.437 183.556 128.981C185.758 127.513 188.38 126.78 191.422 126.78C194.464 126.78 197.08 127.513 199.27 128.981C201.472 130.449 203.164 132.58 204.348 135.373C205.532 138.155 206.118 141.529 206.106 145.494C206.106 149.483 205.514 152.892 204.33 155.721C203.159 158.55 201.478 160.711 199.288 162.202C197.098 163.694 194.476 164.439 191.422 164.439ZM191.422 158.065C193.505 158.065 195.169 157.018 196.411 154.922C197.654 152.827 198.27 149.684 198.258 145.494C198.258 142.736 197.974 140.44 197.406 138.605C196.849 136.77 196.056 135.391 195.026 134.468C194.008 133.544 192.807 133.083 191.422 133.083C189.351 133.083 187.693 134.119 186.45 136.19C185.208 138.262 184.58 141.363 184.568 145.494C184.568 148.288 184.847 150.62 185.403 152.49C185.971 154.348 186.77 155.745 187.8 156.68C188.83 157.603 190.037 158.065 191.422 158.065Z" fill="white"/>
    <path d="M309.486 144.336V138.033H334.007V144.336H309.486ZM309.486 156.126V149.823H334.007V156.126H309.486Z" fill="white"/>
    <path d="M506.068 163.64H479.647V157.302H506.068V163.64ZM499.037 149.169H479.559V143.115H499.037V149.169ZM490.834 137.557L491.402 152.667C491.461 154.289 491.135 155.644 490.425 156.733C489.727 157.811 488.519 158.728 486.803 159.486L481.973 157.302C482.494 157.195 482.885 156.929 483.145 156.503C483.418 156.065 483.595 155.544 483.678 154.94C483.773 154.336 483.814 153.721 483.802 153.094L483.27 137.557C483.175 135.249 483.619 133.296 484.601 131.698C485.596 130.088 486.969 128.869 488.721 128.04C490.473 127.2 492.449 126.78 494.651 126.78C496.509 126.78 498.161 127.04 499.605 127.561C501.049 128.07 502.268 128.798 503.263 129.745C504.269 130.68 505.014 131.787 505.5 133.065C505.985 134.344 506.198 135.746 506.139 137.273L498.948 137.078C498.972 136.072 498.794 135.267 498.415 134.663C498.036 134.059 497.527 133.621 496.888 133.349C496.249 133.077 495.545 132.941 494.775 132.941C494.03 132.941 493.355 133.112 492.751 133.456C492.159 133.787 491.686 134.296 491.331 134.983C490.987 135.657 490.822 136.516 490.834 137.557ZM526.629 164.138C524.759 164.126 522.954 163.812 521.214 163.196C519.485 162.581 517.935 161.581 516.562 160.196C515.188 158.811 514.099 156.976 513.295 154.692C512.501 152.407 512.105 149.602 512.105 146.275C512.117 143.221 512.466 140.493 513.152 138.09C513.851 135.675 514.845 133.627 516.135 131.946C517.438 130.266 518.994 128.987 520.805 128.111C522.616 127.223 524.646 126.78 526.895 126.78C529.322 126.78 531.464 127.253 533.323 128.2C535.181 129.135 536.673 130.408 537.797 132.018C538.934 133.627 539.62 135.433 539.857 137.433H532.275C531.979 136.166 531.358 135.172 530.411 134.45C529.464 133.728 528.292 133.367 526.895 133.367C524.528 133.367 522.729 134.397 521.498 136.456C520.278 138.516 519.657 141.316 519.633 144.855H519.882C520.426 143.778 521.16 142.86 522.084 142.103C523.019 141.333 524.078 140.747 525.262 140.345C526.457 139.931 527.718 139.723 529.044 139.723C531.198 139.723 533.116 140.232 534.797 141.25C536.478 142.257 537.803 143.642 538.774 145.405C539.745 147.169 540.23 149.187 540.23 151.46C540.23 153.922 539.656 156.112 538.508 158.03C537.371 159.947 535.779 161.451 533.731 162.54C531.695 163.617 529.328 164.149 526.629 164.138ZM526.594 158.101C527.777 158.101 528.837 157.817 529.772 157.248C530.707 156.68 531.441 155.911 531.973 154.94C532.506 153.969 532.772 152.88 532.772 151.673C532.772 150.466 532.506 149.383 531.973 148.424C531.453 147.465 530.731 146.701 529.807 146.133C528.884 145.565 527.83 145.281 526.647 145.281C525.759 145.281 524.936 145.447 524.179 145.778C523.433 146.11 522.776 146.571 522.208 147.163C521.652 147.755 521.214 148.442 520.894 149.223C520.574 149.992 520.415 150.815 520.415 151.691C520.415 152.863 520.681 153.934 521.214 154.905C521.758 155.875 522.492 156.651 523.415 157.231C524.35 157.811 525.41 158.101 526.594 158.101ZM552.459 158.669L552.264 160.622C552.11 162.184 551.814 163.741 551.376 165.292C550.95 166.854 550.5 168.269 550.027 169.535C549.565 170.802 549.192 171.796 548.908 172.518H544.007C544.185 171.82 544.428 170.843 544.735 169.589C545.043 168.346 545.333 166.949 545.605 165.398C545.878 163.848 546.049 162.267 546.12 160.657L546.209 158.669H552.459ZM571.795 164.138C569.925 164.126 568.12 163.812 566.38 163.196C564.651 162.581 563.101 161.581 561.728 160.196C560.354 158.811 559.265 156.976 558.461 154.692C557.667 152.407 557.271 149.602 557.271 146.275C557.283 143.221 557.632 140.493 558.318 138.09C559.017 135.675 560.011 133.627 561.301 131.946C562.604 130.266 564.16 128.987 565.971 128.111C567.782 127.223 569.812 126.78 572.061 126.78C574.488 126.78 576.631 127.253 578.489 128.2C580.347 129.135 581.839 130.408 582.963 132.018C584.1 133.627 584.786 135.433 585.023 137.433H577.441C577.145 136.166 576.524 135.172 575.577 134.45C574.63 133.728 573.458 133.367 572.061 133.367C569.694 133.367 567.895 134.397 566.664 136.456C565.444 138.516 564.823 141.316 564.799 144.855H565.048C565.592 143.778 566.326 142.86 567.25 142.103C568.185 141.333 569.244 140.747 570.428 140.345C571.623 139.931 572.884 139.723 574.21 139.723C576.364 139.723 578.282 140.232 579.963 141.25C581.644 142.257 582.969 143.642 583.94 145.405C584.911 147.169 585.396 149.187 585.396 151.46C585.396 153.922 584.822 156.112 583.674 158.03C582.537 159.947 580.945 161.451 578.897 162.54C576.861 163.617 574.494 164.149 571.795 164.138ZM571.76 158.101C572.943 158.101 574.003 157.817 574.938 157.248C575.873 156.68 576.607 155.911 577.14 154.94C577.672 153.969 577.939 152.88 577.939 151.673C577.939 150.466 577.672 149.383 577.14 148.424C576.619 147.465 575.897 146.701 574.973 146.133C574.05 145.565 572.997 145.281 571.813 145.281C570.925 145.281 570.102 145.447 569.345 145.778C568.599 146.11 567.942 146.571 567.374 147.163C566.818 147.755 566.38 148.442 566.06 149.223C565.74 149.992 565.581 150.815 565.581 151.691C565.581 152.863 565.847 153.934 566.38 154.905C566.924 155.875 567.658 156.651 568.581 157.231C569.516 157.811 570.576 158.101 571.76 158.101ZM592.285 163.64L607.36 133.811V133.562H589.799V127.277H615.314V133.651L600.222 163.64H592.285ZM633.758 164.138C631.888 164.126 630.083 163.812 628.342 163.196C626.614 162.581 625.064 161.581 623.69 160.196C622.317 158.811 621.228 156.976 620.423 154.692C619.63 152.407 619.234 149.602 619.234 146.275C619.246 143.221 619.595 140.493 620.281 138.09C620.98 135.675 621.974 133.627 623.264 131.946C624.566 130.266 626.123 128.987 627.934 128.111C629.745 127.223 631.775 126.78 634.024 126.78C636.451 126.78 638.593 127.253 640.452 128.2C642.31 129.135 643.802 130.408 644.926 132.018C646.063 133.627 646.749 135.433 646.986 137.433H639.404C639.108 136.166 638.487 135.172 637.54 134.45C636.593 133.728 635.421 133.367 634.024 133.367C631.657 133.367 629.858 134.397 628.627 136.456C627.407 138.516 626.786 141.316 626.762 144.855H627.011C627.555 143.778 628.289 142.86 629.212 142.103C630.148 141.333 631.207 140.747 632.391 140.345C633.586 139.931 634.847 139.723 636.173 139.723C638.327 139.723 640.245 140.232 641.926 141.25C643.606 142.257 644.932 143.642 645.903 145.405C646.873 147.169 647.359 149.187 647.359 151.46C647.359 153.922 646.785 156.112 645.636 158.03C644.5 159.947 642.908 161.451 640.86 162.54C638.824 163.617 636.457 164.149 633.758 164.138ZM633.722 158.101C634.906 158.101 635.966 157.817 636.901 157.248C637.836 156.68 638.57 155.911 639.102 154.94C639.635 153.969 639.901 152.88 639.901 151.673C639.901 150.466 639.635 149.383 639.102 148.424C638.582 147.465 637.859 146.701 636.936 146.133C636.013 145.565 634.959 145.281 633.776 145.281C632.888 145.281 632.065 145.447 631.308 145.778C630.562 146.11 629.905 146.571 629.337 147.163C628.78 147.755 628.342 148.442 628.023 149.223C627.703 149.992 627.543 150.815 627.543 151.691C627.543 152.863 627.81 153.934 628.342 154.905C628.887 155.875 629.621 156.651 630.544 157.231C631.479 157.811 632.539 158.101 633.722 158.101Z" fill="white"/>
    <path d="M618.998 27V25.0966L624.047 20.1463C624.53 19.6586 624.933 19.2254 625.255 18.8466C625.577 18.4678 625.818 18.1009 625.979 17.7457C626.14 17.3906 626.221 17.0118 626.221 16.6094C626.221 16.1501 626.117 15.7571 625.908 15.4304C625.7 15.099 625.413 14.8433 625.049 14.6634C624.684 14.4834 624.27 14.3935 623.806 14.3935C623.328 14.3935 622.909 14.4929 622.549 14.6918C622.189 14.8859 621.91 15.1629 621.711 15.5227C621.517 15.8826 621.42 16.3111 621.42 16.8082H618.912C618.912 15.8849 619.123 15.0824 619.545 14.4006C619.966 13.7187 620.546 13.1908 621.285 12.8168C622.028 12.4427 622.88 12.2557 623.841 12.2557C624.817 12.2557 625.674 12.438 626.412 12.8026C627.151 13.1671 627.724 13.6667 628.131 14.3011C628.543 14.9356 628.749 15.66 628.749 16.4744C628.749 17.0189 628.645 17.554 628.437 18.0795C628.228 18.6051 627.861 19.1875 627.336 19.8267C626.815 20.4659 626.083 21.2401 625.141 22.1491L622.634 24.6989V24.7983H628.969V27H618.998ZM639.197 24.2727V23.5057C639.197 22.9422 639.315 22.4238 639.552 21.9503C639.793 21.4768 640.144 21.0956 640.603 20.8068C641.062 20.518 641.618 20.3736 642.272 20.3736C642.944 20.3736 643.508 20.518 643.962 20.8068C644.417 21.0909 644.76 21.4697 644.992 21.9432C645.229 22.4167 645.347 22.9375 645.347 23.5057V24.2727C645.347 24.8362 645.229 25.3546 644.992 25.8281C644.755 26.3016 644.407 26.6828 643.948 26.9716C643.493 27.2604 642.935 27.4048 642.272 27.4048C641.609 27.4048 641.048 27.2604 640.589 26.9716C640.129 26.6828 639.781 26.3016 639.545 25.8281C639.313 25.3546 639.197 24.8362 639.197 24.2727ZM641.05 23.5057V24.2727C641.05 24.6468 641.14 24.9901 641.32 25.3026C641.5 25.6151 641.817 25.7713 642.272 25.7713C642.731 25.7713 643.046 25.6174 643.216 25.3097C643.392 24.9972 643.479 24.6515 643.479 24.2727V23.5057C643.479 23.1269 643.396 22.7812 643.231 22.4688C643.065 22.1515 642.745 21.9929 642.272 21.9929C641.827 21.9929 641.512 22.1515 641.327 22.4688C641.143 22.7812 641.05 23.1269 641.05 23.5057ZM631.803 15.9489V15.1818C631.803 14.6136 631.924 14.0928 632.165 13.6193C632.407 13.1458 632.757 12.767 633.216 12.483C633.676 12.1941 634.232 12.0497 634.885 12.0497C635.553 12.0497 636.114 12.1941 636.569 12.483C637.028 12.767 637.374 13.1458 637.606 13.6193C637.838 14.0928 637.954 14.6136 637.954 15.1818V15.9489C637.954 16.517 637.835 17.0379 637.599 17.5114C637.367 17.9801 637.021 18.3565 636.562 18.6406C636.102 18.9247 635.544 19.0668 634.885 19.0668C634.218 19.0668 633.654 18.9247 633.195 18.6406C632.741 18.3565 632.395 17.9777 632.158 17.5043C631.921 17.0308 631.803 16.5123 631.803 15.9489ZM633.671 15.1818V15.9489C633.671 16.3277 633.759 16.6733 633.934 16.9858C634.114 17.2936 634.431 17.4474 634.885 17.4474C635.34 17.4474 635.653 17.2936 635.823 16.9858C635.998 16.6733 636.086 16.3277 636.086 15.9489V15.1818C636.086 14.803 636.003 14.4574 635.837 14.1449C635.671 13.8277 635.354 13.669 634.885 13.669C634.436 13.669 634.121 13.8277 633.941 14.1449C633.761 14.4621 633.671 14.8078 633.671 15.1818ZM632.613 27L642.613 12.4545H644.388L634.388 27H632.613Z" fill="white"/>
    <path d="M395.89 26.0247V14.3883H400.037C400.939 14.3883 401.687 14.5436 402.282 14.8542C402.88 15.1648 403.327 15.5947 403.623 16.144C403.918 16.6894 404.066 17.3201 404.066 18.036C404.066 18.7481 403.916 19.375 403.617 19.9167C403.322 20.4546 402.875 20.8731 402.276 21.1724C401.681 21.4716 400.933 21.6212 400.032 21.6212H396.89V20.1099H399.873C400.441 20.1099 400.903 20.0284 401.259 19.8656C401.619 19.7027 401.882 19.4659 402.049 19.1553C402.215 18.8447 402.299 18.4716 402.299 18.036C402.299 17.5966 402.214 17.2159 402.043 16.894C401.876 16.572 401.613 16.3258 401.253 16.1553C400.897 15.9811 400.43 15.894 399.85 15.894H397.645V26.0247H395.89ZM401.634 20.7747L404.509 26.0247H402.509L399.691 20.7747H401.634ZM408.606 26.2178C408.053 26.2178 407.553 26.1156 407.106 25.911C406.659 25.7027 406.305 25.4016 406.043 25.0076C405.786 24.6137 405.657 24.1307 405.657 23.5587C405.657 23.0663 405.751 22.661 405.941 22.3428C406.13 22.0247 406.386 21.7728 406.708 21.5872C407.03 21.4016 407.39 21.2614 407.787 21.1667C408.185 21.072 408.59 21 409.003 20.9508C409.526 20.8902 409.95 20.8409 410.276 20.8031C410.602 20.7614 410.839 20.6951 410.986 20.6042C411.134 20.5133 411.208 20.3656 411.208 20.161V20.1212C411.208 19.625 411.068 19.2406 410.787 18.9678C410.511 18.6951 410.098 18.5587 409.549 18.5587C408.977 18.5587 408.526 18.6856 408.197 18.9394C407.871 19.1894 407.645 19.4678 407.52 19.7747L405.924 19.411C406.113 18.8807 406.39 18.4527 406.753 18.1269C407.121 17.7974 407.543 17.5587 408.02 17.411C408.498 17.2595 409 17.1837 409.526 17.1837C409.875 17.1837 410.244 17.2254 410.634 17.3087C411.028 17.3883 411.395 17.536 411.736 17.7519C412.081 17.9678 412.363 18.2766 412.583 18.6781C412.803 19.0758 412.912 19.5928 412.912 20.2292V26.0247H411.253V24.8315H411.185C411.075 25.0512 410.911 25.2671 410.691 25.4792C410.471 25.6913 410.189 25.8675 409.844 26.0076C409.5 26.1478 409.087 26.2178 408.606 26.2178ZM408.975 24.8542C409.445 24.8542 409.846 24.7614 410.18 24.5758C410.517 24.3902 410.772 24.1478 410.947 23.8485C411.125 23.5455 411.214 23.2216 411.214 22.8769V21.7519C411.153 21.8125 411.036 21.8694 410.861 21.9224C410.691 21.9716 410.496 22.0152 410.276 22.0531C410.056 22.0872 409.842 22.1194 409.634 22.1497C409.426 22.1762 409.251 22.1989 409.111 22.2178C408.782 22.2595 408.481 22.3296 408.208 22.4281C407.939 22.5266 407.723 22.6686 407.56 22.8542C407.401 23.036 407.322 23.2784 407.322 23.5815C407.322 24.0019 407.477 24.3201 407.787 24.536C408.098 24.7481 408.494 24.8542 408.975 24.8542ZM419.249 17.2974V18.661H414.482V17.2974H419.249ZM415.76 15.2065H417.459V23.4622C417.459 23.7917 417.509 24.0398 417.607 24.2065C417.706 24.3694 417.832 24.4811 417.988 24.5417C418.147 24.5985 418.319 24.6269 418.505 24.6269C418.641 24.6269 418.76 24.6175 418.863 24.5985C418.965 24.5796 419.045 24.5644 419.101 24.5531L419.408 25.9565C419.31 25.9944 419.17 26.0322 418.988 26.0701C418.806 26.1118 418.579 26.1345 418.306 26.1383C417.859 26.1459 417.442 26.0663 417.056 25.8997C416.67 25.733 416.357 25.4754 416.118 25.1269C415.88 24.7784 415.76 24.3409 415.76 23.8144V15.2065ZM424.796 26.2008C423.936 26.2008 423.196 26.0171 422.574 25.6497C421.957 25.2784 421.48 24.7576 421.143 24.0872C420.809 23.4129 420.643 22.6231 420.643 21.7178C420.643 20.8239 420.809 20.036 421.143 19.3542C421.48 18.6724 421.949 18.1402 422.552 17.7576C423.158 17.375 423.866 17.1837 424.677 17.1837C425.169 17.1837 425.646 17.2652 426.108 17.4281C426.571 17.5909 426.985 17.8466 427.353 18.1951C427.72 18.5436 428.01 18.9962 428.222 19.5531C428.434 20.1061 428.54 20.7784 428.54 21.5701V22.1724H421.603V20.8997H426.876C426.876 20.4527 426.785 20.0569 426.603 19.7122C426.421 19.3637 426.165 19.0891 425.836 18.8883C425.51 18.6875 425.127 18.5872 424.688 18.5872C424.211 18.5872 423.794 18.7046 423.438 18.9394C423.086 19.1705 422.813 19.4735 422.62 19.8485C422.43 20.2197 422.336 20.6231 422.336 21.0587V22.0531C422.336 22.6364 422.438 23.1326 422.643 23.5417C422.851 23.9508 423.141 24.2633 423.512 24.4792C423.883 24.6913 424.317 24.7974 424.813 24.7974C425.135 24.7974 425.429 24.7519 425.694 24.661C425.959 24.5663 426.188 24.4262 426.381 24.2406C426.574 24.055 426.722 23.8258 426.824 23.5531L428.432 23.8428C428.304 24.3163 428.073 24.7311 427.739 25.0872C427.41 25.4394 426.995 25.7141 426.495 25.911C425.999 26.1042 425.432 26.2008 424.796 26.2008ZM438.336 26.2008C437.518 26.2008 436.804 26.0133 436.194 25.6383C435.584 25.2633 435.11 24.7387 434.773 24.0644C434.436 23.3902 434.268 22.6023 434.268 21.7008C434.268 20.7955 434.436 20.0038 434.773 19.3258C435.11 18.6478 435.584 18.1212 436.194 17.7462C436.804 17.3712 437.518 17.1837 438.336 17.1837C439.154 17.1837 439.868 17.3712 440.478 17.7462C441.088 18.1212 441.561 18.6478 441.898 19.3258C442.235 20.0038 442.404 20.7955 442.404 21.7008C442.404 22.6023 442.235 23.3902 441.898 24.0644C441.561 24.7387 441.088 25.2633 440.478 25.6383C439.868 26.0133 439.154 26.2008 438.336 26.2008ZM438.341 24.7747C438.872 24.7747 439.311 24.6345 439.66 24.3542C440.008 24.0739 440.266 23.7008 440.432 23.2349C440.603 22.769 440.688 22.2557 440.688 21.6951C440.688 21.1383 440.603 20.6269 440.432 20.161C440.266 19.6913 440.008 19.3144 439.66 19.0303C439.311 18.7462 438.872 18.6042 438.341 18.6042C437.807 18.6042 437.364 18.7462 437.012 19.0303C436.663 19.3144 436.404 19.6913 436.233 20.161C436.067 20.6269 435.983 21.1383 435.983 21.6951C435.983 22.2557 436.067 22.769 436.233 23.2349C436.404 23.7008 436.663 24.0739 437.012 24.3542C437.364 24.6345 437.807 24.7747 438.341 24.7747ZM448.454 17.2974V18.661H443.522V17.2974H448.454ZM444.874 26.0247V16.286C444.874 15.7406 444.993 15.2879 445.232 14.9281C445.471 14.5644 445.787 14.2936 446.181 14.1156C446.575 13.9337 447.003 13.8428 447.465 13.8428C447.806 13.8428 448.098 13.8712 448.34 13.9281C448.582 13.9811 448.762 14.0303 448.88 14.0758L448.482 15.4508C448.403 15.4281 448.3 15.4016 448.175 15.3712C448.05 15.3372 447.899 15.3201 447.721 15.3201C447.308 15.3201 447.012 15.4224 446.834 15.6269C446.66 15.8315 446.573 16.1269 446.573 16.5133V26.0247H444.874ZM454.441 26.0247V17.2974H456.14V26.0247H454.441ZM455.299 15.9508C455.003 15.9508 454.75 15.8523 454.537 15.6553C454.329 15.4546 454.225 15.2159 454.225 14.9394C454.225 14.6591 454.329 14.4205 454.537 14.2235C454.75 14.0228 455.003 13.9224 455.299 13.9224C455.594 13.9224 455.846 14.0228 456.055 14.2235C456.267 14.4205 456.373 14.6591 456.373 14.9394C456.373 15.2159 456.267 15.4546 456.055 15.6553C455.846 15.8523 455.594 15.9508 455.299 15.9508ZM460.124 20.8428V26.0247H458.425V17.2974H460.056V18.7178H460.164C460.365 18.2557 460.679 17.8845 461.107 17.6042C461.539 17.3239 462.082 17.1837 462.738 17.1837C463.332 17.1837 463.853 17.3087 464.3 17.5587C464.747 17.805 465.094 18.1724 465.34 18.661C465.586 19.1497 465.709 19.7538 465.709 20.4735V26.0247H464.01V20.6781C464.01 20.0455 463.846 19.5512 463.516 19.1951C463.187 18.8353 462.734 18.6553 462.158 18.6553C461.764 18.6553 461.414 18.7406 461.107 18.911C460.804 19.0815 460.564 19.3315 460.385 19.661C460.211 19.9868 460.124 20.3807 460.124 20.8428ZM472.141 17.2974V18.661H467.209V17.2974H472.141ZM468.562 26.0247V16.286C468.562 15.7406 468.681 15.2879 468.92 14.9281C469.158 14.5644 469.474 14.2936 469.868 14.1156C470.262 13.9337 470.69 13.8428 471.153 13.8428C471.493 13.8428 471.785 13.8712 472.028 13.9281C472.27 13.9811 472.45 14.0303 472.567 14.0758L472.17 15.4508C472.09 15.4281 471.988 15.4016 471.863 15.3712C471.738 15.3372 471.586 15.3201 471.408 15.3201C470.995 15.3201 470.7 15.4224 470.522 15.6269C470.348 15.8315 470.26 16.1269 470.26 16.5133V26.0247H468.562ZM475.593 14.3883V26.0247H473.894V14.3883H475.593ZM480.418 26.2178C479.865 26.2178 479.365 26.1156 478.918 25.911C478.471 25.7027 478.117 25.4016 477.856 25.0076C477.598 24.6137 477.469 24.1307 477.469 23.5587C477.469 23.0663 477.564 22.661 477.753 22.3428C477.943 22.0247 478.198 21.7728 478.52 21.5872C478.842 21.4016 479.202 21.2614 479.6 21.1667C479.998 21.072 480.403 21 480.816 20.9508C481.339 20.8902 481.763 20.8409 482.089 20.8031C482.414 20.7614 482.651 20.6951 482.799 20.6042C482.947 20.5133 483.02 20.3656 483.02 20.161V20.1212C483.02 19.625 482.88 19.2406 482.6 18.9678C482.323 18.6951 481.911 18.5587 481.361 18.5587C480.789 18.5587 480.339 18.6856 480.009 18.9394C479.683 19.1894 479.458 19.4678 479.333 19.7747L477.736 19.411C477.926 18.8807 478.202 18.4527 478.566 18.1269C478.933 17.7974 479.356 17.5587 479.833 17.411C480.31 17.2595 480.812 17.1837 481.339 17.1837C481.687 17.1837 482.056 17.2254 482.447 17.3087C482.84 17.3883 483.208 17.536 483.549 17.7519C483.894 17.9678 484.176 18.2766 484.395 18.6781C484.615 19.0758 484.725 19.5928 484.725 20.2292V26.0247H483.066V24.8315H482.998C482.888 25.0512 482.723 25.2671 482.503 25.4792C482.284 25.6913 482.001 25.8675 481.657 26.0076C481.312 26.1478 480.899 26.2178 480.418 26.2178ZM480.787 24.8542C481.257 24.8542 481.659 24.7614 481.992 24.5758C482.329 24.3902 482.585 24.1478 482.759 23.8485C482.937 23.5455 483.026 23.2216 483.026 22.8769V21.7519C482.965 21.8125 482.848 21.8694 482.674 21.9224C482.503 21.9716 482.308 22.0152 482.089 22.0531C481.869 22.0872 481.655 22.1194 481.447 22.1497C481.238 22.1762 481.064 22.1989 480.924 22.2178C480.594 22.2595 480.293 22.3296 480.02 22.4281C479.751 22.5266 479.536 22.6686 479.373 22.8542C479.214 23.036 479.134 23.2784 479.134 23.5815C479.134 24.0019 479.289 24.3201 479.6 24.536C479.911 24.7481 480.306 24.8542 480.787 24.8542ZM491.062 17.2974V18.661H486.295V17.2974H491.062ZM487.573 15.2065H489.272V23.4622C489.272 23.7917 489.321 24.0398 489.42 24.2065C489.518 24.3694 489.645 24.4811 489.8 24.5417C489.959 24.5985 490.132 24.6269 490.317 24.6269C490.454 24.6269 490.573 24.6175 490.675 24.5985C490.778 24.5796 490.857 24.5644 490.914 24.5531L491.221 25.9565C491.122 25.9944 490.982 26.0322 490.8 26.0701C490.618 26.1118 490.391 26.1345 490.118 26.1383C489.671 26.1459 489.255 26.0663 488.868 25.8997C488.482 25.733 488.17 25.4754 487.931 25.1269C487.692 24.7784 487.573 24.3409 487.573 23.8144V15.2065ZM492.941 26.0247V17.2974H494.64V26.0247H492.941ZM493.799 15.9508C493.503 15.9508 493.25 15.8523 493.037 15.6553C492.829 15.4546 492.725 15.2159 492.725 14.9394C492.725 14.6591 492.829 14.4205 493.037 14.2235C493.25 14.0228 493.503 13.9224 493.799 13.9224C494.094 13.9224 494.346 14.0228 494.555 14.2235C494.767 14.4205 494.873 14.6591 494.873 14.9394C494.873 15.2159 494.767 15.4546 494.555 15.6553C494.346 15.8523 494.094 15.9508 493.799 15.9508ZM500.601 26.2008C499.783 26.2008 499.069 26.0133 498.459 25.6383C497.849 25.2633 497.376 24.7387 497.039 24.0644C496.702 23.3902 496.533 22.6023 496.533 21.7008C496.533 20.7955 496.702 20.0038 497.039 19.3258C497.376 18.6478 497.849 18.1212 498.459 17.7462C499.069 17.3712 499.783 17.1837 500.601 17.1837C501.42 17.1837 502.134 17.3712 502.743 17.7462C503.353 18.1212 503.827 18.6478 504.164 19.3258C504.501 20.0038 504.67 20.7955 504.67 21.7008C504.67 22.6023 504.501 23.3902 504.164 24.0644C503.827 24.7387 503.353 25.2633 502.743 25.6383C502.134 26.0133 501.42 26.2008 500.601 26.2008ZM500.607 24.7747C501.137 24.7747 501.577 24.6345 501.925 24.3542C502.274 24.0739 502.531 23.7008 502.698 23.2349C502.868 22.769 502.954 22.2557 502.954 21.6951C502.954 21.1383 502.868 20.6269 502.698 20.161C502.531 19.6913 502.274 19.3144 501.925 19.0303C501.577 18.7462 501.137 18.6042 500.607 18.6042C500.073 18.6042 499.63 18.7462 499.278 19.0303C498.929 19.3144 498.67 19.6913 498.499 20.161C498.332 20.6269 498.249 21.1383 498.249 21.6951C498.249 22.2557 498.332 22.769 498.499 23.2349C498.67 23.7008 498.929 24.0739 499.278 24.3542C499.63 24.6345 500.073 24.7747 500.607 24.7747ZM508.265 20.8428V26.0247H506.566V17.2974H508.197V18.7178H508.305C508.505 18.2557 508.82 17.8845 509.248 17.6042C509.68 17.3239 510.223 17.1837 510.878 17.1837C511.473 17.1837 511.994 17.3087 512.441 17.5587C512.888 17.805 513.234 18.1724 513.481 18.661C513.727 19.1497 513.85 19.7538 513.85 20.4735V26.0247H512.151V20.6781C512.151 20.0455 511.986 19.5512 511.657 19.1951C511.327 18.8353 510.875 18.6553 510.299 18.6553C509.905 18.6553 509.555 18.7406 509.248 18.911C508.945 19.0815 508.704 19.3315 508.526 19.661C508.352 19.9868 508.265 20.3807 508.265 20.8428ZM520.363 26.0247V17.2974H522.062V26.0247H520.363ZM521.221 15.9508C520.925 15.9508 520.671 15.8523 520.459 15.6553C520.251 15.4546 520.147 15.2159 520.147 14.9394C520.147 14.6591 520.251 14.4205 520.459 14.2235C520.671 14.0228 520.925 13.9224 521.221 13.9224C521.516 13.9224 521.768 14.0228 521.976 14.2235C522.189 14.4205 522.295 14.6591 522.295 14.9394C522.295 15.2159 522.189 15.4546 521.976 15.6553C521.768 15.8523 521.516 15.9508 521.221 15.9508ZM526.046 20.8428V26.0247H524.347V17.2974H525.978V18.7178H526.086C526.287 18.2557 526.601 17.8845 527.029 17.6042C527.461 17.3239 528.004 17.1837 528.66 17.1837C529.254 17.1837 529.775 17.3087 530.222 17.5587C530.669 17.805 531.016 18.1724 531.262 18.661C531.508 19.1497 531.631 19.7538 531.631 20.4735V26.0247H529.932V20.6781C529.932 20.0455 529.768 19.5512 529.438 19.1951C529.108 18.8353 528.656 18.6553 528.08 18.6553C527.686 18.6553 527.336 18.7406 527.029 18.911C526.726 19.0815 526.485 19.3315 526.307 19.661C526.133 19.9868 526.046 20.3807 526.046 20.8428ZM538.121 26.0247V24.7519L542.059 20.6724C542.479 20.2292 542.826 19.8409 543.099 19.5076C543.375 19.1705 543.581 18.8504 543.718 18.5474C543.854 18.2444 543.922 17.9224 543.922 17.5815C543.922 17.1951 543.831 16.8618 543.65 16.5815C543.468 16.2974 543.22 16.0796 542.905 15.9281C542.591 15.7728 542.237 15.6951 541.843 15.6951C541.426 15.6951 541.063 15.7803 540.752 15.9508C540.441 16.1212 540.203 16.3618 540.036 16.6724C539.869 16.983 539.786 17.3466 539.786 17.7633H538.11C538.11 17.055 538.273 16.4356 538.599 15.9053C538.924 15.375 539.371 14.9641 539.939 14.6724C540.508 14.3769 541.153 14.2292 541.877 14.2292C542.608 14.2292 543.252 14.375 543.809 14.6667C544.369 14.9546 544.807 15.3485 545.121 15.8485C545.436 16.3447 545.593 16.9053 545.593 17.5303C545.593 17.9622 545.511 18.3845 545.349 18.7974C545.189 19.2103 544.911 19.6705 544.513 20.1781C544.116 20.6819 543.563 21.2936 542.854 22.0133L540.542 24.4337V24.519H545.78V26.0247H538.121ZM551.985 26.2178C551.087 26.2141 550.32 25.9773 549.684 25.5076C549.047 25.0379 548.561 24.3542 548.224 23.4565C547.886 22.5587 547.718 21.4773 547.718 20.2122C547.718 18.9508 547.886 17.8731 548.224 16.9792C548.564 16.0853 549.053 15.4034 549.689 14.9337C550.33 14.4641 551.095 14.2292 551.985 14.2292C552.875 14.2292 553.638 14.4659 554.275 14.9394C554.911 15.4091 555.398 16.0909 555.735 16.9849C556.076 17.875 556.246 18.9508 556.246 20.2122C556.246 21.4811 556.078 22.5644 555.741 23.4622C555.403 24.3561 554.917 25.0398 554.28 25.5133C553.644 25.983 552.879 26.2178 551.985 26.2178ZM551.985 24.7008C552.773 24.7008 553.388 24.3163 553.831 23.5474C554.278 22.7784 554.502 21.6667 554.502 20.2122C554.502 19.2462 554.4 18.43 554.195 17.7633C553.994 17.0928 553.705 16.5853 553.326 16.2406C552.951 15.8921 552.504 15.7178 551.985 15.7178C551.201 15.7178 550.585 16.1042 550.138 16.8769C549.691 17.6497 549.466 18.7614 549.462 20.2122C549.462 21.1819 549.563 22.0019 549.763 22.6724C549.968 23.3391 550.258 23.8447 550.633 24.1894C551.008 24.5303 551.458 24.7008 551.985 24.7008ZM563.593 29.2974C563.339 29.2974 563.108 29.2766 562.9 29.2349C562.691 29.197 562.536 29.1553 562.434 29.1099L562.843 27.7178C563.153 27.8012 563.43 27.8372 563.672 27.8258C563.915 27.8144 564.129 27.7235 564.314 27.5531C564.504 27.3826 564.671 27.1042 564.814 26.7178L565.025 26.1383L561.831 17.2974H563.65L565.86 24.0701H565.951L568.161 17.2974H569.985L566.388 27.1894C566.222 27.644 566.01 28.0284 565.752 28.3428C565.494 28.661 565.188 28.8997 564.831 29.0587C564.475 29.2178 564.063 29.2974 563.593 29.2974ZM575.046 26.2008C574.186 26.2008 573.446 26.0171 572.824 25.6497C572.207 25.2784 571.73 24.7576 571.393 24.0872C571.059 23.4129 570.893 22.6231 570.893 21.7178C570.893 20.8239 571.059 20.036 571.393 19.3542C571.73 18.6724 572.199 18.1402 572.802 17.7576C573.408 17.375 574.116 17.1837 574.927 17.1837C575.419 17.1837 575.896 17.2652 576.358 17.4281C576.821 17.5909 577.235 17.8466 577.603 18.1951C577.97 18.5436 578.26 18.9962 578.472 19.5531C578.684 20.1061 578.79 20.7784 578.79 21.5701V22.1724H571.853V20.8997H577.126C577.126 20.4527 577.035 20.0569 576.853 19.7122C576.671 19.3637 576.415 19.0891 576.086 18.8883C575.76 18.6875 575.377 18.5872 574.938 18.5872C574.461 18.5872 574.044 18.7046 573.688 18.9394C573.336 19.1705 573.063 19.4735 572.87 19.8485C572.68 20.2197 572.586 20.6231 572.586 21.0587V22.0531C572.586 22.6364 572.688 23.1326 572.893 23.5417C573.101 23.9508 573.391 24.2633 573.762 24.4792C574.133 24.6913 574.567 24.7974 575.063 24.7974C575.385 24.7974 575.679 24.7519 575.944 24.661C576.209 24.5663 576.438 24.4262 576.631 24.2406C576.824 24.055 576.972 23.8258 577.074 23.5531L578.682 23.8428C578.554 24.3163 578.323 24.7311 577.989 25.0872C577.66 25.4394 577.245 25.7141 576.745 25.911C576.249 26.1042 575.682 26.2008 575.046 26.2008ZM583.215 26.2178C582.662 26.2178 582.162 26.1156 581.715 25.911C581.268 25.7027 580.914 25.4016 580.653 25.0076C580.395 24.6137 580.266 24.1307 580.266 23.5587C580.266 23.0663 580.361 22.661 580.55 22.3428C580.74 22.0247 580.995 21.7728 581.317 21.5872C581.639 21.4016 581.999 21.2614 582.397 21.1667C582.795 21.072 583.2 21 583.613 20.9508C584.135 20.8902 584.56 20.8409 584.885 20.8031C585.211 20.7614 585.448 20.6951 585.596 20.6042C585.743 20.5133 585.817 20.3656 585.817 20.161V20.1212C585.817 19.625 585.677 19.2406 585.397 18.9678C585.12 18.6951 584.707 18.5587 584.158 18.5587C583.586 18.5587 583.135 18.6856 582.806 18.9394C582.48 19.1894 582.255 19.4678 582.13 19.7747L580.533 19.411C580.723 18.8807 580.999 18.4527 581.363 18.1269C581.73 17.7974 582.153 17.5587 582.63 17.411C583.107 17.2595 583.609 17.1837 584.135 17.1837C584.484 17.1837 584.853 17.2254 585.243 17.3087C585.637 17.3883 586.005 17.536 586.346 17.7519C586.69 17.9678 586.973 18.2766 587.192 18.6781C587.412 19.0758 587.522 19.5928 587.522 20.2292V26.0247H585.863V24.8315H585.795C585.685 25.0512 585.52 25.2671 585.3 25.4792C585.081 25.6913 584.798 25.8675 584.454 26.0076C584.109 26.1478 583.696 26.2178 583.215 26.2178ZM583.584 24.8542C584.054 24.8542 584.456 24.7614 584.789 24.5758C585.126 24.3902 585.382 24.1478 585.556 23.8485C585.734 23.5455 585.823 23.2216 585.823 22.8769V21.7519C585.762 21.8125 585.645 21.8694 585.471 21.9224C585.3 21.9716 585.105 22.0152 584.885 22.0531C584.666 22.0872 584.452 22.1194 584.243 22.1497C584.035 22.1762 583.861 22.1989 583.721 22.2178C583.391 22.2595 583.09 22.3296 582.817 22.4281C582.548 22.5266 582.332 22.6686 582.17 22.8542C582.01 23.036 581.931 23.2784 581.931 23.5815C581.931 24.0019 582.086 24.3201 582.397 24.536C582.707 24.7481 583.103 24.8542 583.584 24.8542ZM589.785 26.0247V17.2974H591.427V18.6837H591.518C591.677 18.2141 591.957 17.8447 592.358 17.5758C592.764 17.3031 593.222 17.1667 593.733 17.1667C593.84 17.1667 593.965 17.1705 594.108 17.1781C594.256 17.1856 594.372 17.1951 594.455 17.2065V18.8315C594.387 18.8125 594.266 18.7917 594.091 18.769C593.917 18.7425 593.743 18.7292 593.569 18.7292C593.167 18.7292 592.809 18.8144 592.495 18.9849C592.184 19.1516 591.938 19.3845 591.756 19.6837C591.574 19.9792 591.483 20.3163 591.483 20.6951V26.0247H589.785ZM602.465 19.4281L600.925 19.7008C600.861 19.5038 600.759 19.3163 600.618 19.1383C600.482 18.9603 600.296 18.8144 600.062 18.7008C599.827 18.5872 599.533 18.5303 599.181 18.5303C598.7 18.5303 598.298 18.6383 597.976 18.8542C597.654 19.0663 597.493 19.3409 597.493 19.6781C597.493 19.9697 597.601 20.2046 597.817 20.3826C598.033 20.5606 598.382 20.7065 598.863 20.8201L600.249 21.1383C601.052 21.3239 601.651 21.6099 602.045 21.9962C602.439 22.3826 602.635 22.8845 602.635 23.5019C602.635 24.0247 602.484 24.4906 602.181 24.8997C601.882 25.305 601.463 25.6231 600.925 25.8542C600.391 26.0853 599.772 26.2008 599.067 26.2008C598.09 26.2008 597.293 25.9925 596.675 25.5758C596.058 25.1553 595.679 24.5587 595.539 23.786L597.181 23.536C597.283 23.9641 597.493 24.2879 597.812 24.5076C598.13 24.7235 598.545 24.8315 599.056 24.8315C599.613 24.8315 600.058 24.7159 600.391 24.4849C600.724 24.25 600.891 23.9641 600.891 23.6269C600.891 23.3542 600.789 23.125 600.584 22.9394C600.384 22.7538 600.075 22.6137 599.658 22.519L598.181 22.1951C597.367 22.0095 596.764 21.7141 596.374 21.3087C595.988 20.9034 595.795 20.3902 595.795 19.769C595.795 19.2538 595.939 18.8031 596.226 18.4167C596.514 18.0303 596.912 17.7292 597.42 17.5133C597.927 17.2936 598.509 17.1837 599.164 17.1837C600.107 17.1837 600.849 17.3883 601.391 17.7974C601.933 18.2027 602.291 18.7462 602.465 19.4281ZM605.623 26.1326C605.312 26.1326 605.045 26.0228 604.822 25.8031C604.598 25.5796 604.486 25.3106 604.486 24.9962C604.486 24.6856 604.598 24.4205 604.822 24.2008C605.045 23.9773 605.312 23.8656 605.623 23.8656C605.933 23.8656 606.2 23.9773 606.424 24.2008C606.647 24.4205 606.759 24.6856 606.759 24.9962C606.759 25.2046 606.706 25.3959 606.6 25.5701C606.498 25.7406 606.361 25.8769 606.191 25.9792C606.02 26.0815 605.831 26.1326 605.623 26.1326ZM605.623 19.7803C605.312 19.7803 605.045 19.6686 604.822 19.4451C604.598 19.2216 604.486 18.9546 604.486 18.644C604.486 18.3334 604.598 18.0682 604.822 17.8485C605.045 17.625 605.312 17.5133 605.623 17.5133C605.933 17.5133 606.2 17.625 606.424 17.8485C606.647 18.0682 606.759 18.3334 606.759 18.644C606.759 18.8523 606.706 19.0436 606.6 19.2178C606.498 19.3883 606.361 19.5247 606.191 19.6269C606.02 19.7292 605.831 19.7803 605.623 19.7803Z" fill="white"/>
    <path d="M3.71573 183.216V194.852H1.96005V183.216H3.71573ZM7.83505 189.67V194.852H6.13619V186.125H7.76687V187.545H7.87482C8.07558 187.083 8.38997 186.712 8.818 186.432C9.24982 186.151 9.79338 186.011 10.4487 186.011C11.0434 186.011 11.5642 186.136 12.0112 186.386C12.4582 186.632 12.8047 187 13.051 187.488C13.2972 187.977 13.4203 188.581 13.4203 189.301V194.852H11.7214V189.505C11.7214 188.873 11.5566 188.379 11.2271 188.023C10.8975 187.663 10.4449 187.483 9.86914 187.483C9.4752 187.483 9.12482 187.568 8.818 187.738C8.51497 187.909 8.27444 188.159 8.09641 188.488C7.92217 188.814 7.83505 189.208 7.83505 189.67ZM19.3748 195.028C18.5301 195.028 17.8029 194.837 17.193 194.454C16.5869 194.068 16.121 193.536 15.7953 192.858C15.4695 192.18 15.3066 191.403 15.3066 190.528C15.3066 189.642 15.4733 188.86 15.8066 188.182C16.14 187.5 16.6097 186.968 17.2157 186.585C17.8218 186.202 18.5358 186.011 19.3578 186.011C20.0207 186.011 20.6116 186.134 21.1305 186.38C21.6494 186.623 22.068 186.964 22.3862 187.403C22.7082 187.843 22.8994 188.356 22.96 188.943H21.3066C21.2157 188.534 21.0074 188.182 20.6816 187.886C20.3597 187.591 19.9279 187.443 19.3862 187.443C18.9127 187.443 18.4979 187.568 18.1419 187.818C17.7896 188.064 17.515 188.416 17.318 188.875C17.121 189.329 17.0225 189.867 17.0225 190.488C17.0225 191.125 17.1191 191.674 17.3123 192.136C17.5055 192.598 17.7782 192.956 18.1305 193.21C18.4866 193.464 18.9051 193.591 19.3862 193.591C19.7082 193.591 19.9998 193.532 20.2612 193.415C20.5263 193.293 20.7479 193.121 20.926 192.898C21.1078 192.674 21.2347 192.405 21.3066 192.091H22.96C22.8994 192.655 22.7157 193.159 22.4089 193.602C22.1021 194.045 21.6911 194.394 21.176 194.648C20.6646 194.901 20.0642 195.028 19.3748 195.028ZM28.4529 195.028C27.6348 195.028 26.9208 194.841 26.3109 194.466C25.7011 194.091 25.2276 193.566 24.8904 192.892C24.5533 192.218 24.3848 191.43 24.3848 190.528C24.3848 189.623 24.5533 188.831 24.8904 188.153C25.2276 187.475 25.7011 186.949 26.3109 186.574C26.9208 186.199 27.6348 186.011 28.4529 186.011C29.2711 186.011 29.9851 186.199 30.595 186.574C31.2048 186.949 31.6783 187.475 32.0154 188.153C32.3526 188.831 32.5211 189.623 32.5211 190.528C32.5211 191.43 32.3526 192.218 32.0154 192.892C31.6783 193.566 31.2048 194.091 30.595 194.466C29.9851 194.841 29.2711 195.028 28.4529 195.028ZM28.4586 193.602C28.9889 193.602 29.4283 193.462 29.7768 193.182C30.1253 192.901 30.3829 192.528 30.5495 192.062C30.72 191.596 30.8052 191.083 30.8052 190.523C30.8052 189.966 30.72 189.454 30.5495 188.988C30.3829 188.519 30.1253 188.142 29.7768 187.858C29.4283 187.574 28.9889 187.432 28.4586 187.432C27.9245 187.432 27.4814 187.574 27.1291 187.858C26.7806 188.142 26.5211 188.519 26.3507 188.988C26.184 189.454 26.1007 189.966 26.1007 190.523C26.1007 191.083 26.184 191.596 26.3507 192.062C26.5211 192.528 26.7806 192.901 27.1291 193.182C27.4814 193.462 27.9245 193.602 28.4586 193.602ZM34.4174 194.852V186.125H36.0481V187.545H36.1561C36.3379 187.064 36.6352 186.689 37.0481 186.42C37.461 186.148 37.9553 186.011 38.5311 186.011C39.1144 186.011 39.603 186.148 39.997 186.42C40.3947 186.693 40.6883 187.068 40.8777 187.545H40.9686C41.1769 187.079 41.5083 186.708 41.9629 186.432C42.4174 186.151 42.9591 186.011 43.5879 186.011C44.3796 186.011 45.0254 186.259 45.5254 186.755C46.0292 187.252 46.2811 188 46.2811 189V194.852H44.5822V189.159C44.5822 188.568 44.4212 188.14 44.0993 187.875C43.7773 187.61 43.3928 187.477 42.9458 187.477C42.3928 187.477 41.9629 187.648 41.6561 187.988C41.3493 188.326 41.1958 188.759 41.1958 189.29V194.852H39.5027V189.051C39.5027 188.577 39.3549 188.197 39.0595 187.909C38.764 187.621 38.3796 187.477 37.9061 187.477C37.5841 187.477 37.2868 187.562 37.014 187.733C36.7451 187.899 36.5273 188.132 36.3606 188.432C36.1977 188.731 36.1163 189.077 36.1163 189.471V194.852H34.4174ZM52.3194 195.028C51.4596 195.028 50.719 194.844 50.0978 194.477C49.4804 194.106 49.0031 193.585 48.666 192.915C48.3327 192.24 48.166 191.451 48.166 190.545C48.166 189.651 48.3327 188.863 48.666 188.182C49.0031 187.5 49.4728 186.968 50.0751 186.585C50.6812 186.202 51.3895 186.011 52.2001 186.011C52.6925 186.011 53.1698 186.093 53.6319 186.255C54.094 186.418 54.5088 186.674 54.8762 187.023C55.2437 187.371 55.5334 187.824 55.7456 188.38C55.9577 188.933 56.0637 189.606 56.0637 190.398V191H49.1262V189.727H54.399C54.399 189.28 54.3081 188.884 54.1262 188.54C53.9444 188.191 53.6887 187.916 53.3592 187.716C53.0334 187.515 52.6509 187.415 52.2115 187.415C51.7342 187.415 51.3175 187.532 50.9615 187.767C50.6092 187.998 50.3365 188.301 50.1433 188.676C49.9539 189.047 49.8592 189.451 49.8592 189.886V190.88C49.8592 191.464 49.9615 191.96 50.166 192.369C50.3743 192.778 50.6641 193.091 51.0353 193.307C51.4065 193.519 51.8403 193.625 52.3365 193.625C52.6584 193.625 52.952 193.579 53.2172 193.488C53.4823 193.394 53.7115 193.254 53.9047 193.068C54.0978 192.882 54.2456 192.653 54.3478 192.38L55.9558 192.67C55.827 193.144 55.5959 193.558 55.2626 193.915C54.9331 194.267 54.5183 194.541 54.0183 194.738C53.5221 194.932 52.9558 195.028 52.3194 195.028ZM66.2569 186.125V187.488H61.4899V186.125H66.2569ZM62.7683 184.034H64.4672V192.29C64.4672 192.619 64.5164 192.867 64.6149 193.034C64.7134 193.197 64.8403 193.308 64.9956 193.369C65.1547 193.426 65.327 193.454 65.5126 193.454C65.649 193.454 65.7683 193.445 65.8706 193.426C65.9728 193.407 66.0524 193.392 66.1092 193.38L66.416 194.784C66.3175 194.822 66.1774 194.86 65.9956 194.898C65.8137 194.939 65.5865 194.962 65.3137 194.966C64.8668 194.973 64.4501 194.894 64.0637 194.727C63.6774 194.56 63.3649 194.303 63.1262 193.954C62.8876 193.606 62.7683 193.168 62.7683 192.642V184.034ZM71.7186 195.028C70.9004 195.028 70.1864 194.841 69.5765 194.466C68.9667 194.091 68.4932 193.566 68.1561 192.892C67.819 192.218 67.6504 191.43 67.6504 190.528C67.6504 189.623 67.819 188.831 68.1561 188.153C68.4932 187.475 68.9667 186.949 69.5765 186.574C70.1864 186.199 70.9004 186.011 71.7186 186.011C72.5368 186.011 73.2508 186.199 73.8606 186.574C74.4705 186.949 74.944 187.475 75.2811 188.153C75.6182 188.831 75.7868 189.623 75.7868 190.528C75.7868 191.43 75.6182 192.218 75.2811 192.892C74.944 193.566 74.4705 194.091 73.8606 194.466C73.2508 194.841 72.5368 195.028 71.7186 195.028ZM71.7243 193.602C72.2546 193.602 72.694 193.462 73.0424 193.182C73.3909 192.901 73.6485 192.528 73.8152 192.062C73.9856 191.596 74.0708 191.083 74.0708 190.523C74.0708 189.966 73.9856 189.454 73.8152 188.988C73.6485 188.519 73.3909 188.142 73.0424 187.858C72.694 187.574 72.2546 187.432 71.7243 187.432C71.1902 187.432 70.747 187.574 70.3947 187.858C70.0462 188.142 69.7868 188.519 69.6163 188.988C69.4496 189.454 69.3663 189.966 69.3663 190.523C69.3663 191.083 69.4496 191.596 69.6163 192.062C69.7868 192.528 70.0462 192.901 70.3947 193.182C70.747 193.462 71.1902 193.602 71.7243 193.602ZM80.9501 195.023C80.2456 195.023 79.6168 194.843 79.0637 194.483C78.5145 194.119 78.0827 193.602 77.7683 192.932C77.4577 192.257 77.3024 191.449 77.3024 190.505C77.3024 189.562 77.4596 188.755 77.774 188.085C78.0922 187.415 78.5278 186.901 79.0808 186.545C79.6338 186.189 80.2607 186.011 80.9615 186.011C81.5031 186.011 81.9387 186.102 82.2683 186.284C82.6016 186.462 82.8592 186.67 83.041 186.909C83.2266 187.148 83.3706 187.358 83.4728 187.54H83.5751V183.216H85.274V194.852H83.6149V193.494H83.4728C83.3706 193.68 83.2228 193.892 83.0297 194.13C82.8403 194.369 82.5789 194.577 82.2456 194.755C81.9122 194.933 81.4804 195.023 80.9501 195.023ZM81.3251 193.574C81.8137 193.574 82.2266 193.445 82.5637 193.187C82.9047 192.926 83.1622 192.564 83.3365 192.102C83.5145 191.64 83.6035 191.102 83.6035 190.488C83.6035 189.882 83.5164 189.352 83.3422 188.898C83.1679 188.443 82.9122 188.089 82.5751 187.835C82.238 187.581 81.8213 187.454 81.3251 187.454C80.8137 187.454 80.3876 187.587 80.0467 187.852C79.7058 188.117 79.4482 188.479 79.274 188.937C79.1035 189.396 79.0183 189.913 79.0183 190.488C79.0183 191.072 79.1054 191.596 79.2797 192.062C79.4539 192.528 79.7115 192.898 80.0524 193.17C80.3971 193.439 80.8213 193.574 81.3251 193.574ZM90.2385 195.045C89.6854 195.045 89.1854 194.943 88.7385 194.738C88.2915 194.53 87.9373 194.229 87.676 193.835C87.4184 193.441 87.2896 192.958 87.2896 192.386C87.2896 191.894 87.3843 191.488 87.5737 191.17C87.7631 190.852 88.0188 190.6 88.3407 190.415C88.6627 190.229 89.0225 190.089 89.4203 189.994C89.818 189.899 90.2233 189.827 90.6362 189.778C91.1589 189.718 91.5832 189.668 91.9089 189.63C92.2347 189.589 92.4714 189.523 92.6191 189.432C92.7669 189.341 92.8407 189.193 92.8407 188.988V188.949C92.8407 188.452 92.7006 188.068 92.4203 187.795C92.1438 187.523 91.7309 187.386 91.1816 187.386C90.6097 187.386 90.1589 187.513 89.8294 187.767C89.5036 188.017 89.2782 188.295 89.1532 188.602L87.5566 188.238C87.746 187.708 88.0225 187.28 88.3862 186.954C88.7536 186.625 89.176 186.386 89.6532 186.238C90.1305 186.087 90.6324 186.011 91.1589 186.011C91.5074 186.011 91.8767 186.053 92.2669 186.136C92.6608 186.216 93.0282 186.363 93.3691 186.579C93.7138 186.795 93.996 187.104 94.2157 187.505C94.4354 187.903 94.5453 188.42 94.5453 189.057V194.852H92.8862V193.659H92.818C92.7082 193.879 92.5434 194.094 92.3237 194.307C92.104 194.519 91.8218 194.695 91.4771 194.835C91.1324 194.975 90.7195 195.045 90.2385 195.045ZM90.6078 193.682C91.0775 193.682 91.479 193.589 91.8123 193.403C92.1494 193.218 92.4051 192.975 92.5794 192.676C92.7574 192.373 92.8464 192.049 92.8464 191.704V190.579C92.7858 190.64 92.6684 190.697 92.4941 190.75C92.3237 190.799 92.1286 190.843 91.9089 190.88C91.6892 190.915 91.4752 190.947 91.2669 190.977C91.0585 191.004 90.8843 191.026 90.7441 191.045C90.4146 191.087 90.1135 191.157 89.8407 191.255C89.5718 191.354 89.3559 191.496 89.193 191.682C89.0339 191.863 88.9544 192.106 88.9544 192.409C88.9544 192.829 89.1097 193.148 89.4203 193.363C89.7309 193.576 90.1267 193.682 90.6078 193.682ZM97.5694 198.125C97.3156 198.125 97.0846 198.104 96.8762 198.062C96.6679 198.024 96.5126 197.983 96.4103 197.937L96.8194 196.545C97.13 196.629 97.4065 196.665 97.649 196.653C97.8914 196.642 98.1054 196.551 98.291 196.38C98.4804 196.21 98.6471 195.932 98.791 195.545L99.0012 194.966L95.8081 186.125H97.6262L99.8365 192.898H99.9274L102.138 186.125H103.961L100.365 196.017C100.198 196.471 99.9861 196.856 99.7285 197.17C99.4709 197.488 99.1641 197.727 98.8081 197.886C98.452 198.045 98.0391 198.125 97.5694 198.125Z" fill="white"/>
    <path d="M387.719 194.852V183.216H391.867C392.772 183.216 393.522 183.38 394.117 183.71C394.712 184.04 395.157 184.49 395.452 185.062C395.748 185.63 395.896 186.271 395.896 186.983C395.896 187.699 395.746 188.343 395.447 188.915C395.151 189.483 394.704 189.933 394.106 190.267C393.511 190.596 392.763 190.761 391.861 190.761H389.009V189.273H391.702C392.274 189.273 392.738 189.174 393.094 188.977C393.451 188.776 393.712 188.504 393.879 188.159C394.045 187.814 394.129 187.422 394.129 186.983C394.129 186.543 394.045 186.153 393.879 185.812C393.712 185.471 393.449 185.204 393.089 185.011C392.733 184.818 392.263 184.721 391.68 184.721H389.475V194.852H387.719ZM403.346 191.233V186.125H405.05V194.852H403.38V193.341H403.289C403.088 193.807 402.766 194.195 402.323 194.505C401.884 194.812 401.336 194.966 400.681 194.966C400.12 194.966 399.624 194.843 399.192 194.596C398.764 194.346 398.427 193.977 398.181 193.488C397.939 193 397.817 192.396 397.817 191.676V186.125H399.516V191.471C399.516 192.066 399.681 192.54 400.011 192.892C400.34 193.244 400.768 193.42 401.295 193.42C401.613 193.42 401.929 193.341 402.244 193.182C402.562 193.023 402.825 192.782 403.033 192.46C403.245 192.138 403.35 191.729 403.346 191.233ZM407.333 194.852V186.125H408.975V187.511H409.066C409.225 187.041 409.505 186.672 409.907 186.403C410.312 186.13 410.771 185.994 411.282 185.994C411.388 185.994 411.513 185.998 411.657 186.005C411.805 186.013 411.92 186.023 412.004 186.034V187.659C411.935 187.64 411.814 187.619 411.64 187.596C411.466 187.57 411.291 187.557 411.117 187.557C410.716 187.557 410.358 187.642 410.043 187.812C409.733 187.979 409.486 188.212 409.305 188.511C409.123 188.807 409.032 189.144 409.032 189.523V194.852H407.333ZM416.837 195.028C415.993 195.028 415.265 194.837 414.656 194.454C414.049 194.068 413.584 193.536 413.258 192.858C412.932 192.18 412.769 191.403 412.769 190.528C412.769 189.642 412.936 188.86 413.269 188.182C413.602 187.5 414.072 186.968 414.678 186.585C415.284 186.202 415.998 186.011 416.82 186.011C417.483 186.011 418.074 186.134 418.593 186.38C419.112 186.623 419.531 186.964 419.849 187.403C420.171 187.843 420.362 188.356 420.423 188.943H418.769C418.678 188.534 418.47 188.182 418.144 187.886C417.822 187.591 417.39 187.443 416.849 187.443C416.375 187.443 415.96 187.568 415.604 187.818C415.252 188.064 414.977 188.416 414.781 188.875C414.584 189.329 414.485 189.867 414.485 190.488C414.485 191.125 414.582 191.674 414.775 192.136C414.968 192.598 415.241 192.956 415.593 193.21C415.949 193.464 416.368 193.591 416.849 193.591C417.171 193.591 417.462 193.532 417.724 193.415C417.989 193.293 418.21 193.121 418.388 192.898C418.57 192.674 418.697 192.405 418.769 192.091H420.423C420.362 192.655 420.178 193.159 419.871 193.602C419.565 194.045 419.154 194.394 418.638 194.648C418.127 194.901 417.527 195.028 416.837 195.028ZM423.938 189.67V194.852H422.239V183.216H423.915V187.545H424.023C424.228 187.076 424.54 186.702 424.961 186.426C425.381 186.149 425.931 186.011 426.609 186.011C427.207 186.011 427.73 186.134 428.177 186.38C428.628 186.627 428.976 186.994 429.222 187.483C429.472 187.968 429.597 188.574 429.597 189.301V194.852H427.898V189.505C427.898 188.865 427.734 188.369 427.404 188.017C427.075 187.661 426.616 187.483 426.029 187.483C425.628 187.483 425.268 187.568 424.95 187.738C424.635 187.909 424.387 188.159 424.205 188.488C424.027 188.814 423.938 189.208 423.938 189.67ZM434.404 195.045C433.851 195.045 433.351 194.943 432.904 194.738C432.457 194.53 432.103 194.229 431.842 193.835C431.584 193.441 431.455 192.958 431.455 192.386C431.455 191.894 431.55 191.488 431.739 191.17C431.929 190.852 432.184 190.6 432.506 190.415C432.828 190.229 433.188 190.089 433.586 189.994C433.984 189.899 434.389 189.827 434.802 189.778C435.325 189.718 435.749 189.668 436.075 189.63C436.4 189.589 436.637 189.523 436.785 189.432C436.933 189.341 437.006 189.193 437.006 188.988V188.949C437.006 188.452 436.866 188.068 436.586 187.795C436.309 187.523 435.897 187.386 435.347 187.386C434.775 187.386 434.325 187.513 433.995 187.767C433.669 188.017 433.444 188.295 433.319 188.602L431.722 188.238C431.912 187.708 432.188 187.28 432.552 186.954C432.919 186.625 433.342 186.386 433.819 186.238C434.296 186.087 434.798 186.011 435.325 186.011C435.673 186.011 436.042 186.053 436.433 186.136C436.826 186.216 437.194 186.363 437.535 186.579C437.879 186.795 438.162 187.104 438.381 187.505C438.601 187.903 438.711 188.42 438.711 189.057V194.852H437.052V193.659H436.984C436.874 193.879 436.709 194.094 436.489 194.307C436.27 194.519 435.987 194.695 435.643 194.835C435.298 194.975 434.885 195.045 434.404 195.045ZM434.773 193.682C435.243 193.682 435.645 193.589 435.978 193.403C436.315 193.218 436.571 192.975 436.745 192.676C436.923 192.373 437.012 192.049 437.012 191.704V190.579C436.951 190.64 436.834 190.697 436.66 190.75C436.489 190.799 436.294 190.843 436.075 190.88C435.855 190.915 435.641 190.947 435.433 190.977C435.224 191.004 435.05 191.026 434.91 191.045C434.58 191.087 434.279 191.157 434.006 191.255C433.737 191.354 433.522 191.496 433.359 191.682C433.2 191.863 433.12 192.106 433.12 192.409C433.12 192.829 433.275 193.148 433.586 193.363C433.897 193.576 434.292 193.682 434.773 193.682ZM447.513 188.255L445.974 188.528C445.909 188.331 445.807 188.144 445.667 187.966C445.531 187.788 445.345 187.642 445.11 187.528C444.875 187.415 444.582 187.358 444.229 187.358C443.748 187.358 443.347 187.466 443.025 187.682C442.703 187.894 442.542 188.168 442.542 188.505C442.542 188.797 442.65 189.032 442.866 189.21C443.082 189.388 443.43 189.534 443.911 189.648L445.298 189.966C446.101 190.151 446.699 190.437 447.093 190.824C447.487 191.21 447.684 191.712 447.684 192.329C447.684 192.852 447.532 193.318 447.229 193.727C446.93 194.132 446.512 194.451 445.974 194.682C445.44 194.913 444.82 195.028 444.116 195.028C443.138 195.028 442.341 194.82 441.724 194.403C441.106 193.983 440.727 193.386 440.587 192.613L442.229 192.363C442.332 192.791 442.542 193.115 442.86 193.335C443.178 193.551 443.593 193.659 444.104 193.659C444.661 193.659 445.106 193.543 445.44 193.312C445.773 193.077 445.94 192.791 445.94 192.454C445.94 192.182 445.837 191.952 445.633 191.767C445.432 191.581 445.123 191.441 444.707 191.346L443.229 191.023C442.415 190.837 441.813 190.541 441.423 190.136C441.036 189.731 440.843 189.218 440.843 188.596C440.843 188.081 440.987 187.63 441.275 187.244C441.563 186.858 441.96 186.557 442.468 186.341C442.976 186.121 443.557 186.011 444.212 186.011C445.156 186.011 445.898 186.216 446.44 186.625C446.981 187.03 447.339 187.574 447.513 188.255ZM449.552 194.852V186.125H451.251V194.852H449.552ZM450.41 184.778C450.114 184.778 449.861 184.68 449.648 184.483C449.44 184.282 449.336 184.043 449.336 183.767C449.336 183.487 449.44 183.248 449.648 183.051C449.861 182.85 450.114 182.75 450.41 182.75C450.705 182.75 450.957 182.85 451.165 183.051C451.378 183.248 451.484 183.487 451.484 183.767C451.484 184.043 451.378 184.282 451.165 184.483C450.957 184.68 450.705 184.778 450.41 184.778ZM455.235 189.67V194.852H453.536V186.125H455.167V187.545H455.275C455.476 187.083 455.79 186.712 456.218 186.432C456.65 186.151 457.193 186.011 457.849 186.011C458.443 186.011 458.964 186.136 459.411 186.386C459.858 186.632 460.205 187 460.451 187.488C460.697 187.977 460.82 188.581 460.82 189.301V194.852H459.121V189.505C459.121 188.873 458.957 188.379 458.627 188.023C458.298 187.663 457.845 187.483 457.269 187.483C456.875 187.483 456.525 187.568 456.218 187.738C455.915 187.909 455.674 188.159 455.496 188.488C455.322 188.814 455.235 189.208 455.235 189.67ZM466.758 198.307C466.065 198.307 465.468 198.216 464.968 198.034C464.472 197.852 464.067 197.612 463.752 197.312C463.438 197.013 463.203 196.685 463.048 196.329L464.508 195.727C464.61 195.894 464.746 196.07 464.917 196.255C465.091 196.445 465.326 196.606 465.621 196.738C465.921 196.871 466.305 196.937 466.775 196.937C467.419 196.937 467.951 196.78 468.371 196.466C468.792 196.155 469.002 195.659 469.002 194.977V193.261H468.894C468.792 193.447 468.644 193.653 468.451 193.88C468.262 194.108 468 194.305 467.667 194.471C467.334 194.638 466.9 194.721 466.366 194.721C465.676 194.721 465.055 194.56 464.502 194.238C463.953 193.913 463.517 193.433 463.195 192.801C462.877 192.165 462.718 191.382 462.718 190.454C462.718 189.526 462.875 188.731 463.19 188.068C463.508 187.405 463.943 186.898 464.496 186.545C465.049 186.189 465.676 186.011 466.377 186.011C466.919 186.011 467.356 186.102 467.69 186.284C468.023 186.462 468.282 186.67 468.468 186.909C468.657 187.148 468.803 187.358 468.906 187.54H469.031V186.125H470.695V195.045C470.695 195.795 470.521 196.411 470.173 196.892C469.824 197.373 469.352 197.729 468.758 197.96C468.167 198.191 467.5 198.307 466.758 198.307ZM466.741 193.312C467.229 193.312 467.642 193.199 467.979 192.971C468.32 192.74 468.578 192.411 468.752 191.983C468.93 191.551 469.019 191.034 469.019 190.432C469.019 189.844 468.932 189.327 468.758 188.88C468.584 188.433 468.328 188.085 467.991 187.835C467.654 187.581 467.237 187.454 466.741 187.454C466.229 187.454 465.803 187.587 465.462 187.852C465.121 188.113 464.864 188.469 464.69 188.92C464.519 189.371 464.434 189.875 464.434 190.432C464.434 191.004 464.521 191.505 464.695 191.937C464.87 192.369 465.127 192.706 465.468 192.949C465.813 193.191 466.237 193.312 466.741 193.312ZM477.208 198.125V186.125H478.867V187.54H479.009C479.108 187.358 479.25 187.148 479.435 186.909C479.621 186.67 479.879 186.462 480.208 186.284C480.538 186.102 480.973 186.011 481.515 186.011C482.219 186.011 482.848 186.189 483.401 186.545C483.954 186.901 484.388 187.415 484.702 188.085C485.021 188.755 485.18 189.562 485.18 190.505C485.18 191.449 485.022 192.257 484.708 192.932C484.394 193.602 483.962 194.119 483.413 194.483C482.863 194.843 482.236 195.023 481.532 195.023C481.002 195.023 480.568 194.933 480.231 194.755C479.897 194.577 479.636 194.369 479.447 194.13C479.257 193.892 479.111 193.68 479.009 193.494H478.907V198.125H477.208ZM478.873 190.488C478.873 191.102 478.962 191.64 479.14 192.102C479.318 192.564 479.576 192.926 479.913 193.187C480.25 193.445 480.663 193.574 481.151 193.574C481.659 193.574 482.083 193.439 482.424 193.17C482.765 192.898 483.022 192.528 483.197 192.062C483.375 191.596 483.464 191.072 483.464 190.488C483.464 189.913 483.377 189.396 483.202 188.937C483.032 188.479 482.774 188.117 482.43 187.852C482.089 187.587 481.663 187.454 481.151 187.454C480.659 187.454 480.242 187.581 479.901 187.835C479.564 188.089 479.308 188.443 479.134 188.898C478.96 189.352 478.873 189.882 478.873 190.488ZM490.759 195.028C489.941 195.028 489.227 194.841 488.617 194.466C488.007 194.091 487.534 193.566 487.197 192.892C486.86 192.218 486.691 191.43 486.691 190.528C486.691 189.623 486.86 188.831 487.197 188.153C487.534 187.475 488.007 186.949 488.617 186.574C489.227 186.199 489.941 186.011 490.759 186.011C491.577 186.011 492.291 186.199 492.901 186.574C493.511 186.949 493.985 187.475 494.322 188.153C494.659 188.831 494.827 189.623 494.827 190.528C494.827 191.43 494.659 192.218 494.322 192.892C493.985 193.566 493.511 194.091 492.901 194.466C492.291 194.841 491.577 195.028 490.759 195.028ZM490.765 193.602C491.295 193.602 491.735 193.462 492.083 193.182C492.432 192.901 492.689 192.528 492.856 192.062C493.026 191.596 493.111 191.083 493.111 190.523C493.111 189.966 493.026 189.454 492.856 188.988C492.689 188.519 492.432 188.142 492.083 187.858C491.735 187.574 491.295 187.432 490.765 187.432C490.231 187.432 489.788 187.574 489.435 187.858C489.087 188.142 488.827 188.519 488.657 188.988C488.49 189.454 488.407 189.966 488.407 190.523C488.407 191.083 488.49 191.596 488.657 192.062C488.827 192.528 489.087 192.901 489.435 193.182C489.788 193.462 490.231 193.602 490.765 193.602ZM498.35 194.852L495.782 186.125H497.538L499.248 192.534H499.333L501.049 186.125H502.805L504.509 192.505H504.594L506.293 186.125H508.049L505.486 194.852H503.754L501.981 188.551H501.85L500.077 194.852H498.35ZM513.157 195.028C512.297 195.028 511.557 194.844 510.935 194.477C510.318 194.106 509.841 193.585 509.504 192.915C509.17 192.24 509.004 191.451 509.004 190.545C509.004 189.651 509.17 188.863 509.504 188.182C509.841 187.5 510.31 186.968 510.913 186.585C511.519 186.202 512.227 186.011 513.038 186.011C513.53 186.011 514.007 186.093 514.469 186.255C514.932 186.418 515.346 186.674 515.714 187.023C516.081 187.371 516.371 187.824 516.583 188.38C516.795 188.933 516.901 189.606 516.901 190.398V191H509.964V189.727H515.236C515.236 189.28 515.146 188.884 514.964 188.54C514.782 188.191 514.526 187.916 514.197 187.716C513.871 187.515 513.488 187.415 513.049 187.415C512.572 187.415 512.155 187.532 511.799 187.767C511.447 187.998 511.174 188.301 510.981 188.676C510.791 189.047 510.697 189.451 510.697 189.886V190.88C510.697 191.464 510.799 191.96 511.004 192.369C511.212 192.778 511.502 193.091 511.873 193.307C512.244 193.519 512.678 193.625 513.174 193.625C513.496 193.625 513.79 193.579 514.055 193.488C514.32 193.394 514.549 193.254 514.742 193.068C514.935 192.882 515.083 192.653 515.185 192.38L516.793 192.67C516.665 193.144 516.433 193.558 516.1 193.915C515.771 194.267 515.356 194.541 514.856 194.738C514.36 194.932 513.793 195.028 513.157 195.028ZM518.786 194.852V186.125H520.428V187.511H520.519C520.678 187.041 520.959 186.672 521.36 186.403C521.765 186.13 522.224 185.994 522.735 185.994C522.841 185.994 522.966 185.998 523.11 186.005C523.258 186.013 523.373 186.023 523.457 186.034V187.659C523.388 187.64 523.267 187.619 523.093 187.596C522.919 187.57 522.745 187.557 522.57 187.557C522.169 187.557 521.811 187.642 521.496 187.812C521.186 187.979 520.94 188.212 520.758 188.511C520.576 188.807 520.485 189.144 520.485 189.523V194.852H518.786ZM529.161 194.852V186.125H530.86V194.852H529.161ZM530.019 184.778C529.724 184.778 529.47 184.68 529.258 184.483C529.049 184.282 528.945 184.043 528.945 183.767C528.945 183.487 529.049 183.248 529.258 183.051C529.47 182.85 529.724 182.75 530.019 182.75C530.315 182.75 530.567 182.85 530.775 183.051C530.987 183.248 531.093 183.487 531.093 183.767C531.093 184.043 530.987 184.282 530.775 184.483C530.567 184.68 530.315 184.778 530.019 184.778ZM534.844 189.67V194.852H533.146V186.125H534.776V187.545H534.884C535.085 187.083 535.399 186.712 535.827 186.432C536.259 186.151 536.803 186.011 537.458 186.011C538.053 186.011 538.574 186.136 539.021 186.386C539.468 186.632 539.814 187 540.06 187.488C540.307 187.977 540.43 188.581 540.43 189.301V194.852H538.731V189.505C538.731 188.873 538.566 188.379 538.236 188.023C537.907 187.663 537.454 187.483 536.879 187.483C536.485 187.483 536.134 187.568 535.827 187.738C535.524 187.909 535.284 188.159 535.106 188.488C534.932 188.814 534.844 189.208 534.844 189.67ZM546.92 194.852V193.579L550.857 189.5C551.278 189.057 551.624 188.668 551.897 188.335C552.174 187.998 552.38 187.678 552.516 187.375C552.653 187.072 552.721 186.75 552.721 186.409C552.721 186.023 552.63 185.689 552.448 185.409C552.266 185.125 552.018 184.907 551.704 184.755C551.389 184.6 551.035 184.523 550.641 184.523C550.225 184.523 549.861 184.608 549.55 184.778C549.24 184.949 549.001 185.189 548.835 185.5C548.668 185.81 548.585 186.174 548.585 186.591H546.908C546.908 185.882 547.071 185.263 547.397 184.733C547.723 184.202 548.17 183.791 548.738 183.5C549.306 183.204 549.952 183.057 550.675 183.057C551.406 183.057 552.05 183.202 552.607 183.494C553.168 183.782 553.605 184.176 553.92 184.676C554.234 185.172 554.391 185.733 554.391 186.358C554.391 186.79 554.31 187.212 554.147 187.625C553.988 188.038 553.71 188.498 553.312 189.005C552.914 189.509 552.361 190.121 551.653 190.841L549.34 193.261V193.346H554.579V194.852H546.92ZM560.783 195.045C559.886 195.041 559.119 194.805 558.482 194.335C557.846 193.865 557.359 193.182 557.022 192.284C556.685 191.386 556.516 190.305 556.516 189.04C556.516 187.778 556.685 186.701 557.022 185.807C557.363 184.913 557.852 184.231 558.488 183.761C559.128 183.291 559.893 183.057 560.783 183.057C561.674 183.057 562.437 183.293 563.073 183.767C563.71 184.237 564.196 184.918 564.533 185.812C564.874 186.702 565.045 187.778 565.045 189.04C565.045 190.308 564.876 191.392 564.539 192.29C564.202 193.183 563.715 193.867 563.079 194.341C562.442 194.81 561.677 195.045 560.783 195.045ZM560.783 193.528C561.571 193.528 562.187 193.144 562.63 192.375C563.077 191.606 563.3 190.494 563.3 189.04C563.3 188.074 563.198 187.257 562.994 186.591C562.793 185.92 562.503 185.413 562.124 185.068C561.749 184.719 561.302 184.545 560.783 184.545C559.999 184.545 559.384 184.932 558.937 185.704C558.49 186.477 558.264 187.589 558.261 189.04C558.261 190.009 558.361 190.829 558.562 191.5C558.766 192.166 559.056 192.672 559.431 193.017C559.806 193.358 560.257 193.528 560.783 193.528ZM572.391 198.125C572.138 198.125 571.906 198.104 571.698 198.062C571.49 198.024 571.335 197.983 571.232 197.937L571.641 196.545C571.952 196.629 572.228 196.665 572.471 196.653C572.713 196.642 572.927 196.551 573.113 196.38C573.302 196.21 573.469 195.932 573.613 195.545L573.823 194.966L570.63 186.125H572.448L574.658 192.898H574.749L576.96 186.125H578.783L575.187 196.017C575.02 196.471 574.808 196.856 574.55 197.17C574.293 197.488 573.986 197.727 573.63 197.886C573.274 198.045 572.861 198.125 572.391 198.125ZM583.844 195.028C582.985 195.028 582.244 194.844 581.623 194.477C581.005 194.106 580.528 193.585 580.191 192.915C579.858 192.24 579.691 191.451 579.691 190.545C579.691 189.651 579.858 188.863 580.191 188.182C580.528 187.5 580.998 186.968 581.6 186.585C582.206 186.202 582.915 186.011 583.725 186.011C584.218 186.011 584.695 186.093 585.157 186.255C585.619 186.418 586.034 186.674 586.401 187.023C586.769 187.371 587.058 187.824 587.271 188.38C587.483 188.933 587.589 189.606 587.589 190.398V191H580.651V189.727H585.924C585.924 189.28 585.833 188.884 585.651 188.54C585.469 188.191 585.214 187.916 584.884 187.716C584.558 187.515 584.176 187.415 583.736 187.415C583.259 187.415 582.843 187.532 582.486 187.767C582.134 187.998 581.861 188.301 581.668 188.676C581.479 189.047 581.384 189.451 581.384 189.886V190.88C581.384 191.464 581.486 191.96 581.691 192.369C581.899 192.778 582.189 193.091 582.56 193.307C582.932 193.519 583.365 193.625 583.861 193.625C584.183 193.625 584.477 193.579 584.742 193.488C585.007 193.394 585.236 193.254 585.43 193.068C585.623 192.882 585.771 192.653 585.873 192.38L587.481 192.67C587.352 193.144 587.121 193.558 586.788 193.915C586.458 194.267 586.043 194.541 585.543 194.738C585.047 194.932 584.481 195.028 583.844 195.028ZM592.013 195.045C591.46 195.045 590.96 194.943 590.513 194.738C590.067 194.53 589.712 194.229 589.451 193.835C589.193 193.441 589.065 192.958 589.065 192.386C589.065 191.894 589.159 191.488 589.349 191.17C589.538 190.852 589.794 190.6 590.116 190.415C590.438 190.229 590.798 190.089 591.195 189.994C591.593 189.899 591.998 189.827 592.411 189.778C592.934 189.718 593.358 189.668 593.684 189.63C594.01 189.589 594.246 189.523 594.394 189.432C594.542 189.341 594.616 189.193 594.616 188.988V188.949C594.616 188.452 594.476 188.068 594.195 187.795C593.919 187.523 593.506 187.386 592.957 187.386C592.385 187.386 591.934 187.513 591.604 187.767C591.279 188.017 591.053 188.295 590.928 188.602L589.332 188.238C589.521 187.708 589.798 187.28 590.161 186.954C590.529 186.625 590.951 186.386 591.428 186.238C591.906 186.087 592.407 186.011 592.934 186.011C593.282 186.011 593.652 186.053 594.042 186.136C594.436 186.216 594.803 186.363 595.144 186.579C595.489 186.795 595.771 187.104 595.991 187.505C596.21 187.903 596.32 188.42 596.32 189.057V194.852H594.661V193.659H594.593C594.483 193.879 594.318 194.094 594.099 194.307C593.879 194.519 593.597 194.695 593.252 194.835C592.907 194.975 592.495 195.045 592.013 195.045ZM592.383 193.682C592.852 193.682 593.254 193.589 593.587 193.403C593.924 193.218 594.18 192.975 594.354 192.676C594.532 192.373 594.621 192.049 594.621 191.704V190.579C594.561 190.64 594.443 190.697 594.269 190.75C594.099 190.799 593.904 190.843 593.684 190.88C593.464 190.915 593.25 190.947 593.042 190.977C592.834 191.004 592.659 191.026 592.519 191.045C592.19 191.087 591.888 191.157 591.616 191.255C591.347 191.354 591.131 191.496 590.968 191.682C590.809 191.863 590.729 192.106 590.729 192.409C590.729 192.829 590.885 193.148 591.195 193.363C591.506 193.576 591.902 193.682 592.383 193.682ZM598.583 194.852V186.125H600.225V187.511H600.316C600.475 187.041 600.755 186.672 601.157 186.403C601.562 186.13 602.021 185.994 602.532 185.994C602.638 185.994 602.763 185.998 602.907 186.005C603.055 186.013 603.17 186.023 603.254 186.034V187.659C603.185 187.64 603.064 187.619 602.89 187.596C602.716 187.57 602.541 187.557 602.367 187.557C601.966 187.557 601.608 187.642 601.293 187.812C600.983 187.979 600.736 188.212 600.555 188.511C600.373 188.807 600.282 189.144 600.282 189.523V194.852H598.583ZM611.263 188.255L609.724 188.528C609.659 188.331 609.557 188.144 609.417 187.966C609.281 187.788 609.095 187.642 608.86 187.528C608.625 187.415 608.332 187.358 607.979 187.358C607.498 187.358 607.097 187.466 606.775 187.682C606.453 187.894 606.292 188.168 606.292 188.505C606.292 188.797 606.4 189.032 606.616 189.21C606.832 189.388 607.18 189.534 607.661 189.648L609.048 189.966C609.851 190.151 610.449 190.437 610.843 190.824C611.237 191.21 611.434 191.712 611.434 192.329C611.434 192.852 611.282 193.318 610.979 193.727C610.68 194.132 610.262 194.451 609.724 194.682C609.19 194.913 608.57 195.028 607.866 195.028C606.888 195.028 606.091 194.82 605.474 194.403C604.856 193.983 604.477 193.386 604.337 192.613L605.979 192.363C606.082 192.791 606.292 193.115 606.61 193.335C606.928 193.551 607.343 193.659 607.854 193.659C608.411 193.659 608.856 193.543 609.19 193.312C609.523 193.077 609.69 192.791 609.69 192.454C609.69 192.182 609.587 191.952 609.383 191.767C609.182 191.581 608.873 191.441 608.457 191.346L606.979 191.023C606.165 190.837 605.563 190.541 605.173 190.136C604.786 189.731 604.593 189.218 604.593 188.596C604.593 188.081 604.737 187.63 605.025 187.244C605.313 186.858 605.71 186.557 606.218 186.341C606.726 186.121 607.307 186.011 607.962 186.011C608.906 186.011 609.648 186.216 610.19 186.625C610.731 187.03 611.089 187.574 611.263 188.255ZM621.61 186.125V187.488H616.843V186.125H621.61ZM618.121 184.034H619.82V192.29C619.82 192.619 619.87 192.867 619.968 193.034C620.067 193.197 620.193 193.308 620.349 193.369C620.508 193.426 620.68 193.454 620.866 193.454C621.002 193.454 621.121 193.445 621.224 193.426C621.326 193.407 621.406 193.392 621.462 193.38L621.769 194.784C621.671 194.822 621.531 194.86 621.349 194.898C621.167 194.939 620.94 194.962 620.667 194.966C620.22 194.973 619.803 194.894 619.417 194.727C619.031 194.56 618.718 194.303 618.479 193.954C618.241 193.606 618.121 193.168 618.121 192.642V184.034ZM623.489 194.852V186.125H625.188V194.852H623.489ZM624.347 184.778C624.052 184.778 623.798 184.68 623.586 184.483C623.378 184.282 623.273 184.043 623.273 183.767C623.273 183.487 623.378 183.248 623.586 183.051C623.798 182.85 624.052 182.75 624.347 182.75C624.643 182.75 624.895 182.85 625.103 183.051C625.315 183.248 625.421 183.487 625.421 183.767C625.421 184.043 625.315 184.282 625.103 184.483C624.895 184.68 624.643 184.778 624.347 184.778ZM627.474 194.852V186.125H629.104V187.545H629.212C629.394 187.064 629.692 186.689 630.104 186.42C630.517 186.148 631.012 186.011 631.587 186.011C632.171 186.011 632.659 186.148 633.053 186.42C633.451 186.693 633.745 187.068 633.934 187.545H634.025C634.233 187.079 634.565 186.708 635.019 186.432C635.474 186.151 636.015 186.011 636.644 186.011C637.436 186.011 638.082 186.259 638.582 186.755C639.085 187.252 639.337 188 639.337 189V194.852H637.638V189.159C637.638 188.568 637.477 188.14 637.156 187.875C636.834 187.61 636.449 187.477 636.002 187.477C635.449 187.477 635.019 187.648 634.712 187.988C634.406 188.326 634.252 188.759 634.252 189.29V194.852H632.559V189.051C632.559 188.577 632.411 188.197 632.116 187.909C631.82 187.621 631.436 187.477 630.962 187.477C630.64 187.477 630.343 187.562 630.07 187.733C629.801 187.899 629.584 188.132 629.417 188.432C629.254 188.731 629.173 189.077 629.173 189.471V194.852H627.474ZM645.376 195.028C644.516 195.028 643.775 194.844 643.154 194.477C642.537 194.106 642.059 193.585 641.722 192.915C641.389 192.24 641.222 191.451 641.222 190.545C641.222 189.651 641.389 188.863 641.722 188.182C642.059 187.5 642.529 186.968 643.131 186.585C643.737 186.202 644.446 186.011 645.256 186.011C645.749 186.011 646.226 186.093 646.688 186.255C647.15 186.418 647.565 186.674 647.933 187.023C648.3 187.371 648.59 187.824 648.802 188.38C649.014 188.933 649.12 189.606 649.12 190.398V191H642.183V189.727H647.455C647.455 189.28 647.364 188.884 647.183 188.54C647.001 188.191 646.745 187.916 646.415 187.716C646.09 187.515 645.707 187.415 645.268 187.415C644.79 187.415 644.374 187.532 644.018 187.767C643.665 187.998 643.393 188.301 643.2 188.676C643.01 189.047 642.915 189.451 642.915 189.886V190.88C642.915 191.464 643.018 191.96 643.222 192.369C643.431 192.778 643.72 193.091 644.092 193.307C644.463 193.519 644.897 193.625 645.393 193.625C645.715 193.625 646.008 193.579 646.273 193.488C646.539 193.394 646.768 193.254 646.961 193.068C647.154 192.882 647.302 192.653 647.404 192.38L649.012 192.67C648.883 193.144 648.652 193.558 648.319 193.915C647.989 194.267 647.575 194.541 647.075 194.738C646.578 194.932 646.012 195.028 645.376 195.028Z" fill="white"/>
    <rect x="2.36523" y="94.6622" width="640.462" height="1.18457" fill="white"/>
    <rect x="34.3906" y="102.362" width="13.6225" height="1.68543" transform="rotate(-90 34.3906 102.362)" fill="white"/>
    <rect x="0.681641" y="107.1" width="23.6913" height="1.67444" transform="rotate(-90 0.681641 107.1)" fill="white"/>
    <rect x="68.0977" y="102.362" width="13.6225" height="1.68543" transform="rotate(-90 68.0977 102.362)" fill="white"/>
    <rect x="101.807" y="102.362" width="13.6225" height="1.68543" transform="rotate(-90 101.807 102.362)" fill="white"/>
    <rect x="135.516" y="102.362" width="13.6225" height="1.68543" transform="rotate(-90 135.516 102.362)" fill="white"/>
    <rect x="169.225" y="102.362" width="13.6225" height="1.68543" transform="rotate(-90 169.225 102.362)" fill="white"/>
    <rect x="202.932" y="102.362" width="13.6225" height="1.68543" transform="rotate(-90 202.932 102.362)" fill="white"/>
    <rect x="236.641" y="102.362" width="13.6225" height="1.68543" transform="rotate(-90 236.641 102.362)" fill="white"/>
    <rect x="270.35" y="102.362" width="13.6225" height="1.68543" transform="rotate(-90 270.35 102.362)" fill="white"/>
    <rect x="304.057" y="102.362" width="13.6225" height="1.68543" transform="rotate(-90 304.057 102.362)" fill="white"/>
    <rect x="338.082" y="107.1" width="23.6913" height="1.67444" transform="rotate(-90 338.082 107.1)" fill="white"/>
    <rect x="371.475" y="102.362" width="13.6225" height="1.68543" transform="rotate(-90 371.475 102.362)" fill="white"/>
    <rect x="405.184" y="102.362" width="13.6225" height="1.68543" transform="rotate(-90 405.184 102.362)" fill="white"/>
    <rect x="438.893" y="102.362" width="13.6225" height="1.68543" transform="rotate(-90 438.893 102.362)" fill="white"/>
    <rect x="472.6" y="102.362" width="13.6225" height="1.68543" transform="rotate(-90 472.6 102.362)" fill="white"/>
    <rect x="506.309" y="102.362" width="13.6225" height="1.68543" transform="rotate(-90 506.309 102.362)" fill="white"/>
    <rect x="540.02" y="102.362" width="13.6225" height="1.68543" transform="rotate(-90 540.02 102.362)" fill="white"/>
    <rect x="573.727" y="102.362" width="13.6225" height="1.68543" transform="rotate(-90 573.727 102.362)" fill="white"/>
    <rect x="607.436" y="102.362" width="13.6225" height="1.68543" transform="rotate(-90 607.436 102.362)" fill="white"/>
    <rect x="641.154" y="107.1" width="23.6913" height="1.67444" transform="rotate(-90 641.154 107.1)" fill="white"/>
    <path d="M4.14035 66.2097C5.32568 65.2577 6.25435 64.4784 6.92635 63.8717C7.59835 63.2557 8.16301 62.6164 8.62035 61.9537C9.08701 61.2817 9.32035 60.6237 9.32035 59.9797C9.32035 59.373 9.17101 58.897 8.87235 58.5517C8.58301 58.197 8.11168 58.0197 7.45835 58.0197C6.82368 58.0197 6.32901 58.2204 5.97435 58.6217C5.62901 59.0137 5.44235 59.541 5.41435 60.2037H4.18235C4.21968 59.1584 4.53701 58.351 5.13435 57.7817C5.73168 57.2124 6.50168 56.9277 7.44435 56.9277C8.40568 56.9277 9.16635 57.1937 9.72635 57.7257C10.2957 58.2577 10.5803 58.9904 10.5803 59.9237C10.5803 60.6984 10.347 61.4544 9.88035 62.1917C9.42301 62.9197 8.90035 63.5637 8.31235 64.1237C7.72435 64.6744 6.97301 65.3184 6.05835 66.0557H10.8743V67.1197H4.14035V66.2097ZM12.3471 62.0657C12.3471 60.4604 12.6084 59.2097 13.1311 58.3137C13.6537 57.4084 14.5684 56.9557 15.8751 56.9557C17.1724 56.9557 18.0824 57.4084 18.6051 58.3137C19.1277 59.2097 19.3891 60.4604 19.3891 62.0657C19.3891 63.699 19.1277 64.9684 18.6051 65.8737C18.0824 66.779 17.1724 67.2317 15.8751 67.2317C14.5684 67.2317 13.6537 66.779 13.1311 65.8737C12.6084 64.9684 12.3471 63.699 12.3471 62.0657ZM18.1291 62.0657C18.1291 61.2537 18.0731 60.5677 17.9611 60.0077C17.8584 59.4384 17.6391 58.981 17.3031 58.6357C16.9764 58.2904 16.5004 58.1177 15.8751 58.1177C15.2404 58.1177 14.7551 58.2904 14.4191 58.6357C14.0924 58.981 13.8731 59.4384 13.7611 60.0077C13.6584 60.5677 13.6071 61.2537 13.6071 62.0657C13.6071 62.9057 13.6584 63.6104 13.7611 64.1797C13.8731 64.749 14.0924 65.2064 14.4191 65.5517C14.7551 65.897 15.2404 66.0697 15.8751 66.0697C16.5004 66.0697 16.9764 65.897 17.3031 65.5517C17.6391 65.2064 17.8584 64.749 17.9611 64.1797C18.0731 63.6104 18.1291 62.9057 18.1291 62.0657ZM20.9841 66.2097C22.1694 65.2577 23.0981 64.4784 23.7701 63.8717C24.4421 63.2557 25.0068 62.6164 25.4641 61.9537C25.9308 61.2817 26.1641 60.6237 26.1641 59.9797C26.1641 59.373 26.0148 58.897 25.7161 58.5517C25.4268 58.197 24.9554 58.0197 24.3021 58.0197C23.6674 58.0197 23.1728 58.2204 22.8181 58.6217C22.4728 59.0137 22.2861 59.541 22.2581 60.2037H21.0261C21.0634 59.1584 21.3808 58.351 21.9781 57.7817C22.5754 57.2124 23.3454 56.9277 24.2881 56.9277C25.2494 56.9277 26.0101 57.1937 26.5701 57.7257C27.1394 58.2577 27.4241 58.9904 27.4241 59.9237C27.4241 60.6984 27.1908 61.4544 26.7241 62.1917C26.2668 62.9197 25.7441 63.5637 25.1561 64.1237C24.5681 64.6744 23.8168 65.3184 22.9021 66.0557H27.7181V67.1197H20.9841V66.2097ZM28.8828 64.9777V64.0117L33.7968 57.2077H35.3228V63.8717H36.7228V64.9777H35.3228V67.2317H34.0628V64.9777H28.8828ZM34.1188 58.5377L30.3528 63.8717H34.1188V58.5377Z" fill="white"/>
    <path d="M609.088 69.2243C610.274 68.2723 611.202 67.493 611.874 66.8863C612.546 66.2703 613.111 65.631 613.568 64.9683C614.035 64.2963 614.268 63.6383 614.268 62.9943C614.268 62.3877 614.119 61.9117 613.82 61.5663C613.531 61.2117 613.06 61.0343 612.406 61.0343C611.772 61.0343 611.277 61.235 610.922 61.6363C610.577 62.0283 610.39 62.5557 610.362 63.2183H609.13C609.168 62.173 609.485 61.3657 610.082 60.7963C610.68 60.227 611.45 59.9423 612.392 59.9423C613.354 59.9423 614.114 60.2083 614.674 60.7403C615.244 61.2723 615.528 62.005 615.528 62.9383C615.528 63.713 615.295 64.469 614.828 65.2063C614.371 65.9343 613.848 66.5783 613.26 67.1383C612.672 67.689 611.921 68.333 611.006 69.0703H615.822V70.1343H609.088V69.2243ZM617.295 65.0803C617.295 63.475 617.556 62.2243 618.079 61.3283C618.602 60.423 619.516 59.9703 620.823 59.9703C622.12 59.9703 623.03 60.423 623.553 61.3283C624.076 62.2243 624.337 63.475 624.337 65.0803C624.337 66.7137 624.076 67.983 623.553 68.8883C623.03 69.7937 622.12 70.2463 620.823 70.2463C619.516 70.2463 618.602 69.7937 618.079 68.8883C617.556 67.983 617.295 66.7137 617.295 65.0803ZM623.077 65.0803C623.077 64.2683 623.021 63.5823 622.909 63.0223C622.806 62.453 622.587 61.9957 622.251 61.6503C621.924 61.305 621.448 61.1323 620.823 61.1323C620.188 61.1323 619.703 61.305 619.367 61.6503C619.04 61.9957 618.821 62.453 618.709 63.0223C618.606 63.5823 618.555 64.2683 618.555 65.0803C618.555 65.9203 618.606 66.625 618.709 67.1943C618.821 67.7637 619.04 68.221 619.367 68.5663C619.703 68.9117 620.188 69.0843 620.823 69.0843C621.448 69.0843 621.924 68.9117 622.251 68.5663C622.587 68.221 622.806 67.7637 622.909 67.1943C623.021 66.625 623.077 65.9203 623.077 65.0803ZM625.778 67.9923V67.0263L630.692 60.2223H632.218V66.8863H633.618V67.9923H632.218V70.2463H630.958V67.9923H625.778ZM631.014 61.5523L627.248 66.8863H631.014V61.5523ZM634.583 67.9923V67.0263L639.497 60.2223H641.023V66.8863H642.423V67.9923H641.023V70.2463H639.763V67.9923H634.583ZM639.819 61.5523L636.053 66.8863H639.819V61.5523Z" fill="white"/>
</svg>
