<svg width="1580" height="281" viewBox="0 0 1580 281" fill="none" xmlns="http://www.w3.org/2000/svg">
    <path d="M26 150H920" stroke="white" stroke-width="2"/>
    <path d="M921 150L1497 150" stroke="white" stroke-width="2" stroke-dasharray="2 2"/>
    <circle cx="53.5006" cy="149.789" r="36.9661" transform="rotate(0.833608 53.5006 149.789)" fill="#7474C1"/>
    <mask id="mask0_0_1" style="mask-type:alpha" maskUnits="userSpaceOnUse" x="34" y="131" width="39" height="39">
        <rect x="34.8867" y="131.039" width="38.0597" height="38.0597" fill="#D9D9D9"/>
    </mask>
    <g mask="url(#mask0_0_1)">
        <path d="M53.9167 164.342L42.8159 158.316V148.801L36.4727 145.312L53.9167 135.797L71.3607 145.312V157.999H68.1891V147.057L65.0174 148.801V158.316L53.9167 164.342ZM53.9167 151.18L64.7796 145.312L53.9167 139.445L43.0538 145.312L53.9167 151.18ZM53.9167 160.734L61.8458 156.453V150.466L53.9167 154.827L45.9876 150.466V156.453L53.9167 160.734Z" fill="white"/>
    </g>
    <circle cx="342.5" cy="145.383" r="41.8949" transform="rotate(0.833608 342.5 145.383)" fill="#7474C1"/>
    <mask id="mask1_0_1" style="mask-type:alpha" maskUnits="userSpaceOnUse" x="318" y="123" width="47" height="46">
        <rect x="318.699" y="123.283" width="45.3333" height="45.3333" fill="#D9D9D9"/>
    </mask>
    <g mask="url(#mask1_0_1)">
        <path d="M356.382 162.949C352.447 162.949 348.559 162.091 344.718 160.376C340.877 158.66 337.383 156.228 334.235 153.08C331.087 149.932 328.655 146.437 326.939 142.596C325.223 138.756 324.365 134.868 324.365 130.933C324.365 130.366 324.554 129.894 324.932 129.516C325.31 129.138 325.782 128.949 326.349 128.949H333.999C334.439 128.949 334.833 129.099 335.179 129.398C335.525 129.697 335.73 130.051 335.793 130.46L337.021 137.071C337.084 137.575 337.068 138 336.974 138.346C336.879 138.693 336.706 138.992 336.454 139.244L331.874 143.871C332.503 145.036 333.251 146.162 334.117 147.248C334.982 148.334 335.935 149.381 336.974 150.388C337.949 151.364 338.973 152.269 340.043 153.103C341.113 153.938 342.247 154.701 343.443 155.394L347.882 150.955C348.165 150.671 348.535 150.459 348.992 150.317C349.448 150.176 349.897 150.136 350.337 150.199L356.854 151.521C357.295 151.647 357.657 151.876 357.94 152.206C358.224 152.537 358.365 152.907 358.365 153.316V160.966C358.365 161.533 358.176 162.005 357.799 162.383C357.421 162.76 356.949 162.949 356.382 162.949ZM330.079 140.283L333.196 137.166L332.393 132.727H328.19C328.348 134.018 328.568 135.293 328.851 136.552C329.135 137.811 329.544 139.055 330.079 140.283ZM346.985 157.188C348.212 157.723 349.464 158.148 350.739 158.463C352.014 158.778 353.297 158.983 354.587 159.077V154.921L350.149 154.024L346.985 157.188Z" fill="white"/>
    </g>
    <circle cx="920.5" cy="151.5" r="61.6102" transform="rotate(0.833608 920.5 151.5)" fill="#78BE20"/>
    <mask id="mask2_0_1" style="mask-type:alpha" maskUnits="userSpaceOnUse" x="885" y="117" width="69" height="69">
        <rect x="885.834" y="117.125" width="68.0613" height="68.0613" fill="#D9D9D9"/>
    </mask>
    <g mask="url(#mask2_0_1)">
        <path d="M907.741 141.159C908.309 141.159 908.805 140.946 909.23 140.521C909.656 140.095 909.868 139.599 909.868 139.032C909.868 138.465 909.656 137.968 909.23 137.543C908.805 137.118 908.309 136.905 907.741 136.905C907.174 136.905 906.678 137.118 906.253 137.543C905.827 137.968 905.614 138.465 905.614 139.032C905.614 139.599 905.827 140.095 906.253 140.521C906.678 140.946 907.174 141.159 907.741 141.159ZM907.741 153.282C908.309 153.282 908.805 153.07 909.23 152.644C909.656 152.219 909.868 151.722 909.868 151.155C909.868 150.588 909.656 150.092 909.23 149.666C908.805 149.241 908.309 149.028 907.741 149.028C907.174 149.028 906.678 149.241 906.253 149.666C905.827 150.092 905.614 150.588 905.614 151.155C905.614 151.722 905.827 152.219 906.253 152.644C906.678 153.07 907.174 153.282 907.741 153.282ZM907.741 165.406C908.309 165.406 908.805 165.193 909.23 164.768C909.656 164.342 909.868 163.846 909.868 163.279C909.868 162.712 909.656 162.215 909.23 161.79C908.805 161.365 908.309 161.152 907.741 161.152C907.174 161.152 906.678 161.365 906.253 161.79C905.827 162.215 905.614 162.712 905.614 163.279C905.614 163.846 905.827 164.342 906.253 164.768C906.678 165.193 907.174 165.406 907.741 165.406ZM898.596 176.678C897.461 176.678 896.469 176.253 895.618 175.402C894.767 174.551 894.342 173.559 894.342 172.424V129.886C894.342 128.752 894.767 127.759 895.618 126.908C896.469 126.058 897.461 125.632 898.596 125.632H931.35L945.388 139.67V172.424C945.388 173.559 944.962 174.551 944.112 175.402C943.261 176.253 942.268 176.678 941.134 176.678H898.596ZM898.596 172.424H941.134V142.04H929.011V129.886H898.596V172.424Z" fill="white"/>
    </g>
    <path d="M0.744229 255V241.909H9.56525V244.191H3.51199V247.31H9.11142V249.592H3.51199V252.718H9.59082V255H0.744229ZM16.4063 255H11.7657V241.909H16.4447C17.7615 241.909 18.895 242.171 19.8453 242.695C20.7955 243.215 21.5264 243.963 22.0377 244.939C22.5534 245.915 22.8112 247.082 22.8112 248.442C22.8112 249.805 22.5534 250.977 22.0377 251.957C21.5264 252.937 20.7913 253.69 19.8325 254.214C18.8779 254.738 17.7359 255 16.4063 255ZM14.5335 252.629H16.2913C17.1095 252.629 17.7977 252.484 18.3559 252.194C18.9184 251.9 19.3403 251.446 19.6215 250.832C19.907 250.214 20.0498 249.418 20.0498 248.442C20.0498 247.474 19.907 246.684 19.6215 246.07C19.3403 245.457 18.9205 245.005 18.3623 244.715C17.8041 244.425 17.1159 244.281 16.2977 244.281H14.5335V252.629ZM32.9474 241.909H35.7151V250.411C35.7151 251.365 35.4871 252.2 35.0312 252.916C34.5795 253.632 33.9466 254.19 33.1327 254.591C32.3188 254.987 31.3707 255.185 30.2883 255.185C29.2016 255.185 28.2513 254.987 27.4374 254.591C26.6235 254.19 25.9907 253.632 25.539 252.916C25.0873 252.2 24.8614 251.365 24.8614 250.411V241.909H27.6292V250.174C27.6292 250.673 27.7378 251.116 27.9552 251.504C28.1768 251.891 28.4878 252.196 28.8884 252.418C29.289 252.639 29.7556 252.75 30.2883 252.75C30.8252 252.75 31.2918 252.639 31.6881 252.418C32.0887 252.196 32.3976 251.891 32.615 251.504C32.8366 251.116 32.9474 250.673 32.9474 250.174V241.909ZM49.5427 246.492H46.743C46.6919 246.13 46.5874 245.808 46.4298 245.527C46.2721 245.241 46.0697 244.999 45.8225 244.798C45.5754 244.598 45.2899 244.445 44.966 244.338C44.6464 244.232 44.2991 244.178 43.9241 244.178C43.2465 244.178 42.6563 244.347 42.1535 244.683C41.6507 245.016 41.2607 245.501 40.9838 246.141C40.7068 246.776 40.5683 247.547 40.5683 248.455C40.5683 249.388 40.7068 250.172 40.9838 250.807C41.265 251.442 41.657 251.921 42.1599 252.245C42.6627 252.569 43.2444 252.731 43.9049 252.731C44.2757 252.731 44.6187 252.682 44.934 252.584C45.2536 252.486 45.537 252.343 45.7842 252.156C46.0313 251.964 46.2359 251.732 46.3978 251.459C46.564 251.186 46.6791 250.875 46.743 250.526L49.5427 250.538C49.4703 251.139 49.2892 251.719 48.9994 252.277C48.7139 252.831 48.3282 253.327 47.8424 253.766C47.3609 254.201 46.7856 254.546 46.1166 254.802C45.4518 255.053 44.6997 255.179 43.8602 255.179C42.6926 255.179 41.6485 254.915 40.7281 254.386C39.8119 253.858 39.0874 253.093 38.5548 252.092C38.0264 251.09 37.7622 249.878 37.7622 248.455C37.7622 247.027 38.0306 245.812 38.5676 244.811C39.1045 243.81 39.8332 243.047 40.7536 242.523C41.6741 241.994 42.7096 241.73 43.8602 241.73C44.6187 241.73 45.3218 241.837 45.9695 242.05C46.6215 242.263 47.199 242.574 47.7018 242.983C48.2046 243.388 48.6137 243.884 48.9291 244.472C49.2487 245.06 49.4532 245.734 49.5427 246.492ZM53.5377 255H50.5718L55.091 241.909H58.6578L63.1705 255H60.2046L56.9255 244.901H56.8232L53.5377 255ZM53.3524 249.854H60.358V252.015H53.3524V249.854ZM62.648 244.191V241.909H73.3994V244.191H69.3916V255H66.6558V244.191H62.648ZM77.9378 241.909V255H75.17V241.909H77.9378ZM92.2448 248.455C92.2448 249.882 91.9742 251.097 91.433 252.098C90.896 253.099 90.1631 253.864 89.2341 254.393C88.3094 254.917 87.2696 255.179 86.1148 255.179C84.9514 255.179 83.9074 254.915 82.9827 254.386C82.058 253.858 81.3271 253.093 80.7902 252.092C80.2533 251.09 79.9848 249.878 79.9848 248.455C79.9848 247.027 80.2533 245.812 80.7902 244.811C81.3271 243.81 82.058 243.047 82.9827 242.523C83.9074 241.994 84.9514 241.73 86.1148 241.73C87.2696 241.73 88.3094 241.994 89.2341 242.523C90.1631 243.047 90.896 243.81 91.433 244.811C91.9742 245.812 92.2448 247.027 92.2448 248.455ZM89.4387 248.455C89.4387 247.53 89.3002 246.75 89.0232 246.115C88.7504 245.48 88.3648 244.999 87.8662 244.67C87.3676 244.342 86.7838 244.178 86.1148 244.178C85.4458 244.178 84.8619 244.342 84.3634 244.67C83.8648 244.999 83.477 245.48 83.2 246.115C82.9273 246.75 82.7909 247.53 82.7909 248.455C82.7909 249.379 82.9273 250.159 83.2 250.794C83.477 251.429 83.8648 251.911 84.3634 252.239C84.8619 252.567 85.4458 252.731 86.1148 252.731C86.7838 252.731 87.3676 252.567 87.8662 252.239C88.3648 251.911 88.7504 251.429 89.0232 250.794C89.3002 250.159 89.4387 249.379 89.4387 248.455ZM105.245 241.909V255H102.854L97.1586 246.761H97.0628V255H94.295V241.909H96.724L102.375 250.142H102.49V241.909H105.245Z" fill="white"/>
    <path d="M308.001 255L304.255 241.909H307.278L309.445 251.005H309.554L311.944 241.909H314.533L316.917 251.024H317.032L319.199 241.909H322.223L318.477 255H315.78L313.287 246.441H313.184L310.698 255H308.001ZM323.704 255V241.909H332.525V244.191H326.472V247.31H332.071V249.592H326.472V252.718H332.551V255H323.704ZM336.982 255H334.016L338.535 241.909H342.102L346.615 255H343.649L340.37 244.901H340.268L336.982 255ZM336.797 249.854H343.802V252.015H336.797V249.854ZM348.191 255V241.909H350.958V252.718H356.57V255H348.191ZM356.27 244.191V241.909H367.021V244.191H363.014V255H360.278V244.191H356.27ZM368.792 255V241.909H371.56V247.31H377.178V241.909H379.94V255H377.178V249.592H371.56V255H368.792ZM306.17 270.674C306.119 270.158 305.899 269.758 305.512 269.472C305.124 269.187 304.598 269.044 303.933 269.044C303.481 269.044 303.1 269.108 302.789 269.236C302.478 269.359 302.239 269.532 302.073 269.754C301.911 269.975 301.83 270.227 301.83 270.508C301.821 270.742 301.87 270.947 301.977 271.121C302.088 271.296 302.239 271.447 302.431 271.575C302.622 271.699 302.844 271.808 303.095 271.901C303.347 271.991 303.615 272.067 303.901 272.131L305.077 272.413C305.648 272.54 306.172 272.711 306.649 272.924C307.127 273.137 307.54 273.399 307.889 273.71C308.239 274.021 308.509 274.388 308.701 274.81C308.897 275.232 308.997 275.715 309.002 276.261C308.997 277.062 308.793 277.756 308.388 278.344C307.987 278.928 307.408 279.382 306.649 279.706C305.895 280.026 304.985 280.185 303.92 280.185C302.863 280.185 301.943 280.023 301.159 279.7C300.379 279.376 299.769 278.896 299.331 278.261C298.896 277.622 298.668 276.832 298.647 275.89H301.325C301.355 276.329 301.48 276.695 301.702 276.989C301.928 277.279 302.228 277.499 302.603 277.648C302.983 277.793 303.411 277.865 303.888 277.865C304.357 277.865 304.764 277.797 305.109 277.661C305.458 277.524 305.729 277.335 305.921 277.092C306.112 276.849 306.208 276.57 306.208 276.254C306.208 275.96 306.121 275.713 305.946 275.513C305.776 275.312 305.524 275.142 305.192 275.001C304.864 274.861 304.461 274.733 303.984 274.618L302.559 274.26C301.455 273.991 300.583 273.572 299.944 273.001C299.305 272.43 298.987 271.661 298.992 270.693C298.987 269.901 299.198 269.208 299.625 268.616C300.055 268.023 300.645 267.561 301.395 267.229C302.145 266.896 302.997 266.73 303.952 266.73C304.924 266.73 305.772 266.896 306.496 267.229C307.225 267.561 307.791 268.023 308.196 268.616C308.601 269.208 308.81 269.894 308.823 270.674H306.17ZM310.863 280V266.909H319.684V269.191H313.631V272.31H319.231V274.592H313.631V277.718H319.71V280H310.863ZM321.885 280V266.909H327.05C328.038 266.909 328.882 267.086 329.581 267.44C330.284 267.789 330.819 268.286 331.185 268.929C331.556 269.568 331.741 270.32 331.741 271.185C331.741 272.055 331.554 272.803 331.179 273.429C330.804 274.051 330.261 274.528 329.549 274.861C328.842 275.193 327.985 275.359 326.979 275.359H323.521V273.135H326.532C327.06 273.135 327.499 273.062 327.849 272.918C328.198 272.773 328.458 272.555 328.628 272.266C328.803 271.976 328.891 271.616 328.891 271.185C328.891 270.751 328.803 270.384 328.628 270.086C328.458 269.788 328.196 269.562 327.842 269.408C327.493 269.251 327.052 269.172 326.519 269.172H324.653V280H321.885ZM328.954 274.043L332.208 280H329.153L325.969 274.043H328.954ZM335.711 266.909L338.875 276.855H338.996L342.167 266.909H345.235L340.722 280H337.155L332.636 266.909H335.711ZM349.578 266.909V280H346.811V266.909H349.578ZM363.406 271.492H360.606C360.555 271.13 360.451 270.808 360.293 270.527C360.135 270.241 359.933 269.999 359.686 269.798C359.439 269.598 359.153 269.445 358.829 269.338C358.51 269.232 358.162 269.178 357.787 269.178C357.11 269.178 356.52 269.347 356.017 269.683C355.514 270.016 355.124 270.501 354.847 271.141C354.57 271.776 354.432 272.547 354.432 273.455C354.432 274.388 354.57 275.172 354.847 275.807C355.128 276.442 355.52 276.921 356.023 277.245C356.526 277.569 357.108 277.731 357.768 277.731C358.139 277.731 358.482 277.682 358.797 277.584C359.117 277.486 359.4 277.343 359.647 277.156C359.895 276.964 360.099 276.732 360.261 276.459C360.427 276.186 360.542 275.875 360.606 275.526L363.406 275.538C363.334 276.139 363.152 276.719 362.863 277.277C362.577 277.831 362.191 278.327 361.706 278.766C361.224 279.201 360.649 279.546 359.98 279.802C359.315 280.053 358.563 280.179 357.723 280.179C356.556 280.179 355.512 279.915 354.591 279.386C353.675 278.858 352.951 278.093 352.418 277.092C351.89 276.09 351.625 274.878 351.625 273.455C351.625 272.027 351.894 270.812 352.431 269.811C352.968 268.81 353.696 268.047 354.617 267.523C355.537 266.994 356.573 266.73 357.723 266.73C358.482 266.73 359.185 266.837 359.833 267.05C360.485 267.263 361.062 267.574 361.565 267.983C362.068 268.388 362.477 268.884 362.792 269.472C363.112 270.06 363.316 270.734 363.406 271.492ZM365.391 280V266.909H374.212V269.191H368.158V272.31H373.758V274.592H368.158V277.718H374.237V280H365.391ZM383.514 270.674C383.463 270.158 383.243 269.758 382.855 269.472C382.468 269.187 381.941 269.044 381.277 269.044C380.825 269.044 380.443 269.108 380.132 269.236C379.821 269.359 379.583 269.532 379.416 269.754C379.255 269.975 379.174 270.227 379.174 270.508C379.165 270.742 379.214 270.947 379.321 271.121C379.431 271.296 379.583 271.447 379.774 271.575C379.966 271.699 380.188 271.808 380.439 271.901C380.691 271.991 380.959 272.067 381.245 272.131L382.421 272.413C382.992 272.54 383.516 272.711 383.993 272.924C384.47 273.137 384.884 273.399 385.233 273.71C385.583 274.021 385.853 274.388 386.045 274.81C386.241 275.232 386.341 275.715 386.345 276.261C386.341 277.062 386.137 277.756 385.732 278.344C385.331 278.928 384.752 279.382 383.993 279.706C383.239 280.026 382.329 280.185 381.264 280.185C380.207 280.185 379.286 280.023 378.502 279.7C377.723 279.376 377.113 278.896 376.674 278.261C376.24 277.622 376.012 276.832 375.99 275.89H378.669C378.698 276.329 378.824 276.695 379.046 276.989C379.272 277.279 379.572 277.499 379.947 277.648C380.326 277.793 380.755 277.865 381.232 277.865C381.701 277.865 382.108 277.797 382.453 277.661C382.802 277.524 383.073 277.335 383.264 277.092C383.456 276.849 383.552 276.57 383.552 276.254C383.552 275.96 383.465 275.713 383.29 275.513C383.12 275.312 382.868 275.142 382.536 275.001C382.208 274.861 381.805 274.733 381.328 274.618L379.902 274.26C378.799 273.991 377.927 273.572 377.288 273.001C376.649 272.43 376.331 271.661 376.335 270.693C376.331 269.901 376.542 269.208 376.968 268.616C377.399 268.023 377.989 267.561 378.739 267.229C379.489 266.896 380.341 266.73 381.296 266.73C382.267 266.73 383.115 266.896 383.84 267.229C384.568 267.561 385.135 268.023 385.54 268.616C385.945 269.208 386.154 269.894 386.166 270.674H383.514Z" fill="white"/>
    <path d="M624.944 241.909V255H622.176V244.536H622.099L619.102 246.415V243.961L622.342 241.909H624.944ZM635.233 245.674C635.182 245.158 634.963 244.758 634.575 244.472C634.187 244.187 633.661 244.044 632.996 244.044C632.545 244.044 632.163 244.108 631.852 244.236C631.541 244.359 631.302 244.532 631.136 244.754C630.974 244.975 630.893 245.227 630.893 245.508C630.885 245.742 630.934 245.947 631.04 246.121C631.151 246.296 631.302 246.447 631.494 246.575C631.686 246.699 631.907 246.808 632.159 246.901C632.41 246.991 632.679 247.067 632.964 247.131L634.14 247.413C634.711 247.54 635.236 247.711 635.713 247.924C636.19 248.137 636.604 248.399 636.953 248.71C637.302 249.021 637.573 249.388 637.765 249.81C637.961 250.232 638.061 250.715 638.065 251.261C638.061 252.062 637.856 252.756 637.452 253.344C637.051 253.928 636.471 254.382 635.713 254.706C634.959 255.026 634.049 255.185 632.983 255.185C631.927 255.185 631.006 255.023 630.222 254.7C629.442 254.376 628.833 253.896 628.394 253.261C627.959 252.622 627.731 251.832 627.71 250.89H630.388C630.418 251.329 630.544 251.695 630.765 251.989C630.991 252.279 631.292 252.499 631.667 252.648C632.046 252.793 632.474 252.865 632.952 252.865C633.42 252.865 633.827 252.797 634.172 252.661C634.522 252.524 634.792 252.335 634.984 252.092C635.176 251.849 635.272 251.57 635.272 251.254C635.272 250.96 635.184 250.713 635.01 250.513C634.839 250.312 634.588 250.142 634.256 250.001C633.927 249.861 633.525 249.733 633.047 249.618L631.622 249.26C630.518 248.991 629.647 248.572 629.008 248.001C628.368 247.43 628.051 246.661 628.055 245.693C628.051 244.901 628.262 244.208 628.688 243.616C629.118 243.023 629.709 242.561 630.459 242.229C631.209 241.896 632.061 241.73 633.015 241.73C633.987 241.73 634.835 241.896 635.559 242.229C636.288 242.561 636.855 243.023 637.26 243.616C637.665 244.208 637.873 244.894 637.886 245.674H635.233ZM639.428 244.191V241.909H650.18V244.191H646.172V255H643.436V244.191H639.428ZM570.939 280H567.973L572.492 266.909H576.059L580.572 280H577.606L574.327 269.901H574.225L570.939 280ZM570.754 274.854H577.759V277.015H570.754V274.854ZM582.148 280V266.909H587.312C588.305 266.909 589.151 267.099 589.85 267.478C590.549 267.853 591.081 268.375 591.448 269.044C591.819 269.709 592.004 270.476 592.004 271.345C592.004 272.214 591.817 272.982 591.442 273.646C591.067 274.311 590.523 274.829 589.812 275.2C589.104 275.57 588.248 275.756 587.242 275.756H583.95V273.538H586.795C587.327 273.538 587.766 273.446 588.111 273.263C588.461 273.075 588.721 272.817 588.891 272.489C589.066 272.157 589.153 271.776 589.153 271.345C589.153 270.911 589.066 270.531 588.891 270.207C588.721 269.879 588.461 269.626 588.111 269.447C587.762 269.263 587.319 269.172 586.782 269.172H584.915V280H582.148ZM593.802 280V266.909H598.967C599.96 266.909 600.805 267.099 601.504 267.478C602.203 267.853 602.736 268.375 603.102 269.044C603.473 269.709 603.658 270.476 603.658 271.345C603.658 272.214 603.471 272.982 603.096 273.646C602.721 274.311 602.178 274.829 601.466 275.2C600.759 275.57 599.902 275.756 598.896 275.756H595.604V273.538H598.449C598.982 273.538 599.42 273.446 599.766 273.263C600.115 273.075 600.375 272.817 600.545 272.489C600.72 272.157 600.808 271.776 600.808 271.345C600.808 270.911 600.72 270.531 600.545 270.207C600.375 269.879 600.115 269.626 599.766 269.447C599.416 269.263 598.973 269.172 598.436 269.172H596.57V280H593.802ZM617.486 273.455C617.486 274.882 617.215 276.097 616.674 277.098C616.137 278.099 615.404 278.864 614.475 279.393C613.551 279.917 612.511 280.179 611.356 280.179C610.193 280.179 609.149 279.915 608.224 279.386C607.299 278.858 606.568 278.093 606.031 277.092C605.494 276.09 605.226 274.878 605.226 273.455C605.226 272.027 605.494 270.812 606.031 269.811C606.568 268.81 607.299 268.047 608.224 267.523C609.149 266.994 610.193 266.73 611.356 266.73C612.511 266.73 613.551 266.994 614.475 267.523C615.404 268.047 616.137 268.81 616.674 269.811C617.215 270.812 617.486 272.027 617.486 273.455ZM614.68 273.455C614.68 272.53 614.541 271.75 614.264 271.115C613.992 270.48 613.606 269.999 613.107 269.67C612.609 269.342 612.025 269.178 611.356 269.178C610.687 269.178 610.103 269.342 609.605 269.67C609.106 269.999 608.718 270.48 608.441 271.115C608.169 271.75 608.032 272.53 608.032 273.455C608.032 274.379 608.169 275.159 608.441 275.794C608.718 276.429 609.106 276.911 609.605 277.239C610.103 277.567 610.687 277.731 611.356 277.731C612.025 277.731 612.609 277.567 613.107 277.239C613.606 276.911 613.992 276.429 614.264 275.794C614.541 275.159 614.68 274.379 614.68 273.455ZM622.304 266.909V280H619.536V266.909H622.304ZM635.531 266.909V280H633.14L627.445 271.761H627.349V280H624.581V266.909H627.01L632.661 275.142H632.776V266.909H635.531ZM637.319 269.191V266.909H648.07V269.191H644.062V280H641.327V269.191H637.319ZM649.841 266.909H653.254L656.859 275.705H657.013L660.618 266.909H664.031V280H661.347V271.479H661.238L657.85 279.936H656.022L652.634 271.447H652.526V280H649.841V266.909ZM666.312 280V266.909H675.133V269.191H669.079V272.31H674.679V274.592H669.079V277.718H675.158V280H666.312ZM688.283 266.909V280H685.892L680.197 271.761H680.101V280H677.333V266.909H679.762L685.413 275.142H685.528V266.909H688.283ZM690.071 269.191V266.909H700.822V269.191H696.814V280H694.079V269.191H690.071Z" fill="white"/>
    <path d="M882.364 245.674C882.313 245.158 882.094 244.758 881.706 244.472C881.318 244.187 880.792 244.044 880.127 244.044C879.675 244.044 879.294 244.108 878.983 244.236C878.672 244.359 878.433 244.532 878.267 244.754C878.105 244.975 878.024 245.227 878.024 245.508C878.016 245.742 878.065 245.947 878.171 246.121C878.282 246.296 878.433 246.447 878.625 246.575C878.817 246.699 879.038 246.808 879.29 246.901C879.541 246.991 879.81 247.067 880.095 247.131L881.271 247.413C881.842 247.54 882.366 247.711 882.844 247.924C883.321 248.137 883.734 248.399 884.084 248.71C884.433 249.021 884.704 249.388 884.896 249.81C885.092 250.232 885.192 250.715 885.196 251.261C885.192 252.062 884.987 252.756 884.582 253.344C884.182 253.928 883.602 254.382 882.844 254.706C882.089 255.026 881.18 255.185 880.114 255.185C879.058 255.185 878.137 255.023 877.353 254.7C876.573 254.376 875.964 253.896 875.525 253.261C875.09 252.622 874.862 251.832 874.841 250.89H877.519C877.549 251.329 877.675 251.695 877.896 251.989C878.122 252.279 878.423 252.499 878.798 252.648C879.177 252.793 879.605 252.865 880.082 252.865C880.551 252.865 880.958 252.797 881.303 252.661C881.653 252.524 881.923 252.335 882.115 252.092C882.307 251.849 882.403 251.57 882.403 251.254C882.403 250.96 882.315 250.713 882.141 250.513C881.97 250.312 881.719 250.142 881.386 250.001C881.058 249.861 880.656 249.733 880.178 249.618L878.753 249.26C877.649 248.991 876.778 248.572 876.138 248.001C875.499 247.43 875.182 246.661 875.186 245.693C875.182 244.901 875.393 244.208 875.819 243.616C876.249 243.023 876.839 242.561 877.589 242.229C878.339 241.896 879.192 241.73 880.146 241.73C881.118 241.73 881.966 241.896 882.69 242.229C883.419 242.561 883.986 243.023 884.391 243.616C884.795 244.208 885.004 244.894 885.017 245.674H882.364ZM886.559 244.191V241.909H897.311V244.191H893.303V255H890.567V244.191H886.559ZM899.081 255V241.909H904.246C905.235 241.909 906.078 242.086 906.777 242.44C907.48 242.789 908.015 243.286 908.382 243.929C908.752 244.568 908.938 245.32 908.938 246.185C908.938 247.055 908.75 247.803 908.375 248.429C908 249.051 907.457 249.528 906.745 249.861C906.038 250.193 905.181 250.359 904.176 250.359H900.718V248.135H903.728C904.257 248.135 904.695 248.062 905.045 247.918C905.394 247.773 905.654 247.555 905.825 247.266C905.999 246.976 906.087 246.616 906.087 246.185C906.087 245.751 905.999 245.384 905.825 245.086C905.654 244.788 905.392 244.562 905.039 244.408C904.689 244.251 904.248 244.172 903.715 244.172H901.849V255H899.081ZM906.151 249.043L909.404 255H906.349L903.166 249.043H906.151ZM913.15 255H910.184L914.703 241.909H918.27L922.783 255H919.817L916.538 244.901H916.436L913.15 255ZM912.965 249.854H919.97V252.015H912.965V249.854ZM922.26 244.191V241.909H933.012V244.191H929.004V255H926.268V244.191H922.26ZM934.782 255V241.909H943.603V244.191H937.55V247.31H943.15V249.592H937.55V252.718H943.629V255H934.782ZM954.484 246.141C954.395 245.83 954.269 245.555 954.107 245.316C953.945 245.073 953.747 244.869 953.513 244.702C953.282 244.532 953.018 244.402 952.72 244.312C952.426 244.223 952.1 244.178 951.742 244.178C951.073 244.178 950.485 244.344 949.978 244.677C949.475 245.009 949.083 245.493 948.802 246.128C948.52 246.759 948.38 247.53 948.38 248.442C948.38 249.354 948.518 250.129 948.795 250.768C949.072 251.408 949.464 251.896 949.971 252.232C950.479 252.565 951.077 252.731 951.768 252.731C952.394 252.731 952.929 252.62 953.372 252.398C953.819 252.173 954.16 251.855 954.395 251.446C954.633 251.037 954.753 250.553 954.753 249.995L955.315 250.078H951.94V247.994H957.418V249.643C957.418 250.794 957.175 251.783 956.689 252.609C956.204 253.432 955.535 254.067 954.682 254.514C953.83 254.957 952.854 255.179 951.755 255.179C950.528 255.179 949.449 254.908 948.52 254.367C947.591 253.822 946.867 253.048 946.347 252.047C945.831 251.041 945.574 249.848 945.574 248.467C945.574 247.406 945.727 246.46 946.034 245.629C946.345 244.794 946.78 244.087 947.338 243.507C947.896 242.928 948.546 242.487 949.287 242.184C950.029 241.881 950.832 241.73 951.697 241.73C952.439 241.73 953.129 241.839 953.768 242.056C954.407 242.269 954.974 242.572 955.469 242.964C955.967 243.356 956.374 243.822 956.689 244.364C957.005 244.901 957.207 245.493 957.297 246.141H954.484ZM958.203 241.909H961.303L964.288 247.547H964.416L967.401 241.909H970.501L965.726 250.372V255H962.978V250.372L958.203 241.909ZM887.436 280V266.909H892.6C893.589 266.909 894.433 267.086 895.132 267.44C895.835 267.789 896.37 268.286 896.736 268.929C897.107 269.568 897.292 270.32 897.292 271.185C897.292 272.055 897.105 272.803 896.73 273.429C896.355 274.051 895.811 274.528 895.1 274.861C894.392 275.193 893.536 275.359 892.53 275.359H889.072V273.135H892.083C892.611 273.135 893.05 273.062 893.399 272.918C893.749 272.773 894.009 272.555 894.179 272.266C894.354 271.976 894.441 271.616 894.441 271.185C894.441 270.751 894.354 270.384 894.179 270.086C894.009 269.788 893.747 269.562 893.393 269.408C893.044 269.251 892.603 269.172 892.07 269.172H890.203V280H887.436ZM894.505 274.043L897.759 280H894.703L891.52 274.043H894.505ZM899.248 280V266.909H908.069V269.191H902.016V272.31H907.615V274.592H902.016V277.718H908.095V280H899.248ZM910.27 280V266.909H915.434C916.427 266.909 917.273 267.099 917.972 267.478C918.671 267.853 919.204 268.375 919.57 269.044C919.941 269.709 920.126 270.476 920.126 271.345C920.126 272.214 919.939 272.982 919.564 273.646C919.189 274.311 918.645 274.829 917.934 275.2C917.226 275.57 916.37 275.756 915.364 275.756H912.072V273.538H914.917C915.449 273.538 915.888 273.446 916.233 273.263C916.583 273.075 916.843 272.817 917.013 272.489C917.188 272.157 917.275 271.776 917.275 271.345C917.275 270.911 917.188 270.531 917.013 270.207C916.843 269.879 916.583 269.626 916.233 269.447C915.884 269.263 915.441 269.172 914.904 269.172H913.037V280H910.27ZM933.954 273.455C933.954 274.882 933.683 276.097 933.142 277.098C932.605 278.099 931.872 278.864 930.943 279.393C930.018 279.917 928.979 280.179 927.824 280.179C926.66 280.179 925.616 279.915 924.692 279.386C923.767 278.858 923.036 278.093 922.499 277.092C921.962 276.09 921.694 274.878 921.694 273.455C921.694 272.027 921.962 270.812 922.499 269.811C923.036 268.81 923.767 268.047 924.692 267.523C925.616 266.994 926.66 266.73 927.824 266.73C928.979 266.73 930.018 266.994 930.943 267.523C931.872 268.047 932.605 268.81 933.142 269.811C933.683 270.812 933.954 272.027 933.954 273.455ZM931.148 273.455C931.148 272.53 931.009 271.75 930.732 271.115C930.459 270.48 930.074 269.999 929.575 269.67C929.077 269.342 928.493 269.178 927.824 269.178C927.155 269.178 926.571 269.342 926.072 269.67C925.574 269.999 925.186 270.48 924.909 271.115C924.636 271.75 924.5 272.53 924.5 273.455C924.5 274.379 924.636 275.159 924.909 275.794C925.186 276.429 925.574 276.911 926.072 277.239C926.571 277.567 927.155 277.731 927.824 277.731C928.493 277.731 929.077 277.567 929.575 277.239C930.074 276.911 930.459 276.429 930.732 275.794C931.009 275.159 931.148 274.379 931.148 273.455ZM936.004 280V266.909H941.169C942.157 266.909 943.001 267.086 943.7 267.44C944.403 267.789 944.938 268.286 945.304 268.929C945.675 269.568 945.861 270.32 945.861 271.185C945.861 272.055 945.673 272.803 945.298 273.429C944.923 274.051 944.38 274.528 943.668 274.861C942.961 275.193 942.104 275.359 941.098 275.359H937.64V273.135H940.651C941.179 273.135 941.618 273.062 941.968 272.918C942.317 272.773 942.577 272.555 942.748 272.266C942.922 271.976 943.01 271.616 943.01 271.185C943.01 270.751 942.922 270.384 942.748 270.086C942.577 269.788 942.315 269.562 941.961 269.408C941.612 269.251 941.171 269.172 940.638 269.172H938.772V280H936.004ZM943.074 274.043L946.327 280H943.272L940.089 274.043H943.074ZM947.318 269.191V266.909H958.069V269.191H954.062V280H951.326V269.191H947.318Z" fill="white"/>
    <path d="M1188.45 255H1185.48L1190 241.909H1193.57L1198.08 255H1195.12L1191.84 244.901H1191.74L1188.45 255ZM1188.26 249.854H1195.27V252.015H1188.26V249.854ZM1204.3 255H1199.66V241.909H1204.34C1205.65 241.909 1206.79 242.171 1207.74 242.695C1208.69 243.215 1209.42 243.963 1209.93 244.939C1210.45 245.915 1210.7 247.082 1210.7 248.442C1210.7 249.805 1210.45 250.977 1209.93 251.957C1209.42 252.937 1208.68 253.69 1207.73 254.214C1206.77 254.738 1205.63 255 1204.3 255ZM1202.43 252.629H1204.18C1205 252.629 1205.69 252.484 1206.25 252.194C1206.81 251.9 1207.23 251.446 1207.51 250.832C1207.8 250.214 1207.94 249.418 1207.94 248.442C1207.94 247.474 1207.8 246.684 1207.51 246.07C1207.23 245.457 1206.81 245.005 1206.25 244.715C1205.7 244.425 1205.01 244.281 1204.19 244.281H1202.43V252.629ZM1214.38 241.909L1217.54 251.855H1217.67L1220.84 241.909H1223.9L1219.39 255H1215.83L1211.31 241.909H1214.38ZM1228.25 241.909V255H1225.48V241.909H1228.25ZM1242.08 246.492H1239.28C1239.23 246.13 1239.12 245.808 1238.96 245.527C1238.81 245.241 1238.6 244.999 1238.36 244.798C1238.11 244.598 1237.82 244.445 1237.5 244.338C1237.18 244.232 1236.83 244.178 1236.46 244.178C1235.78 244.178 1235.19 244.347 1234.69 244.683C1234.18 245.016 1233.79 245.501 1233.52 246.141C1233.24 246.776 1233.1 247.547 1233.1 248.455C1233.1 249.388 1233.24 250.172 1233.52 250.807C1233.8 251.442 1234.19 251.921 1234.69 252.245C1235.2 252.569 1235.78 252.731 1236.44 252.731C1236.81 252.731 1237.15 252.682 1237.47 252.584C1237.79 252.486 1238.07 252.343 1238.32 252.156C1238.56 251.964 1238.77 251.732 1238.93 251.459C1239.1 251.186 1239.21 250.875 1239.28 250.526L1242.08 250.538C1242 251.139 1241.82 251.719 1241.53 252.277C1241.25 252.831 1240.86 253.327 1240.38 253.766C1239.89 254.201 1239.32 254.546 1238.65 254.802C1237.98 255.053 1237.23 255.179 1236.39 255.179C1235.23 255.179 1234.18 254.915 1233.26 254.386C1232.35 253.858 1231.62 253.093 1231.09 252.092C1230.56 251.09 1230.3 249.878 1230.3 248.455C1230.3 247.027 1230.56 245.812 1231.1 244.811C1231.64 243.81 1232.37 243.047 1233.29 242.523C1234.21 241.994 1235.24 241.73 1236.39 241.73C1237.15 241.73 1237.86 241.837 1238.5 242.05C1239.15 242.263 1239.73 242.574 1240.23 242.983C1240.74 243.388 1241.15 243.884 1241.46 244.472C1241.78 245.06 1241.99 245.734 1242.08 246.492ZM1244.06 255V241.909H1252.88V244.191H1246.83V247.31H1252.43V249.592H1246.83V252.718H1252.91V255H1244.06ZM1184.44 280V266.909H1189.6C1190.59 266.909 1191.43 267.086 1192.13 267.44C1192.83 267.789 1193.37 268.286 1193.74 268.929C1194.11 269.568 1194.29 270.32 1194.29 271.185C1194.29 272.055 1194.1 272.803 1193.73 273.429C1193.35 274.051 1192.81 274.528 1192.1 274.861C1191.39 275.193 1190.54 275.359 1189.53 275.359H1186.07V273.135H1189.08C1189.61 273.135 1190.05 273.062 1190.4 272.918C1190.75 272.773 1191.01 272.555 1191.18 272.266C1191.35 271.976 1191.44 271.616 1191.44 271.185C1191.44 270.751 1191.35 270.384 1191.18 270.086C1191.01 269.788 1190.75 269.562 1190.39 269.408C1190.04 269.251 1189.6 269.172 1189.07 269.172H1187.2V280H1184.44ZM1191.51 274.043L1194.76 280H1191.7L1188.52 274.043H1191.51ZM1196.25 280V266.909H1205.07V269.191H1199.02V272.31H1204.62V274.592H1199.02V277.718H1205.09V280H1196.25ZM1207.27 280V266.909H1212.43C1213.43 266.909 1214.27 267.099 1214.97 267.478C1215.67 267.853 1216.2 268.375 1216.57 269.044C1216.94 269.709 1217.13 270.476 1217.13 271.345C1217.13 272.214 1216.94 272.982 1216.56 273.646C1216.19 274.311 1215.65 274.829 1214.93 275.2C1214.23 275.57 1213.37 275.756 1212.36 275.756H1209.07V273.538H1211.92C1212.45 273.538 1212.89 273.446 1213.23 273.263C1213.58 273.075 1213.84 272.817 1214.01 272.489C1214.19 272.157 1214.28 271.776 1214.28 271.345C1214.28 270.911 1214.19 270.531 1214.01 270.207C1213.84 269.879 1213.58 269.626 1213.23 269.447C1212.88 269.263 1212.44 269.172 1211.9 269.172H1210.04V280H1207.27ZM1230.95 273.455C1230.95 274.882 1230.68 276.097 1230.14 277.098C1229.61 278.099 1228.87 278.864 1227.94 279.393C1227.02 279.917 1225.98 280.179 1224.82 280.179C1223.66 280.179 1222.62 279.915 1221.69 279.386C1220.77 278.858 1220.04 278.093 1219.5 277.092C1218.96 276.09 1218.69 274.878 1218.69 273.455C1218.69 272.027 1218.96 270.812 1219.5 269.811C1220.04 268.81 1220.77 268.047 1221.69 267.523C1222.62 266.994 1223.66 266.73 1224.82 266.73C1225.98 266.73 1227.02 266.994 1227.94 267.523C1228.87 268.047 1229.61 268.81 1230.14 269.811C1230.68 270.812 1230.95 272.027 1230.95 273.455ZM1228.15 273.455C1228.15 272.53 1228.01 271.75 1227.73 271.115C1227.46 270.48 1227.07 269.999 1226.58 269.67C1226.08 269.342 1225.49 269.178 1224.82 269.178C1224.15 269.178 1223.57 269.342 1223.07 269.67C1222.57 269.999 1222.19 270.48 1221.91 271.115C1221.64 271.75 1221.5 272.53 1221.5 273.455C1221.5 274.379 1221.64 275.159 1221.91 275.794C1222.19 276.429 1222.57 276.911 1223.07 277.239C1223.57 277.567 1224.15 277.731 1224.82 277.731C1225.49 277.731 1226.08 277.567 1226.58 277.239C1227.07 276.911 1227.46 276.429 1227.73 275.794C1228.01 275.159 1228.15 274.379 1228.15 273.455ZM1233 280V266.909H1238.17C1239.16 266.909 1240 267.086 1240.7 267.44C1241.4 267.789 1241.94 268.286 1242.3 268.929C1242.68 269.568 1242.86 270.32 1242.86 271.185C1242.86 272.055 1242.67 272.803 1242.3 273.429C1241.92 274.051 1241.38 274.528 1240.67 274.861C1239.96 275.193 1239.1 275.359 1238.1 275.359H1234.64V273.135H1237.65C1238.18 273.135 1238.62 273.062 1238.97 272.918C1239.32 272.773 1239.58 272.555 1239.75 272.266C1239.92 271.976 1240.01 271.616 1240.01 271.185C1240.01 270.751 1239.92 270.384 1239.75 270.086C1239.58 269.788 1239.32 269.562 1238.96 269.408C1238.61 269.251 1238.17 269.172 1237.64 269.172H1235.77V280H1233ZM1240.07 274.043L1243.33 280H1240.27L1237.09 274.043H1240.07ZM1244.32 269.191V266.909H1255.07V269.191H1251.06V280H1248.33V269.191H1244.32Z" fill="white"/>
    <path d="M1459.36 245.674C1459.31 245.158 1459.09 244.758 1458.71 244.472C1458.32 244.187 1457.79 244.044 1457.13 244.044C1456.68 244.044 1456.29 244.108 1455.98 244.236C1455.67 244.359 1455.43 244.532 1455.27 244.754C1455.11 244.975 1455.02 245.227 1455.02 245.508C1455.02 245.742 1455.06 245.947 1455.17 246.121C1455.28 246.296 1455.43 246.447 1455.62 246.575C1455.82 246.699 1456.04 246.808 1456.29 246.901C1456.54 246.991 1456.81 247.067 1457.1 247.131L1458.27 247.413C1458.84 247.54 1459.37 247.711 1459.84 247.924C1460.32 248.137 1460.73 248.399 1461.08 248.71C1461.43 249.021 1461.7 249.388 1461.9 249.81C1462.09 250.232 1462.19 250.715 1462.2 251.261C1462.19 252.062 1461.99 252.756 1461.58 253.344C1461.18 253.928 1460.6 254.382 1459.84 254.706C1459.09 255.026 1458.18 255.185 1457.11 255.185C1456.06 255.185 1455.14 255.023 1454.35 254.7C1453.57 254.376 1452.96 253.896 1452.52 253.261C1452.09 252.622 1451.86 251.832 1451.84 250.89H1454.52C1454.55 251.329 1454.67 251.695 1454.9 251.989C1455.12 252.279 1455.42 252.499 1455.8 252.648C1456.18 252.793 1456.61 252.865 1457.08 252.865C1457.55 252.865 1457.96 252.797 1458.3 252.661C1458.65 252.524 1458.92 252.335 1459.12 252.092C1459.31 251.849 1459.4 251.57 1459.4 251.254C1459.4 250.96 1459.32 250.713 1459.14 250.513C1458.97 250.312 1458.72 250.142 1458.39 250.001C1458.06 249.861 1457.66 249.733 1457.18 249.618L1455.75 249.26C1454.65 248.991 1453.78 248.572 1453.14 248.001C1452.5 247.43 1452.18 246.661 1452.19 245.693C1452.18 244.901 1452.39 244.208 1452.82 243.616C1453.25 243.023 1453.84 242.561 1454.59 242.229C1455.34 241.896 1456.19 241.73 1457.15 241.73C1458.12 241.73 1458.97 241.896 1459.69 242.229C1460.42 242.561 1460.99 243.023 1461.39 243.616C1461.8 244.208 1462 244.894 1462.02 245.674H1459.36ZM1463.56 244.191V241.909H1474.31V244.191H1470.3V255H1467.57V244.191H1463.56ZM1476.08 255V241.909H1481.25C1482.23 241.909 1483.08 242.086 1483.78 242.44C1484.48 242.789 1485.02 243.286 1485.38 243.929C1485.75 244.568 1485.94 245.32 1485.94 246.185C1485.94 247.055 1485.75 247.803 1485.38 248.429C1485 249.051 1484.46 249.528 1483.75 249.861C1483.04 250.193 1482.18 250.359 1481.18 250.359H1477.72V248.135H1480.73C1481.26 248.135 1481.7 248.062 1482.04 247.918C1482.39 247.773 1482.65 247.555 1482.82 247.266C1483 246.976 1483.09 246.616 1483.09 246.185C1483.09 245.751 1483 245.384 1482.82 245.086C1482.65 244.788 1482.39 244.562 1482.04 244.408C1481.69 244.251 1481.25 244.172 1480.72 244.172H1478.85V255H1476.08ZM1483.15 249.043L1486.4 255H1483.35L1480.17 249.043H1483.15ZM1490.15 255H1487.18L1491.7 241.909H1495.27L1499.78 255H1496.82L1493.54 244.901H1493.44L1490.15 255ZM1489.96 249.854H1496.97V252.015H1489.96V249.854ZM1499.26 244.191V241.909H1510.01V244.191H1506V255H1503.27V244.191H1499.26ZM1511.78 255V241.909H1520.6V244.191H1514.55V247.31H1520.15V249.592H1514.55V252.718H1520.63V255H1511.78ZM1531.48 246.141C1531.39 245.83 1531.27 245.555 1531.11 245.316C1530.95 245.073 1530.75 244.869 1530.51 244.702C1530.28 244.532 1530.02 244.402 1529.72 244.312C1529.43 244.223 1529.1 244.178 1528.74 244.178C1528.07 244.178 1527.48 244.344 1526.98 244.677C1526.47 245.009 1526.08 245.493 1525.8 246.128C1525.52 246.759 1525.38 247.53 1525.38 248.442C1525.38 249.354 1525.52 250.129 1525.8 250.768C1526.07 251.408 1526.46 251.896 1526.97 252.232C1527.48 252.565 1528.08 252.731 1528.77 252.731C1529.39 252.731 1529.93 252.62 1530.37 252.398C1530.82 252.173 1531.16 251.855 1531.39 251.446C1531.63 251.037 1531.75 250.553 1531.75 249.995L1532.32 250.078H1528.94V247.994H1534.42V249.643C1534.42 250.794 1534.18 251.783 1533.69 252.609C1533.2 253.432 1532.53 254.067 1531.68 254.514C1530.83 254.957 1529.85 255.179 1528.75 255.179C1527.53 255.179 1526.45 254.908 1525.52 254.367C1524.59 253.822 1523.87 253.048 1523.35 252.047C1522.83 251.041 1522.57 249.848 1522.57 248.467C1522.57 247.406 1522.73 246.46 1523.03 245.629C1523.34 244.794 1523.78 244.087 1524.34 243.507C1524.9 242.928 1525.55 242.487 1526.29 242.184C1527.03 241.881 1527.83 241.73 1528.7 241.73C1529.44 241.73 1530.13 241.839 1530.77 242.056C1531.41 242.269 1531.97 242.572 1532.47 242.964C1532.97 243.356 1533.37 243.822 1533.69 244.364C1534 244.901 1534.21 245.493 1534.3 246.141H1531.48ZM1535.2 241.909H1538.3L1541.29 247.547H1541.42L1544.4 241.909H1547.5L1542.73 250.372V255H1539.98V250.372L1535.2 241.909ZM1422.5 266.909V280H1419.73V266.909H1422.5ZM1424.78 266.909H1428.19L1431.8 275.705H1431.95L1435.56 266.909H1438.97V280H1436.29V271.479H1436.18L1432.79 279.936H1430.96L1427.57 271.447H1427.46V280H1424.78V266.909ZM1441.25 280V266.909H1446.41C1447.41 266.909 1448.25 267.099 1448.95 267.478C1449.65 267.853 1450.18 268.375 1450.55 269.044C1450.92 269.709 1451.11 270.476 1451.11 271.345C1451.11 272.214 1450.92 272.982 1450.54 273.646C1450.17 274.311 1449.63 274.829 1448.91 275.2C1448.21 275.57 1447.35 275.756 1446.34 275.756H1443.05V273.538H1445.9C1446.43 273.538 1446.87 273.446 1447.21 273.263C1447.56 273.075 1447.82 272.817 1447.99 272.489C1448.17 272.157 1448.26 271.776 1448.26 271.345C1448.26 270.911 1448.17 270.531 1447.99 270.207C1447.82 269.879 1447.56 269.626 1447.21 269.447C1446.86 269.263 1446.42 269.172 1445.88 269.172H1444.02V280H1441.25ZM1452.9 280V266.909H1455.67V277.718H1461.28V280H1452.9ZM1463.12 280V266.909H1471.94V269.191H1465.89V272.31H1471.48V274.592H1465.89V277.718H1471.96V280H1463.12ZM1474.14 266.909H1477.55L1481.16 275.705H1481.31L1484.92 266.909H1488.33V280H1485.64V271.479H1485.54L1482.15 279.936H1480.32L1476.93 271.447H1476.82V280H1474.14V266.909ZM1490.61 280V266.909H1499.43V269.191H1493.38V272.31H1498.98V274.592H1493.38V277.718H1499.46V280H1490.61ZM1512.58 266.909V280H1510.19L1504.49 271.761H1504.4V280H1501.63V266.909H1504.06L1509.71 275.142H1509.83V266.909H1512.58ZM1514.37 269.191V266.909H1525.12V269.191H1521.11V280H1518.38V269.191H1514.37ZM1527.55 280H1524.58L1529.1 266.909H1532.67L1537.18 280H1534.21L1530.94 269.901H1530.83L1527.55 280ZM1527.36 274.854H1534.37V277.015H1527.36V274.854ZM1536.66 269.191V266.909H1547.41V269.191H1543.4V280H1540.67V269.191H1536.66ZM1551.95 266.909V280H1549.18V266.909H1551.95ZM1566.25 273.455C1566.25 274.882 1565.98 276.097 1565.44 277.098C1564.91 278.099 1564.17 278.864 1563.24 279.393C1562.32 279.917 1561.28 280.179 1560.12 280.179C1558.96 280.179 1557.92 279.915 1556.99 279.386C1556.07 278.858 1555.34 278.093 1554.8 277.092C1554.26 276.09 1553.99 274.878 1553.99 273.455C1553.99 272.027 1554.26 270.812 1554.8 269.811C1555.34 268.81 1556.07 268.047 1556.99 267.523C1557.92 266.994 1558.96 266.73 1560.12 266.73C1561.28 266.73 1562.32 266.994 1563.24 267.523C1564.17 268.047 1564.91 268.81 1565.44 269.811C1565.98 270.812 1566.25 272.027 1566.25 273.455ZM1563.45 273.455C1563.45 272.53 1563.31 271.75 1563.03 271.115C1562.76 270.48 1562.37 269.999 1561.88 269.67C1561.38 269.342 1560.79 269.178 1560.12 269.178C1559.46 269.178 1558.87 269.342 1558.37 269.67C1557.87 269.999 1557.49 270.48 1557.21 271.115C1556.94 271.75 1556.8 272.53 1556.8 273.455C1556.8 274.379 1556.94 275.159 1557.21 275.794C1557.49 276.429 1557.87 276.911 1558.37 277.239C1558.87 277.567 1559.46 277.731 1560.12 277.731C1560.79 277.731 1561.38 277.567 1561.88 277.239C1562.37 276.911 1562.76 276.429 1563.03 275.794C1563.31 275.159 1563.45 274.379 1563.45 273.455ZM1579.25 266.909V280H1576.86L1571.17 271.761H1571.07V280H1568.3V266.909H1570.73L1576.38 275.142H1576.5V266.909H1579.25Z" fill="white"/>
    <circle cx="634.501" cy="150.383" r="46.8237" transform="rotate(0.833608 634.501 150.383)" fill="#7474C1"/>
    <mask id="mask3_0_1" style="mask-type:alpha" maskUnits="userSpaceOnUse" x="609" y="125" width="51" height="52">
        <rect x="609.166" y="125.842" width="50.6667" height="50.6667" fill="#D9D9D9"/>
    </mask>
    <g mask="url(#mask3_0_1)">
        <path d="M616.765 174.398V171.231H652.232V174.398H616.765ZM616.765 131.12V127.953H652.232V131.12H616.765ZM634.498 153.075C636.257 153.075 637.735 152.477 638.932 151.281C640.128 150.085 640.726 148.607 640.726 146.848C640.726 145.088 640.128 143.611 638.932 142.414C637.735 141.218 636.257 140.62 634.498 140.62C632.739 140.62 631.261 141.218 630.065 142.414C628.869 143.611 628.27 145.088 628.27 146.848C628.27 148.607 628.869 150.085 630.065 151.281C631.261 152.477 632.739 153.075 634.498 153.075ZM616.132 168.064C615.287 168.064 614.548 167.748 613.915 167.114C613.282 166.481 612.965 165.742 612.965 164.898V137.453C612.965 136.538 613.282 135.782 613.915 135.184C614.548 134.586 615.287 134.286 616.132 134.286H652.865C653.709 134.286 654.448 134.603 655.082 135.236C655.715 135.87 656.032 136.609 656.032 137.453V164.898C656.032 165.742 655.715 166.481 655.082 167.114C654.448 167.748 653.709 168.064 652.865 168.064H616.132ZM620.776 164.898C622.57 162.681 624.699 161.018 627.162 159.91C629.625 158.802 632.062 158.248 634.472 158.248C636.882 158.248 639.345 158.802 641.861 159.91C644.376 161.018 646.496 162.681 648.22 164.898H652.865V137.453H616.132V164.898H620.776ZM625.737 164.898H643.365C642.274 163.842 640.999 162.998 639.538 162.364C638.078 161.731 636.398 161.414 634.498 161.414C632.598 161.414 630.936 161.731 629.511 162.364C628.086 162.998 626.828 163.842 625.737 164.898ZM634.507 149.909C633.657 149.909 632.941 149.61 632.361 149.011C631.78 148.413 631.49 147.692 631.49 146.848C631.49 146.003 631.777 145.282 632.352 144.684C632.927 144.086 633.64 143.786 634.49 143.786C635.34 143.786 636.055 144.086 636.636 144.684C637.216 145.282 637.507 146.003 637.507 146.848C637.507 147.692 637.219 148.413 636.644 149.011C636.069 149.61 635.357 149.909 634.507 149.909Z" fill="white"/>
    </g>
    <circle cx="1220.63" cy="150.945" r="46.8237" transform="rotate(0.833608 1220.63 150.945)" fill="#7474C1"/>
    <mask id="mask4_0_1" style="mask-type:alpha" maskUnits="userSpaceOnUse" x="1195" y="126" width="51" height="52">
        <rect x="1195.29" y="126.404" width="50.6667" height="50.6667" fill="#D9D9D9"/>
    </mask>
    <g mask="url(#mask4_0_1)">
        <path d="M1202.89 174.96V171.793H1238.36V174.96H1202.89ZM1202.89 131.682V128.515H1238.36V131.682H1202.89ZM1220.63 153.637C1222.38 153.637 1223.86 153.039 1225.06 151.843C1226.25 150.647 1226.85 149.169 1226.85 147.41C1226.85 145.65 1226.25 144.173 1225.06 142.976C1223.86 141.78 1222.38 141.182 1220.63 141.182C1218.87 141.182 1217.39 141.78 1216.19 142.976C1215 144.173 1214.4 145.65 1214.4 147.41C1214.4 149.169 1215 150.647 1216.19 151.843C1217.39 153.039 1218.87 153.637 1220.63 153.637ZM1202.26 168.626C1201.41 168.626 1200.68 168.31 1200.04 167.676C1199.41 167.043 1199.09 166.304 1199.09 165.46V138.015C1199.09 137.1 1199.41 136.344 1200.04 135.746C1200.68 135.148 1201.41 134.848 1202.26 134.848H1238.99C1239.84 134.848 1240.58 135.165 1241.21 135.798C1241.84 136.432 1242.16 137.171 1242.16 138.015V165.46C1242.16 166.304 1241.84 167.043 1241.21 167.676C1240.58 168.31 1239.84 168.626 1238.99 168.626H1202.26ZM1206.9 165.46C1208.7 163.243 1210.83 161.58 1213.29 160.472C1215.75 159.364 1218.19 158.81 1220.6 158.81C1223.01 158.81 1225.47 159.364 1227.99 160.472C1230.5 161.58 1232.62 163.243 1234.35 165.46H1238.99V138.015H1202.26V165.46H1206.9ZM1211.86 165.46H1229.49C1228.4 164.404 1227.13 163.56 1225.67 162.926C1224.21 162.293 1222.53 161.976 1220.63 161.976C1218.73 161.976 1217.06 162.293 1215.64 162.926C1214.21 163.56 1212.95 164.404 1211.86 165.46ZM1220.63 150.471C1219.78 150.471 1219.07 150.172 1218.49 149.573C1217.91 148.975 1217.62 148.254 1217.62 147.41C1217.62 146.565 1217.9 145.844 1218.48 145.246C1219.05 144.648 1219.77 144.348 1220.62 144.348C1221.47 144.348 1222.18 144.648 1222.76 145.246C1223.34 145.844 1223.63 146.565 1223.63 147.41C1223.63 148.254 1223.35 148.975 1222.77 149.573C1222.2 150.172 1221.48 150.471 1220.63 150.471Z" fill="white"/>
    </g>
    <circle cx="1496.8" cy="150.5" r="36.9661" transform="rotate(0.833608 1496.8 150.5)" fill="#7474C1"/>
    <mask id="mask5_0_1" style="mask-type:alpha" maskUnits="userSpaceOnUse" x="1478" y="132" width="37" height="37">
        <rect x="1478.8" y="132.5" width="36" height="36" fill="#D9D9D9"/>
    </mask>
    <g mask="url(#mask5_0_1)">
        <path d="M1501.45 164V159.313H1495.67V143.938H1492.18V148.813H1481.8V137H1492.18V141.688H1501.45V137H1511.8V148.813H1501.45V143.938H1497.92V157.063H1501.45V152.188H1511.8V164H1501.45ZM1503.7 146.563H1509.55V139.25H1503.7V146.563ZM1503.7 161.75H1509.55V154.438H1503.7V161.75ZM1484.05 146.563H1489.93V139.25H1484.05V146.563Z" fill="white"/>
    </g>
    <path d="M849.615 0.545454H853.749L857.729 8.0625H857.9L861.88 0.545454H866.013L859.647 11.8295V18H855.982V11.8295L849.615 0.545454ZM871.133 18.2557C869.809 18.2557 868.664 17.9744 867.699 17.4119C866.738 16.8437 865.997 16.054 865.474 15.0426C864.951 14.0256 864.69 12.8466 864.69 11.5057C864.69 10.1534 864.951 8.97159 865.474 7.96023C865.997 6.94318 866.738 6.15341 867.699 5.59091C868.664 5.02273 869.809 4.73864 871.133 4.73864C872.457 4.73864 873.599 5.02273 874.559 5.59091C875.525 6.15341 876.27 6.94318 876.792 7.96023C877.315 8.97159 877.576 10.1534 877.576 11.5057C877.576 12.8466 877.315 14.0256 876.792 15.0426C876.27 16.054 875.525 16.8437 874.559 17.4119C873.599 17.9744 872.457 18.2557 871.133 18.2557ZM871.15 15.4432C871.752 15.4432 872.255 15.2727 872.659 14.9318C873.062 14.5852 873.366 14.1136 873.571 13.517C873.781 12.9205 873.886 12.2415 873.886 11.4801C873.886 10.7188 873.781 10.0398 873.571 9.44318C873.366 8.84659 873.062 8.375 872.659 8.02841C872.255 7.68182 871.752 7.50852 871.15 7.50852C870.542 7.50852 870.031 7.68182 869.616 8.02841C869.207 8.375 868.897 8.84659 868.687 9.44318C868.483 10.0398 868.38 10.7188 868.38 11.4801C868.38 12.2415 868.483 12.9205 868.687 13.517C868.897 14.1136 869.207 14.5852 869.616 14.9318C870.031 15.2727 870.542 15.4432 871.15 15.4432ZM888.332 12.4261V4.90909H891.963V18H888.477V15.6222H888.341C888.045 16.3892 887.554 17.0057 886.866 17.4716C886.184 17.9375 885.352 18.1705 884.369 18.1705C883.494 18.1705 882.724 17.9716 882.059 17.5739C881.395 17.1761 880.875 16.6108 880.5 15.8778C880.13 15.1449 879.943 14.267 879.937 13.2443V4.90909H883.568V12.5966C883.574 13.3693 883.781 13.9801 884.19 14.429C884.599 14.8778 885.147 15.1023 885.835 15.1023C886.272 15.1023 886.681 15.0028 887.062 14.804C887.443 14.5994 887.75 14.2983 887.983 13.9006C888.221 13.5028 888.338 13.0114 888.332 12.4261ZM904.154 18.2472C903.319 18.2472 902.575 18.1023 901.922 17.8125C901.268 17.517 900.751 17.0824 900.37 16.5085C899.995 15.929 899.808 15.2074 899.808 14.3438C899.808 13.6165 899.941 13.0057 900.208 12.5114C900.475 12.017 900.839 11.6193 901.299 11.3182C901.76 11.017 902.282 10.7898 902.868 10.6364C903.458 10.483 904.078 10.375 904.725 10.3125C905.487 10.233 906.1 10.1591 906.566 10.0909C907.032 10.017 907.37 9.90909 907.581 9.76705C907.791 9.625 907.896 9.41477 907.896 9.13636V9.08523C907.896 8.54545 907.725 8.12784 907.385 7.83239C907.049 7.53693 906.572 7.3892 905.953 7.3892C905.299 7.3892 904.779 7.53409 904.393 7.82386C904.007 8.10795 903.751 8.46591 903.626 8.89773L900.268 8.625C900.439 7.82955 900.774 7.14205 901.274 6.5625C901.774 5.97727 902.419 5.52841 903.208 5.21591C904.004 4.89773 904.924 4.73864 905.97 4.73864C906.697 4.73864 907.393 4.82386 908.058 4.99432C908.728 5.16477 909.322 5.42898 909.839 5.78693C910.362 6.14489 910.774 6.60511 911.075 7.16761C911.376 7.72443 911.527 8.39205 911.527 9.17045V18H908.083V16.1847H907.981C907.771 16.5938 907.49 16.9545 907.137 17.267C906.785 17.5739 906.362 17.8153 905.868 17.9915C905.373 18.1619 904.802 18.2472 904.154 18.2472ZM905.194 15.7415C905.728 15.7415 906.2 15.6364 906.609 15.4261C907.018 15.2102 907.339 14.9205 907.572 14.5568C907.805 14.1932 907.922 13.7812 907.922 13.321V11.9318C907.808 12.0057 907.652 12.0739 907.453 12.1364C907.26 12.1932 907.041 12.2472 906.797 12.2983C906.552 12.3437 906.308 12.3864 906.064 12.4261C905.819 12.4602 905.598 12.4915 905.399 12.5199C904.973 12.5824 904.6 12.6818 904.282 12.8182C903.964 12.9545 903.717 13.1392 903.541 13.3722C903.365 13.5994 903.277 13.8835 903.277 14.2244C903.277 14.7188 903.456 15.0966 903.814 15.358C904.177 15.6136 904.637 15.7415 905.194 15.7415ZM914.343 18V4.90909H917.863V7.19318H918C918.238 6.38068 918.639 5.76705 919.201 5.35227C919.764 4.93182 920.412 4.72159 921.145 4.72159C921.326 4.72159 921.522 4.73295 921.733 4.75568C921.943 4.77841 922.127 4.80966 922.287 4.84943V8.07102C922.116 8.01989 921.88 7.97443 921.579 7.93466C921.278 7.89489 921.002 7.875 920.752 7.875C920.218 7.875 919.741 7.99148 919.321 8.22443C918.906 8.4517 918.576 8.76989 918.332 9.17898C918.093 9.58807 917.974 10.0597 917.974 10.5938V18H914.343ZM929.52 18.2557C928.174 18.2557 927.015 17.983 926.043 17.4375C925.077 16.8864 924.333 16.108 923.81 15.1023C923.287 14.0909 923.026 12.8949 923.026 11.5142C923.026 10.1676 923.287 8.9858 923.81 7.96875C924.333 6.9517 925.069 6.15909 926.017 5.59091C926.972 5.02273 928.091 4.73864 929.375 4.73864C930.239 4.73864 931.043 4.87784 931.787 5.15625C932.537 5.42898 933.191 5.84091 933.748 6.39205C934.31 6.94318 934.748 7.63636 935.06 8.47159C935.373 9.30114 935.529 10.2727 935.529 11.3864V12.3835H924.475V10.1335H932.111C932.111 9.6108 931.998 9.14773 931.77 8.74432C931.543 8.34091 931.228 8.02557 930.824 7.7983C930.426 7.56534 929.963 7.44886 929.435 7.44886C928.884 7.44886 928.395 7.5767 927.969 7.83239C927.549 8.08239 927.219 8.42045 926.98 8.84659C926.742 9.26705 926.62 9.7358 926.614 10.2528V12.392C926.614 13.0398 926.733 13.5994 926.972 14.071C927.216 14.5426 927.56 14.9062 928.003 15.1619C928.446 15.4176 928.972 15.5455 929.58 15.5455C929.983 15.5455 930.353 15.4886 930.688 15.375C931.023 15.2614 931.31 15.0909 931.549 14.8636C931.787 14.6364 931.969 14.358 932.094 14.0284L935.452 14.25C935.282 15.0568 934.932 15.7614 934.404 16.3636C933.881 16.9602 933.205 17.4261 932.375 17.7614C931.551 18.0909 930.6 18.2557 929.52 18.2557ZM947.083 10.4318V18H943.453V0.545454H946.981V7.21875H947.135C947.43 6.44602 947.907 5.84091 948.566 5.40341C949.225 4.96023 950.052 4.73864 951.047 4.73864C951.956 4.73864 952.748 4.9375 953.424 5.33523C954.106 5.72727 954.635 6.29261 955.01 7.03125C955.39 7.7642 955.578 8.64205 955.572 9.66477V18H951.941V10.3125C951.947 9.50568 951.743 8.87784 951.328 8.42898C950.919 7.98011 950.345 7.75568 949.606 7.75568C949.112 7.75568 948.674 7.8608 948.294 8.07102C947.919 8.28125 947.623 8.58807 947.407 8.99148C947.197 9.3892 947.089 9.86932 947.083 10.4318ZM964.395 18.2557C963.049 18.2557 961.89 17.983 960.918 17.4375C959.952 16.8864 959.208 16.108 958.685 15.1023C958.162 14.0909 957.901 12.8949 957.901 11.5142C957.901 10.1676 958.162 8.9858 958.685 7.96875C959.208 6.9517 959.944 6.15909 960.892 5.59091C961.847 5.02273 962.966 4.73864 964.25 4.73864C965.114 4.73864 965.918 4.87784 966.662 5.15625C967.412 5.42898 968.066 5.84091 968.623 6.39205C969.185 6.94318 969.623 7.63636 969.935 8.47159C970.248 9.30114 970.404 10.2727 970.404 11.3864V12.3835H959.35V10.1335H966.986C966.986 9.6108 966.873 9.14773 966.645 8.74432C966.418 8.34091 966.103 8.02557 965.699 7.7983C965.301 7.56534 964.838 7.44886 964.31 7.44886C963.759 7.44886 963.27 7.5767 962.844 7.83239C962.424 8.08239 962.094 8.42045 961.855 8.84659C961.617 9.26705 961.495 9.7358 961.489 10.2528V12.392C961.489 13.0398 961.608 13.5994 961.847 14.071C962.091 14.5426 962.435 14.9062 962.878 15.1619C963.321 15.4176 963.847 15.5455 964.455 15.5455C964.858 15.5455 965.228 15.4886 965.563 15.375C965.898 15.2614 966.185 15.0909 966.424 14.8636C966.662 14.6364 966.844 14.358 966.969 14.0284L970.327 14.25C970.157 15.0568 969.807 15.7614 969.279 16.3636C968.756 16.9602 968.08 17.4261 967.25 17.7614C966.426 18.0909 965.475 18.2557 964.395 18.2557ZM972.773 18V4.90909H976.293V7.19318H976.429C976.668 6.38068 977.069 5.76705 977.631 5.35227C978.194 4.93182 978.841 4.72159 979.574 4.72159C979.756 4.72159 979.952 4.73295 980.162 4.75568C980.373 4.77841 980.557 4.80966 980.716 4.84943V8.07102C980.546 8.01989 980.31 7.97443 980.009 7.93466C979.708 7.89489 979.432 7.875 979.182 7.875C978.648 7.875 978.171 7.99148 977.75 8.22443C977.336 8.4517 977.006 8.76989 976.762 9.17898C976.523 9.58807 976.404 10.0597 976.404 10.5938V18H972.773ZM987.95 18.2557C986.603 18.2557 985.444 17.983 984.473 17.4375C983.507 16.8864 982.762 16.108 982.24 15.1023C981.717 14.0909 981.456 12.8949 981.456 11.5142C981.456 10.1676 981.717 8.9858 982.24 7.96875C982.762 6.9517 983.498 6.15909 984.447 5.59091C985.402 5.02273 986.521 4.73864 987.805 4.73864C988.669 4.73864 989.473 4.87784 990.217 5.15625C990.967 5.42898 991.62 5.84091 992.177 6.39205C992.74 6.94318 993.177 7.63636 993.49 8.47159C993.802 9.30114 993.958 10.2727 993.958 11.3864V12.3835H982.904V10.1335H990.541C990.541 9.6108 990.427 9.14773 990.2 8.74432C989.973 8.34091 989.657 8.02557 989.254 7.7983C988.856 7.56534 988.393 7.44886 987.865 7.44886C987.314 7.44886 986.825 7.5767 986.399 7.83239C985.978 8.08239 985.649 8.42045 985.41 8.84659C985.172 9.26705 985.049 9.7358 985.044 10.2528V12.392C985.044 13.0398 985.163 13.5994 985.402 14.071C985.646 14.5426 985.99 14.9062 986.433 15.1619C986.876 15.4176 987.402 15.5455 988.01 15.5455C988.413 15.5455 988.782 15.4886 989.118 15.375C989.453 15.2614 989.74 15.0909 989.978 14.8636C990.217 14.6364 990.399 14.358 990.524 14.0284L993.882 14.25C993.711 15.0568 993.362 15.7614 992.833 16.3636C992.311 16.9602 991.635 17.4261 990.805 17.7614C989.981 18.0909 989.029 18.2557 987.95 18.2557Z" fill="white"/>
    <path d="M921.5 65L909.809 44L933.191 44L921.5 65Z" fill="white"/>
</svg>
